<svg fill="none" xmlns="http://www.w3.org/2000/svg" viewBox="0 0 59 73"><path fill-rule="evenodd" clip-rule="evenodd" d="M30.45 1.891H12.03v44.334h31.704v-4.589h.89v5.034l-.446.444H11.586l-.445-.444V1.447l.445-.445H30.446A8.607 8.607 0 0 1 30.654 1a33.563 33.563 0 0 1 2.807.141c1.808.167 4.227.53 6.652 1.317 2.423.786 4.88 2.003 6.737 3.895 1.867 1.904 3.107 4.474 3.107 7.909 0 6.798-3.108 10.42-6.248 12.319a15.042 15.042 0 0 1-4.081 1.684c.339.098.711.211 1.111.342 1.918.627 4.478 1.662 7.041 3.29 5.136 3.264 10.302 8.928 10.302 18.455 0 9.492-4.256 14.849-8.535 17.817a22.312 22.312 0 0 1-7.787 3.392 13.883 13.883 0 0 1-.735.136l-.011.002h-.004l-.06-.44.046.442-.013.001-.036.004a23.335 23.335 0 0 1-.681.06c-.469.038-1.147.087-1.988.13-1.681.086-4.017.15-6.635.06-5.217-.177-11.63-.964-16.2-3.451-4.652-2.532-6.918-8.064-8.033-12.838a44.423 44.423 0 0 1-1.106-8.553H1v-.89h5.742l.445.447v.01a6.642 6.642 0 0 0 .001.169 40.609 40.609 0 0 0 .131 2.449c.136 1.615.409 3.816.958 6.166 1.105 4.73 3.296 9.92 7.591 12.258 4.377 2.383 10.611 3.168 15.805 3.345 2.587.088 4.897.025 6.56-.06a66.587 66.587 0 0 0 2.49-.174l.135-.013.034-.004h.007l.032-.005a12.713 12.713 0 0 0 .643-.121 19.431 19.431 0 0 0 1.847-.498 21.422 21.422 0 0 0 5.62-2.755c4.064-2.819 8.152-7.915 8.152-17.086 0-9.136-4.93-14.552-9.89-17.703-2.484-1.579-4.972-2.585-6.84-3.197a29.056 29.056 0 0 0-2.253-.641 19.505 19.505 0 0 0-.828-.18h-.01l-.002-.001v-.001l.051-.88v-.002h.005l.022-.001.093-.008c.082-.008.206-.02.365-.042.317-.042.773-.118 1.322-.249 1.1-.262 2.562-.745 4.02-1.628 2.895-1.75 5.82-5.093 5.82-11.557 0-3.196-1.144-5.543-2.853-7.286-1.72-1.753-4.03-2.911-6.376-3.672-2.343-.76-4.692-1.114-6.46-1.277a32.682 32.682 0 0 0-2.131-.13 22.643 22.643 0 0 0-.786-.006h-.012Zm10.5 69.368.046.442.013-.001-.06-.441Z" fill="#181B1B"/><path d="m40.95 71.259.06.44h.004l.01-.002a3.771 3.771 0 0 0 .188-.03c.128-.022.313-.056.548-.106a22.312 22.312 0 0 0 7.787-3.391c4.28-2.97 8.535-8.326 8.535-17.818 0-9.527-5.166-15.191-10.302-18.454-2.563-1.629-5.123-2.664-7.04-3.291-.4-.131-.773-.244-1.112-.342a15.042 15.042 0 0 0 4.081-1.684c3.14-1.9 6.248-5.52 6.248-12.319 0-3.435-1.24-6.005-3.107-7.909-1.857-1.892-4.314-3.11-6.737-3.895-2.425-.787-4.844-1.15-6.652-1.317a33.563 33.563 0 0 0-2.19-.132 23.49 23.49 0 0 0-.825-.007H11.586l-.445.445V46.67l.445.444h32.592l.445-.444v-5.034h-.89v4.589H12.032V1.89h18.431a6.911 6.911 0 0 1 .192-.001c.136 0 .337.001.594.008.513.013 1.248.047 2.131.129 1.768.163 4.117.518 6.46 1.277 2.346.76 4.656 1.919 6.376 3.672 1.709 1.743 2.852 4.09 2.852 7.286 0 6.464-2.925 9.807-5.818 11.557a14.204 14.204 0 0 1-4.02 1.628c-.55.131-1.006.207-1.323.25a9.019 9.019 0 0 1-.48.05h-.004v.003l-.052.879.002.001.01.002.04.007.162.032c.143.03.355.075.626.14.542.13 1.319.336 2.253.641 1.868.612 4.356 1.618 6.84 3.197 4.96 3.151 9.89 8.567 9.89 17.703 0 9.171-4.088 14.267-8.153 17.086a21.422 21.422 0 0 1-5.619 2.755 19.44 19.44 0 0 1-1.847.498 12.713 12.713 0 0 1-.675.126h-.007l-.034.004-.136.013a66.587 66.587 0 0 1-2.49.174 78.046 78.046 0 0 1-6.559.06c-5.194-.177-11.428-.962-15.805-3.345-4.295-2.337-6.486-7.527-7.591-12.258a43.535 43.535 0 0 1-1.089-8.615 15.226 15.226 0 0 1-.001-.17v-.01l-.445-.445H1v.89h5.304c.003.085.005.183.01.292.016.47.05 1.143.12 1.966.137 1.645.415 3.891.976 6.294 1.115 4.774 3.38 10.306 8.033 12.838 4.57 2.487 10.983 3.274 16.2 3.452 2.618.09 4.954.025 6.635-.06a67.944 67.944 0 0 0 2.528-.177l.14-.014.037-.004h.012l.001-.001-.046-.442Zm0 0 .046.442.013-.001-.06-.441Z" stroke="#181B1B" stroke-width=".7" stroke-linejoin="bevel"/><path fill-rule="evenodd" clip-rule="evenodd" d="M22.499 3.36c.245 0 .444.199.444.444v31.991l-.13.314-8.895 8.93a.445.445 0 1 1-.63-.627l8.766-8.8V3.804c0-.245.199-.445.445-.445Z" fill="#181B1B" stroke="#181B1B" stroke-width=".7" stroke-linecap="round" stroke-linejoin="bevel"/><path fill-rule="evenodd" clip-rule="evenodd" d="m20.584 4.159-6.667 6.666-.629-.629 6.666-6.666.63.629Zm0 3.41-6.667 6.666-.629-.629 6.666-6.666.63.629Zm0 3.284-6.667 6.666-.629-.629 6.666-6.666.63.629Zm0 3.388-6.667 6.666-.629-.629 6.666-6.666.63.629Zm0 3.41-6.667 6.666-.629-.629 6.666-6.666.63.629Zm0 3.284L13.917 27.6l-.629-.629 6.666-6.666.63.629Zm0 3.388-6.667 6.666-.629-.629 6.666-6.666.63.629Zm0 3.41-6.667 6.666-.629-.629 6.666-6.666.63.629Zm0 3.284-6.667 6.666-.629-.629 6.666-6.666.63.629Zm0 3.536-6.667 6.666-.629-.629 6.666-6.666.63.63Z" fill="#181B1B" stroke="#181B1B" stroke-width=".7"/></svg>