<svg fill="none" xmlns="http://www.w3.org/2000/svg" viewBox="0 0 689 299"><g clip-path="url(#a)"><path d="M621.498 123.346h-404.24a6.471 6.471 0 0 0-6.471 6.474 6.472 6.472 0 0 0 6.471 6.475h11.451v154.882a6.474 6.474 0 0 0 6.471 6.474 6.472 6.472 0 0 0 6.472-6.474l.099-154.882h324.443l29.915 154.882a6.472 6.472 0 1 0 12.943 0l1.883-154.882h10.563a6.476 6.476 0 0 0 0-12.949Z" fill="#CCC"/><path d="M287.328 94.498v27.417h-68.663a13.723 13.723 0 0 1-9.83-3.678 13.715 13.715 0 0 1-3.49-14.836 13.728 13.728 0 0 1 7.159-7.677 13.702 13.702 0 0 1 6.161-1.226h68.663Z" fill="#F2F2F2"/><path d="M289.015 121.704a1.054 1.054 0 0 1-1.054 1.054h-70.519a14.447 14.447 0 0 1 0-28.892h70.519a1.054 1.054 0 1 1 0 2.109h-70.519a12.33 12.33 0 0 0-12.314 12.337 12.337 12.337 0 0 0 12.314 12.337h70.519a1.058 1.058 0 0 1 1.054 1.055Z" fill="#fff"/><path d="M287.328 100.825h-73.786a.21.21 0 0 1-.152-.358.212.212 0 0 1 .148-.064h73.79a.21.21 0 0 1 .209.211.21.21 0 0 1-.209.211ZM287.328 105.887h-73.786a.21.21 0 0 1-.212-.209.21.21 0 0 1 .208-.213h73.79a.214.214 0 0 1 .148.062.213.213 0 0 1 0 .297.21.21 0 0 1-.148.063ZM287.328 110.948h-73.786a.211.211 0 0 1-.004-.422h73.79a.21.21 0 0 1 .209.211.21.21 0 0 1-.209.211ZM287.328 116.01h-73.786a.212.212 0 0 1-.004-.422h73.79a.21.21 0 0 1 .209.211.21.21 0 0 1-.209.211Z" fill="#CCC"/><path d="M274.384 65.614V93.03h-68.663a13.708 13.708 0 0 1-9.829-3.678 13.723 13.723 0 0 1-.674-19.386 13.707 13.707 0 0 1 10.503-4.352h68.663Z" fill="#F2F2F2"/><path d="M276.071 92.82a1.053 1.053 0 0 1-1.054 1.054h-70.519c-3.83 0-7.503-1.522-10.211-4.232a14.45 14.45 0 0 1 0-20.43 14.437 14.437 0 0 1 10.211-4.231h70.519a1.054 1.054 0 0 1 0 2.109h-70.519a12.331 12.331 0 0 0-12.333 12.337 12.331 12.331 0 0 0 12.333 12.337h70.519a1.055 1.055 0 0 1 1.054 1.055Z" fill="#3F3D56"/><path d="M274.384 71.94h-73.786a.21.21 0 0 1-.004-.421h73.79a.21.21 0 0 1 .148.359.211.211 0 0 1-.148.063ZM274.384 77.002h-73.786a.21.21 0 0 1-.004-.422h73.79a.21.21 0 0 1 0 .422ZM274.384 82.063h-73.786a.21.21 0 0 1-.004-.421h73.79a.21.21 0 0 1 0 .421ZM274.384 87.125h-73.786a.21.21 0 0 1-.004-.422h73.79a.21.21 0 0 1 0 .422ZM354.261 220.361v-23.905a3.985 3.985 0 0 0-3.983-3.984h-90.605a3.984 3.984 0 0 0-3.983 3.984v23.905h98.571ZM354.261 229.325H255.69v30.877h98.571v-30.877ZM255.69 269.166v23.905a3.983 3.983 0 0 0 3.983 3.984h90.605a3.983 3.983 0 0 0 3.983-3.984v-23.905H255.69Z" fill="#CCC"/><path d="M304.477 210.401a2.987 2.987 0 1 0 0-5.975 2.987 2.987 0 0 0 0 5.975ZM304.477 250.242a2.987 2.987 0 1 0 0-5.975 2.987 2.987 0 0 0 0 5.975ZM304.637 289.239a2.987 2.987 0 1 0 0-5.975 2.987 2.987 0 0 0 0 5.975Z" fill="#fff"/><path d="M343.085 165.216v27.417h-68.663a13.712 13.712 0 0 1-14.171-13.232 13.722 13.722 0 0 1 3.673-9.829 13.709 13.709 0 0 1 10.498-4.356h68.663Z" fill="#F2F2F2"/><path d="M344.772 192.422a1.054 1.054 0 0 1-1.054 1.054h-70.519a14.437 14.437 0 0 1-10.211-4.227 14.45 14.45 0 0 1-.012-20.426 14.442 14.442 0 0 1 10.206-4.24h70.536a1.058 1.058 0 0 1 1.057 1.055 1.056 1.056 0 0 1-1.057 1.054h-70.519a12.337 12.337 0 0 0 0 24.675h70.519a1.054 1.054 0 0 1 1.054 1.055Z" fill="#3F3D56"/><path d="M343.085 171.543h-73.786a.211.211 0 0 1-.004-.422h73.79a.21.21 0 0 1 0 .422ZM343.085 176.605h-73.786a.211.211 0 0 1-.004-.422h73.79a.21.21 0 0 1 .209.211.21.21 0 0 1-.209.211ZM343.085 181.666h-73.786a.207.207 0 0 1-.149-.061.207.207 0 0 1-.063-.148.212.212 0 0 1 .208-.213h73.79a.21.21 0 0 1 .209.211.213.213 0 0 1-.061.149.214.214 0 0 1-.148.062ZM343.085 186.727h-73.786a.209.209 0 0 1-.212-.209.21.21 0 0 1 .208-.212h73.79a.21.21 0 0 1 .209.211.21.21 0 0 1-.209.21Z" fill="#CCC"/><path d="M262.444 56.468H231.16c-.297 0-.59.067-.856.199l-7.896 3.954a1.439 1.439 0 0 0 0 2.65l7.896 3.954c.266.13.559.2.856.199h31.284a1.643 1.643 0 0 0 1.732-1.524V57.99a1.641 1.641 0 0 0-1.732-1.523Z" fill="#3F3D56"/><path d="M264.176 57.992V65.9a1.642 1.642 0 0 1-1.732 1.524h-6.233V56.468h6.233a1.643 1.643 0 0 1 1.732 1.523Z" fill="#fff"/><path d="M74.888 211.43a24.86 24.86 0 0 0 24.01-4.231c8.408-7.061 11.045-18.693 13.19-29.464l6.345-31.858-13.284 9.15c-9.553 6.581-19.322 13.372-25.937 22.903-6.615 9.532-9.502 22.543-4.187 32.857" fill="#E6E6E6"/><path d="M76.024 250.001c-1.345-9.798-2.727-19.721-1.784-29.623.837-8.795 3.52-17.384 8.98-24.427a40.595 40.595 0 0 1 10.421-9.447c1.043-.659 2.002.994.964 1.649A38.628 38.628 0 0 0 79.33 206.59c-3.325 8.461-3.86 17.685-3.286 26.674.347 5.436 1.08 10.836 1.821 16.229a.99.99 0 0 1-.667 1.175.959.959 0 0 1-1.174-.667Z" fill="#F2F2F2"/><path d="M88.974 232.664a18.3 18.3 0 0 0 15.947 8.234c8.073-.384 14.803-6.02 20.861-11.371l17.919-15.827-11.859-.568c-8.529-.408-17.278-.789-25.401 1.842-8.123 2.631-15.615 8.963-17.1 17.374" fill="#E6E6E6"/><path d="M72.224 255.633c6.472-11.455 13.978-24.186 27.39-28.256a30.577 30.577 0 0 1 11.522-1.19c1.223.106.918 1.992-.303 1.887a28.384 28.384 0 0 0-18.386 4.866c-5.184 3.53-9.22 8.437-12.637 13.642-2.093 3.187-3.967 6.51-5.842 9.829-.599 1.06-2.35.295-1.744-.778Z" fill="#F2F2F2"/><path d="M61.855 267.69a13.869 13.869 0 0 1 8.492-11.611v-6.623H81.45v6.831a13.857 13.857 0 0 1 8.03 11.403l2.611 30.361H59.244l2.61-30.361Z" fill="#F2F2F2"/><path d="m439.46 122.724-3.303-1.391-2.266-16.565h-30.175l-2.456 16.497-2.955 1.478a.706.706 0 0 0-.369.789.698.698 0 0 0 .683.541h40.568a.703.703 0 0 0 .273-1.349Z" fill="#E6E6E6"/><path d="M493.081 106.972H344.857a2.939 2.939 0 0 1-2.93-2.938V83.125h154.084v20.909a2.938 2.938 0 0 1-2.93 2.938Z" fill="#CCC"/><path d="M496.166 93.007H341.791V3.541A3.548 3.548 0 0 1 345.331 0h147.295a3.541 3.541 0 0 1 3.54 3.541v89.466Z" fill="#3F3D56"/><path d="M486.946 86.514H351.012a2.73 2.73 0 0 1-2.73-2.73V9.224a2.734 2.734 0 0 1 2.73-2.73h135.934a2.732 2.732 0 0 1 2.729 2.73v74.56a2.729 2.729 0 0 1-2.729 2.73Z" fill="#fff"/><path d="M451.143 112.823a8.165 8.165 0 0 1 6.588-2.103 8.17 8.17 0 0 1 5.841 3.702l18.387-3.27 4.711 10.693-26.03 4.253a8.212 8.212 0 0 1-10.643-2.418 8.219 8.219 0 0 1 1.146-10.857Z" fill="#FFB6B6"/><path d="m468.166 126.476 19.169-.239 2.426-.033 39-.492s10.59-10.107 19.812-20.513l-1.293-9.352a38.215 38.215 0 0 0-12.807-23.658c-13.208 8.828-20.867 26.304-20.867 26.304l-24.181 5.785-2.419.579-15.025 3.592-3.815 18.027Z" fill="#fff"/><path d="M566.293 183.959h-35.781c0 1.534-39.113 2.779-39.113 2.779a14.295 14.295 0 0 0-2.344 2.222 13.794 13.794 0 0 0-3.222 8.891v2.223a13.9 13.9 0 0 0 4.069 9.822 13.887 13.887 0 0 0 9.818 4.07h66.572a13.899 13.899 0 0 0 13.888-13.892v-2.223a13.913 13.913 0 0 0-13.887-13.892Z" fill="#E4E4E4"/><path d="M540.273 213.414h-14.442v83.393h14.442v-83.393Z" fill="#E4E4E4"/><path d="M484.725 296.3c0 1.561 21.885.603 48.882.603 26.997 0 48.882.958 48.882-.603 0-1.562-21.885-13.941-48.882-13.941-26.997 0-48.882 12.379-48.882 13.941Z" fill="#E4E4E4"/><path d="m475.023 286.771-10.748-.001-5.114-41.474 15.864.001-.002 41.474Z" fill="#FFB6B6"/><path d="m477.764 297.194-34.658-.001v-.439a13.497 13.497 0 0 1 13.49-13.495h.001l21.168.001-.001 13.934Z" fill="#2F2E41"/><path d="m443.255 286.771-10.749-.001-5.113-41.474 15.863.001-.001 41.474Z" fill="#FFB6B6"/><path d="m445.996 297.194-34.658-.001v-.439a13.496 13.496 0 0 1 13.49-13.495l21.169.001-.001 13.934Z" fill="#2F2E41"/><path d="M539.539 48c10.321 0 18.689-8.371 18.689-18.697 0-10.325-8.368-18.695-18.689-18.695-10.322 0-18.689 8.37-18.689 18.695C520.85 39.63 529.217 48 539.539 48Z" fill="#FFB6B6"/><path d="M569.787 157.4s6.27 33.17-17.589 37.394c-23.859 4.224-58.3 7.193-58.3 7.193l-15.466 72.186-20.779-1.855s2.763-86.897 9.559-93.695c6.796-6.799 49.75-27.155 49.75-27.155l52.825 5.932Z" fill="#2F2E41"/><path d="m523.188 143.498-10.435 10.472s-75.345 12.14-78.252 29.549c-4.388 26.283-9.571 83.437-9.571 83.437l22.653-1.7 8.883-64.969 36.246-8.247 41.237-22.482-10.761-26.06ZM557.523 18.143c-1.845-3.482-4.189-10.421-7.913-11.708a29.594 29.594 0 0 0-6.373-1.358l-6.329 2.435 3.445-2.68a93.038 93.038 0 0 0-2.011-.098l-4.271 1.643 2.185-1.7c-3.981-.041-8.09.373-11.175 2.798-2.63 2.066-5.236 9.896-5.657 13.215a25.28 25.28 0 0 0 .464 9.523l1.082 1.029c.378-.868.663-1.774.848-2.702a12.805 12.805 0 0 1 6.123-8.31l.059-.033c1.814-1.02 4.015-.974 6.095-.899l9.879.356c2.376.085 4.936.236 6.789 1.727a11.192 11.192 0 0 1 2.714 3.934c.921 1.859 2.72 8.87 2.72 8.87s1.018-1.323 1.506-.338a34.095 34.095 0 0 0 1.417-7.906 15.494 15.494 0 0 0-1.597-7.797Z" fill="#2F2E41"/><path d="M622.889 37.514a8.166 8.166 0 0 0-6.06 3.332 8.168 8.168 0 0 0-1.337 6.787l-15.029 11.09 4.51 10.78 21.003-15.96a8.215 8.215 0 0 0 4.57-3.634 8.223 8.223 0 0 0-2.065-10.72 8.213 8.213 0 0 0-5.592-1.675Z" fill="#FFB6B6"/><path d="m620.47 60.154-37.676 41.858s-18.017-5.77-31.951-12.025l-6.26-19.233a38.25 38.25 0 0 1-1.83-13.84c19.317-5.142 41.784 13.99 41.784 13.99l28.202-22.098 7.731 11.348Z" fill="#fff"/><path d="M532.558 160.491c-6.721-2.323-13.672-4.724-21.169-5.626l-.322-.039.089-.312c7.761-27.258 5.824-44.695 2.021-70.889a26.453 26.453 0 0 1 15.16-27.8l.046-.021 21.412-1.361.049-.003 15.572 4.581a10.683 10.683 0 0 1 7.646 10.439c-.169 8.614.189 18.23.567 28.413.85 22.842 1.729 46.462-3.257 61.787l-.026.081-.067.052a25.388 25.388 0 0 1-16.238 5.706c-6.99 0-14.123-2.465-21.483-5.008Z" fill="#fff"/><path d="M688.004 299H.996a.995.995 0 0 1 0-1.992h687.008a.994.994 0 0 1 .996.996.995.995 0 0 1-.996.996Z" fill="#CCC"/></g><defs><clipPath id="a"><path fill="#fff" d="M0 0h689v299H0z"/></clipPath></defs></svg>