<svg width="53" height="53" viewBox="0 0 53 53" fill="none" xmlns="http://www.w3.org/2000/svg">
<path d="M52.4748 7.99996L27.9089 51.928C27.4017 52.835 26.0986 52.8403 25.5838 51.9378L0.530883 8.00405C-0.0300707 7.02064 0.810951 5.82928 1.9255 6.02866L26.5178 10.4242C26.6747 10.4522 26.8353 10.4519 26.9921 10.4233L51.07 6.03479C52.1809 5.83234 53.0258 7.01451 52.4748 7.99996Z" fill="url(#paint0_linear_308_75)"/>
<path d="M38.2322 0.262892L20.0529 3.82513C19.9077 3.85359 19.776 3.92951 19.6786 4.04096C19.5812 4.15241 19.5236 4.29307 19.5148 4.44083L18.3966 23.3278C18.3905 23.4313 18.4086 23.5349 18.4494 23.6303C18.4903 23.7257 18.5529 23.8102 18.6321 23.8772C18.7114 23.9442 18.8051 23.9918 18.906 24.0162C19.0069 24.0406 19.112 24.0411 19.2131 24.0178L24.2746 22.8497C24.7481 22.7404 25.1761 23.1576 25.0786 23.6338L23.5749 30.9975C23.4738 31.493 23.9389 31.9167 24.4229 31.7696L27.5492 30.8199C28.0337 30.6729 28.4995 31.0978 28.397 31.5937L26.0073 43.1603C25.8577 43.8839 26.8201 44.2783 27.2213 43.6581L27.4895 43.2438L42.3031 13.6804C42.5513 13.1855 42.1234 12.621 41.58 12.726L36.3698 13.7315C35.8803 13.8259 35.4638 13.3699 35.6019 12.8911L39.0024 1.1031C39.1407 0.623038 38.7225 0.16688 38.2324 0.262892H38.2322Z" fill="url(#paint1_linear_308_75)"/>
<defs>
<linearGradient id="paint0_linear_308_75" x1="-0.0808048" y1="9.57279" x2="26.4133" y2="45.5541" gradientUnits="userSpaceOnUse">
<stop stop-color="#41D1FF"/>
<stop offset="1" stop-color="#BD34FE"/>
</linearGradient>
<linearGradient id="paint1_linear_308_75" x1="28.797" y1="1.23011" x2="34.2473" y2="38.6183" gradientUnits="userSpaceOnUse">
<stop stop-color="#FFEA83"/>
<stop offset="0.08333" stop-color="#FFDD35"/>
<stop offset="1" stop-color="#FFA800"/>
</linearGradient>
</defs>
</svg>
