<svg width="41" height="49" viewBox="0 0 41 49" fill="none" xmlns="http://www.w3.org/2000/svg">
<path d="M24.341 23.4413H14.768V28.0458H24.1108C24.6637 28.0458 25.1694 27.8136 25.5846 27.4456C25.9526 27.0777 26.1828 26.5247 26.1828 25.8341C26.1962 25.2419 26.0189 24.661 25.6771 24.1772C25.3072 23.7168 24.8939 23.4413 24.341 23.4413ZM24.6637 17.8726C25.0769 17.5972 25.2619 16.997 25.2619 16.2138C25.2619 15.5251 25.0769 15.0175 24.7562 14.6967C24.4255 14.4048 24.0009 14.2414 23.5598 14.2363H14.768V18.3784H23.3749C23.8353 18.3784 24.2957 18.1481 24.6637 17.8726ZM38.7015 0.887207H2.57202C1.4209 0.887207 0.5 1.8081 0.5 2.91397V39.0907C0.5 40.1965 1.4209 40.8852 2.52676 40.8852H7.86521V48.1127L14.4925 40.9305H38.7035C39.8093 40.9305 40.5 40.2418 40.5 39.0907V2.95923C40.5 1.85336 39.8093 0.932465 38.6582 0.932465L38.7015 0.887207ZM32.6271 30.2064C32.1532 31.0415 31.4713 31.7397 30.6476 32.2331C29.7719 32.7841 28.8058 33.2918 27.7019 33.522C26.596 33.7975 25.3996 34.0277 24.158 34.0277H7.86324V8.25045H26.3658C27.2867 8.25045 28.0699 8.43542 28.8058 8.85061C29.4965 9.21857 30.1419 9.72428 30.6476 10.3225C31.6787 11.5818 32.2336 13.1619 32.2119 14.7892C32.2119 15.9856 31.8892 17.1347 31.291 18.2406C30.6709 19.3515 29.7 20.2254 28.5303 20.7259C30.0022 21.1391 31.1533 21.877 32.0289 22.9356C32.8554 24.0395 33.2706 25.4661 33.2706 27.2626C33.2706 28.4118 33.0403 29.3799 32.5819 30.2083L32.6271 30.2064Z" fill="#00B3B0"/>
</svg>
