<svg width="41" height="41" viewBox="0 0 41 41" fill="none" xmlns="http://www.w3.org/2000/svg">
<path fill-rule="evenodd" clip-rule="evenodd" d="M35.3522 1.83563C36.9598 2.68903 38.2737 4.00603 39.1233 5.61563C39.9933 7.24563 40.4566 8.86219 40.4566 13.3188V21.1467C40.4565 21.1961 40.4418 21.2444 40.4143 21.2854C40.3868 21.3264 40.3478 21.3584 40.3022 21.3773C40.2565 21.3962 40.2063 21.4011 40.1579 21.3915C40.1095 21.3819 40.065 21.3582 40.03 21.3233V21.3222L37.08 18.3667C36.8457 18.132 36.7142 17.8139 36.7144 17.4823V13.8642C36.7144 10.5209 36.3666 9.30875 35.7144 8.08656C35.0769 6.87953 34.0913 5.892 32.8855 5.25219C31.6794 4.60453 30.482 4.25719 27.2256 4.25H22.3489C22.2996 4.24973 22.2515 4.23489 22.2106 4.20734C22.1697 4.1798 22.1379 4.14077 22.1191 4.09518C22.1003 4.04959 22.0954 3.99947 22.1051 3.95112C22.1147 3.90276 22.1385 3.85834 22.1733 3.82344L25.1233 0.866719C25.2389 0.750531 25.3764 0.658327 25.5278 0.595396C25.6792 0.532465 25.8415 0.500046 26.0055 0.5H27.6644C32.1122 0.5 33.7255 0.964375 35.3522 1.83563ZM29.2311 6.75C31.9866 6.75 34.22 8.98891 34.22 11.75V14.9156C34.2198 14.9644 34.2053 15.0121 34.1783 15.0528C34.1513 15.0935 34.1129 15.1254 34.068 15.1445C34.0231 15.1637 33.9736 15.1692 33.9255 15.1605C33.8775 15.1518 33.833 15.1293 33.7976 15.0956L29.7755 11.2422C29.5183 10.9842 29.2077 10.7859 28.8655 10.6611C28.5836 10.5543 28.2847 10.4997 27.9833 10.5H16.1098C16.0604 10.4999 16.0122 10.4852 15.9712 10.4577C15.9301 10.4303 15.8982 10.3912 15.8793 10.3456C15.8604 10.3 15.8554 10.2498 15.865 10.2013C15.8747 10.1529 15.8984 10.1084 15.9333 10.0734L18.8876 7.11562C19.0033 6.99979 19.1407 6.90789 19.2919 6.84515C19.4431 6.78242 19.6052 6.75009 19.7689 6.75H29.2311Z" fill="#E55638"/>
<path fill-rule="evenodd" clip-rule="evenodd" d="M37.14 22.1779L40.0911 25.1345C40.3249 25.3695 40.4563 25.6874 40.4567 26.0189V27.6823C40.4567 32.139 39.9933 33.7557 39.1233 35.3857C38.2737 36.9953 36.9598 38.3123 35.3522 39.1657C33.7256 40.0357 32.1122 40.5001 27.6644 40.5001H19.8544C19.8051 40.4998 19.757 40.485 19.7161 40.4574C19.6752 40.4298 19.6434 40.3908 19.6247 40.3452C19.6059 40.2996 19.6011 40.2495 19.6107 40.2012C19.6204 40.1529 19.6441 40.1084 19.6789 40.0736V40.0745L22.6289 37.1179C22.7446 37.0017 22.882 36.9095 23.0334 36.8466C23.1848 36.7837 23.3471 36.7513 23.5111 36.7512H27.1211C30.4566 36.7512 31.6655 36.4034 32.8855 35.749C34.0913 35.1092 35.0769 34.1217 35.7144 32.9146C36.3666 31.6923 36.7144 30.4801 36.7144 27.1368V22.3545C36.7146 22.3053 36.7294 22.2573 36.7568 22.2164C36.7843 22.1756 36.8231 22.1438 36.8686 22.1249C36.914 22.1061 36.964 22.1011 37.0123 22.1105C37.0606 22.1199 37.105 22.1434 37.14 22.1779ZM30.9042 15.9267L33.8553 18.8867C34.089 19.1217 34.22 19.4397 34.2198 19.7711V29.2532C34.2198 32.0143 31.9864 34.2532 29.2308 34.2532H26.072C26.0232 34.253 25.9756 34.2385 25.9349 34.2115C25.8943 34.1845 25.8624 34.1462 25.8433 34.1013C25.8242 34.0564 25.8186 34.0069 25.8272 33.9589C25.8359 33.9109 25.8584 33.8664 25.892 33.8311V33.83L29.7364 29.7978C29.9947 29.5404 30.1931 29.2294 30.3176 28.8867C30.4238 28.6043 30.478 28.305 30.4775 28.0032V16.1032C30.4775 16.0538 30.4922 16.0055 30.5197 15.9645C30.5472 15.9234 30.5862 15.8914 30.6319 15.8725C30.6776 15.8536 30.7278 15.8487 30.7763 15.8583C30.8247 15.868 30.8693 15.8918 30.9042 15.9267Z" fill="#F4C942"/>
<path fill-rule="evenodd" clip-rule="evenodd" d="M0.968899 19.6766L3.92109 22.6333C4.15487 22.8683 4.28629 23.1862 4.28671 23.5177V27.1356C4.28671 30.4789 4.63327 31.6911 5.28671 32.9133C5.92386 34.1202 6.90903 35.1077 8.11437 35.7477C9.33437 36.4024 10.5444 36.75 13.88 36.75H18.6511C18.7006 36.7499 18.749 36.7644 18.7902 36.7918C18.8315 36.8191 18.8636 36.8581 18.8827 36.9038C18.9017 36.9495 18.9068 36.9998 18.8972 37.0484C18.8876 37.0969 18.8639 37.1415 18.8289 37.1766L15.8766 40.1333C15.761 40.2494 15.6237 40.3415 15.4726 40.4045C15.3214 40.4674 15.1592 40.4999 14.9955 40.5H13.3355C8.88765 40.5 7.27546 40.0356 5.6489 39.1644C4.04085 38.3112 2.7265 36.9942 1.87656 35.3844C1.01531 33.7708 0.552649 32.1703 0.54343 27.8141L0.543274 19.8531C0.543541 19.8039 0.558314 19.7559 0.585743 19.7151C0.613173 19.6743 0.65204 19.6424 0.697478 19.6236C0.742915 19.6047 0.792904 19.5997 0.841184 19.6091C0.889465 19.6186 0.93389 19.642 0.968899 19.6766ZM7.20218 25.9044H7.20109L11.2255 29.7578C11.4822 30.0157 11.7925 30.2141 12.1344 30.3389C12.4162 30.4461 12.7152 30.5007 13.0167 30.5H24.8902C24.9394 30.5003 24.9875 30.5152 25.0284 30.5427C25.0693 30.5703 25.1011 30.6093 25.1198 30.6549C25.1386 30.7005 25.1434 30.7506 25.1338 30.7989C25.1242 30.8473 25.1004 30.8917 25.0656 30.9266L22.1123 33.8844C21.8786 34.1181 21.5617 34.2496 21.2311 34.25H11.7691C11.1132 34.2493 10.4638 34.1194 9.85812 33.8678C9.25242 33.6161 8.70222 33.2476 8.23894 32.7833C7.77566 32.319 7.40837 31.768 7.15804 31.1618C6.90772 30.5555 6.77925 29.9059 6.77999 29.25V26.0844C6.78021 26.0356 6.79471 25.9879 6.82172 25.9472C6.84873 25.9065 6.88706 25.8746 6.93197 25.8555C6.97689 25.8364 7.02643 25.8308 7.07447 25.8395C7.12252 25.8482 7.16697 25.8707 7.20234 25.9044H7.20218Z" fill="#7B8FEA"/>
<path fill-rule="evenodd" clip-rule="evenodd" d="M14.9276 6.75C14.9764 6.75024 15.0241 6.76476 15.0647 6.79176C15.1054 6.81876 15.1372 6.85706 15.1564 6.90195C15.1755 6.94683 15.1811 6.99634 15.1724 7.04436C15.1638 7.09238 15.1413 7.13681 15.1076 7.17219L11.2622 11.2056C11.0043 11.463 10.8063 11.774 10.6822 12.1166C10.5756 12.3989 10.521 12.6982 10.5211 13V24.9C10.5206 24.9491 10.5057 24.997 10.4782 25.0377C10.4507 25.0784 10.4119 25.1101 10.3665 25.1288C10.3211 25.1475 10.2711 25.1525 10.2229 25.143C10.1748 25.1336 10.1304 25.1101 10.0955 25.0756L7.14437 22.1156C6.9108 21.881 6.77977 21.5633 6.77999 21.2322V11.75C6.77999 8.98891 9.01327 6.75 11.7689 6.75H14.9276ZM21.1455 0.5C21.1948 0.500269 21.2429 0.51511 21.2838 0.542657C21.3247 0.570203 21.3565 0.609226 21.3753 0.654817C21.394 0.700408 21.3989 0.750532 21.3893 0.798884C21.3796 0.847236 21.3559 0.891658 21.3211 0.926562L18.3711 3.88328C18.2554 3.99938 18.1179 4.09152 17.9665 4.15445C17.8151 4.21737 17.6528 4.24984 17.4889 4.25H13.8789C10.5433 4.25 9.33327 4.59781 8.11327 5.25219C6.90747 5.892 5.92185 6.87953 5.28437 8.08656C4.63906 9.29594 4.29171 10.4956 4.28437 13.7595V18.6467C4.28407 18.6959 4.26929 18.7439 4.24187 18.7847C4.21444 18.8255 4.1756 18.8573 4.13019 18.8761C4.08479 18.895 4.03484 18.9 3.98658 18.8906C3.93833 18.8812 3.89391 18.8578 3.8589 18.8233L0.909993 15.8667C0.79378 15.7506 0.701579 15.6128 0.638656 15.461C0.575734 15.3093 0.543322 15.1466 0.543274 14.9823L0.543274 13.3188C0.543274 8.86219 1.00656 7.24531 1.87656 5.61563C2.72616 4.00603 4.04006 2.68903 5.64765 1.83563C7.25812 0.973125 8.85546 0.509375 13.2019 0.5H21.1456H21.1455Z" fill="#D97EE8"/>
</svg>
