<svg width="37" height="51" viewBox="0 0 37 51" fill="none" xmlns="http://www.w3.org/2000/svg">
<path d="M0.580444 25.5V0.5H36.4195V50.5H0.580444V25.5ZM28.0133 38.1484C28.2898 38.1234 28.5492 38.05 28.7945 37.9281C29.6883 37.4797 30.2086 36.5281 30.6179 34.5344C30.7804 33.7609 33.107 21.6844 33.1414 21.4891C33.1898 21.1078 33.1242 20.6937 32.9617 20.4969C32.909 20.4441 32.8484 20.3998 32.782 20.3656L32.6586 20.3016H32.0476C31.5179 20.3016 31.4289 20.3016 31.3242 20.3438C31.0867 20.425 30.893 20.6687 30.7945 21.0016C30.7695 21.0828 30.4445 22.8406 30.0695 24.9L29.3867 28.6609L29.2883 28.2219C28.1242 22.9156 27.6929 21.0281 27.6367 20.8656C27.5932 20.7379 27.5179 20.6234 27.4179 20.5328C27.1976 20.3031 27.1726 20.3031 26.2367 20.3031C25.382 20.3031 25.357 20.3031 25.1945 20.4578C25.0148 20.6219 24.9429 20.9062 24.9679 21.3281C24.9758 21.5734 25.057 21.8906 26.3992 27.1297C27.782 32.5172 27.9617 33.2594 28.0351 33.7469C28.1336 34.3734 27.9398 35.2359 27.6039 35.6109C27.5398 35.6844 27.5304 35.6922 27.4336 35.675C27.3695 35.675 27.182 35.6188 27.0023 35.5687C26.4508 35.4062 26.2539 35.4141 26.0414 35.6266C25.8476 35.8281 25.7586 36.1469 25.7586 36.6906C25.7586 37.2203 25.8148 37.3984 26.0914 37.6766C26.3601 37.9531 26.7586 38.1078 27.3289 38.1562C27.6711 38.1813 27.7836 38.1812 28.0117 38.15L28.0133 38.1484ZM24.0664 34.5844C24.1465 34.5444 24.2175 34.4882 24.2748 34.4193C24.3321 34.3505 24.3744 34.2705 24.3992 34.1844C24.4414 34.0641 24.4492 33.9828 24.4492 33.4453C24.4492 32.9078 24.4414 32.8187 24.3992 32.7031C24.3179 32.4516 24.1164 32.2969 23.8226 32.2484C23.7414 32.2313 23.4086 32.2313 23.0836 32.2313C22.3258 32.2313 22.2945 32.2062 22.1539 31.8484C22.0164 31.4734 21.9523 31.1656 21.9179 30.5969C21.8929 29.2453 21.8851 27.9031 21.8929 26.5516V22.875H22.6258C23.5695 22.875 23.6758 22.8578 23.8773 22.6375C23.9918 22.4947 24.0653 22.3235 24.0898 22.1422C24.1148 21.7672 24.1148 21.4 24.0898 21.0281C24.0336 20.6953 23.8773 20.4656 23.6508 20.3594C23.5273 20.3031 23.5133 20.3031 22.7148 20.2953H21.8914L21.8836 17.7563C21.8836 15.4875 21.8758 15.2016 21.8445 15.0875C21.8142 14.9783 21.7619 14.8765 21.6906 14.7883C21.6194 14.7001 21.5309 14.6275 21.4304 14.575C21.3164 14.5266 21.2742 14.5266 20.7617 14.5187C20.2008 14.5187 20.0226 14.5187 19.8679 14.6C19.6883 14.6812 19.557 14.8766 19.4851 15.1766C19.4523 15.2906 19.4117 15.8937 19.3226 17.8062L19.1992 20.2875C19.1992 20.2875 19.0289 20.2875 18.8258 20.3125C18.3945 20.3375 18.2711 20.3609 18.1398 20.4922C17.9461 20.6875 17.8883 20.8906 17.8726 21.4359C17.8554 22.1359 17.9211 22.4531 18.1164 22.6656C18.2711 22.8359 18.3929 22.8781 18.8304 22.8844L19.1883 22.9094V26.6281C19.1883 30.1703 19.2054 30.8359 19.2617 31.3656C19.3508 32.1391 19.5304 32.8391 19.7679 33.2953C20.1664 34.0906 20.8992 34.5812 21.8258 34.6875H23.9179L24.0633 34.6047L24.0664 34.5844ZM8.55545 34.5844C8.75701 34.4703 8.88045 34.2578 8.96951 33.8922C9.00232 33.7281 9.00232 33.0531 9.00232 24.475C9.00232 15.7578 9.00232 15.2312 8.96013 15.0828C8.85388 14.6766 8.57107 14.4719 8.17107 14.5391C8.09763 14.5625 7.45701 14.7156 6.74763 14.9031C6.03045 15.0906 5.32263 15.2781 5.16795 15.3203C4.81013 15.4094 4.71951 15.4406 4.58201 15.5812C4.3617 15.7828 4.33044 15.9625 4.33044 16.8422C4.33044 17.7047 4.3617 17.8844 4.57419 18.1031C4.76794 18.2984 4.97263 18.3078 5.52576 18.1609C5.7367 18.1109 5.9242 18.0625 5.93982 18.0625C5.96482 18.0625 5.97263 19.6984 5.97888 25.9C5.97888 33.0609 5.9867 33.7516 6.02107 33.8984C6.11951 34.3234 6.25701 34.5172 6.50857 34.6062C6.58357 34.6391 6.78513 34.6484 7.52732 34.6391C8.42888 34.6391 8.45388 34.6391 8.55232 34.5828L8.55545 34.5844ZM15.2195 34.5844C15.4148 34.4859 15.5367 34.2984 15.6336 33.9828L15.6836 33.8031L15.6914 24.5656C15.6914 17.9094 15.6914 15.2797 15.6664 15.1656C15.6023 14.7516 15.3648 14.5328 14.9992 14.5328C14.8601 14.5328 14.582 14.5891 13.207 14.9563C12.0445 15.2562 11.5461 15.4047 11.4429 15.4516C11.2813 15.5292 11.1559 15.6664 11.0929 15.8344C11.0351 15.9547 11.0351 15.9797 11.0351 16.8344C11.0351 17.6969 11.0351 17.6969 11.0929 17.8359C11.1313 17.9309 11.1894 18.0166 11.2633 18.0875C11.4742 18.2984 11.6211 18.3062 12.2148 18.1609C12.3601 18.1187 12.507 18.0875 12.6461 18.0547C12.6633 18.0547 12.6695 20.5609 12.6773 25.9484L12.6851 33.85L12.7351 34.0297C12.7836 34.2125 12.8815 34.3784 13.0179 34.5094C13.182 34.6328 13.1976 34.6406 14.207 34.6328C15.0695 34.6328 15.1336 34.6328 15.2148 34.5844H15.2195Z" fill="black"/>
</svg>
