<svg width="51" height="51" viewBox="0 0 51 51" fill="none" xmlns="http://www.w3.org/2000/svg">
<path d="M50.4808 24.1973C50.464 23.5558 50.43 22.8976 50.3965 22.2562C50.3627 21.598 50.3457 20.9398 50.2783 20.2816C50.1601 19.3867 50.042 18.4754 49.8394 17.5976C49.6875 16.8719 49.4343 16.1799 49.1812 15.4879C48.8605 14.6775 48.5398 13.8506 48.1347 13.0742C47.4763 11.8252 46.6156 10.7111 45.8222 9.54646C45.2988 8.80369 44.624 8.19607 44.1175 7.43669C43.8304 6.99783 43.4086 6.62634 42.9867 6.28884C42.3115 5.7488 41.6025 5.25915 40.8937 4.78689C40.3535 4.41521 39.8134 4.06091 39.2394 3.74021C38.7837 3.48689 38.2941 3.28435 37.8214 3.06501C37.2816 2.81169 36.7584 2.50798 36.1507 2.38981C35.9988 2.35603 35.8636 2.30544 35.7119 2.25505C35.3236 2.1197 34.9521 1.96794 34.564 1.84978C33.9734 1.66423 33.3996 1.4445 32.7917 1.29274C32.2011 1.14079 31.5935 1.03942 30.9859 0.955048C30.3107 0.853876 29.6187 0.820282 28.9435 0.752509C28.5046 0.701923 28.0658 0.651337 27.6437 0.634345C27.0025 0.600751 26.3441 0.600751 25.7027 0.583759C25.382 0.566962 25.0445 0.533173 24.7238 0.549969C24.2343 0.566962 23.7449 0.617548 23.255 0.685126C22.7828 0.735907 22.3101 0.820087 21.8542 0.887665C21.2974 0.955048 20.7404 0.988837 20.1833 1.05642C19.6599 1.12399 19.1201 1.22517 18.5968 1.30954C18.4111 1.34333 18.2253 1.4111 18.0398 1.4445C17.6347 1.52907 17.2126 1.56286 16.8074 1.69782C16.0818 1.91716 15.356 2.17048 14.647 2.4404C13.9888 2.71052 13.3474 2.99743 12.723 3.33513C12.0816 3.68943 11.474 4.1115 10.8661 4.51677C10.2923 4.90466 9.71848 5.30993 9.16145 5.7488C8.62141 6.17068 8.11497 6.64333 7.62551 7.11599C7.35539 7.38591 7.13606 7.70662 6.88274 8.01052C6.46086 8.49998 6.03879 8.97263 5.63371 9.47888C5.29621 9.90095 4.99211 10.3398 4.6718 10.7787C4.09758 11.5551 3.60832 12.3822 3.15266 13.2092C2.96691 13.5467 2.79816 13.8844 2.62922 14.2219C2.37609 14.7283 2.10617 15.218 1.86984 15.741C1.70109 16.0955 1.56594 16.4836 1.46476 16.8719C1.22619 17.7023 0.995514 18.5351 0.772771 19.3699C0.570232 20.1125 0.51945 20.8892 0.502654 21.6486C0.485661 22.3236 0.55324 22.982 0.620818 23.6572C0.637615 23.826 0.536443 24.0285 0.738982 24.1635C0.755779 24.1635 0.738982 24.231 0.72199 24.2478C0.671208 24.3494 0.72199 24.4504 0.823357 24.4842C0.823357 24.4842 0.840154 24.5012 0.840154 24.518H0.755779C0.704997 24.6699 0.873943 24.7881 0.806365 24.9568C0.789568 24.9906 0.857146 25.058 0.89074 25.1088C0.89074 25.1596 0.873943 25.2269 0.89074 25.2775C0.907732 25.4295 0.97531 25.5812 0.97531 25.7502C0.97531 25.8684 1.07648 26.0033 1.11008 26.1215C1.12707 26.1723 1.11008 26.2564 1.07648 26.2902C0.97531 26.4084 0.992107 26.5098 1.14406 26.5773C1.17785 26.5941 1.22844 26.6615 1.22844 26.6953C1.22844 26.7969 1.19465 26.8978 1.17765 26.9992C1.21144 27.033 1.22844 27.0666 1.21144 27.1004C1.21144 27.1512 1.16066 27.2019 1.17785 27.2355C1.31262 27.5055 1.3634 27.8094 1.38039 28.1131C1.38039 28.1807 1.41418 28.2482 1.44777 28.3326C1.46476 28.3326 1.51535 28.3326 1.54914 28.3494L1.44758 28.6533C1.53215 28.6025 1.59972 28.5857 1.6839 28.552C1.73469 28.7715 1.78547 28.974 1.85285 29.1596C1.86984 29.1934 1.90363 29.2271 1.95422 29.2611C1.93723 29.2947 1.93723 29.3621 1.90344 29.3791C1.97101 29.6828 2.0048 29.9699 2.12297 30.2568C2.13996 30.2568 2.15676 30.2398 2.17355 30.2398C2.12277 29.9361 2.08918 29.6154 2.03859 29.3115V29.2104C2.03859 29.2104 2.07238 29.1934 2.08918 29.1934C2.10617 29.2609 2.13996 29.3453 2.13996 29.3959C2.27473 29.3959 2.47746 29.4803 2.61242 29.4803C2.62941 29.4297 2.64621 29.3621 2.6632 29.3285C2.56164 29.2271 2.47746 29.0752 2.37609 28.974C2.40988 29.109 2.37609 29.1596 2.37609 29.2104C2.29869 29.1735 2.21985 29.1396 2.13976 29.109C2.20734 29.0246 2.27492 28.9402 2.37609 28.8389C2.37609 28.6871 2.29172 28.5519 2.05539 28.5689C2.15676 28.5352 2.25812 28.4846 2.37609 28.4508C2.39309 28.5016 2.40988 28.5519 2.42687 28.5857C2.56164 28.3494 2.3593 28.1639 2.3593 27.9275C2.37609 27.6406 2.20734 27.3537 2.15676 27.0498C2.07238 26.5771 2.08918 25.8684 2.03859 25.3957C2.03859 25.3619 1.98781 25.3281 1.95422 25.2943C1.93723 25.3113 1.85265 25.5307 1.83605 25.5477C1.88664 25.9527 1.93723 26.3578 1.97082 26.7629C1.95422 26.7629 1.93723 26.7629 1.93723 26.7797C1.86984 26.4252 1.80226 26.0539 1.71789 25.6488C1.70109 25.767 1.6841 25.8176 1.6841 25.8852C1.63332 25.8684 1.61672 25.8514 1.53215 25.8176C1.59972 25.9695 1.6673 26.0709 1.71769 26.1891C1.59972 26.1383 1.46476 26.1553 1.46476 26.1553V26.6279C1.29601 26.459 1.24523 26.324 1.16086 26.206C1.12707 26.0709 1.11008 25.9357 1.07648 25.8008L1.12707 25.7838C1.11027 25.7164 1.07629 25.6656 1.07629 25.615C1.05741 25.4803 1.04061 25.3452 1.0259 25.21C1.04269 25.1932 1.11027 25.1762 1.14406 25.1426L1.0089 24.94C1.14406 24.9568 1.22844 24.9736 1.31281 24.9736C1.31281 24.94 1.32961 24.923 1.31281 24.9062C1.14406 24.7543 1.26203 24.6191 1.32961 24.4844C1.3634 24.4166 1.48156 24.3998 1.51515 24.3322C1.65031 24.0791 1.86984 23.8766 1.86984 23.5559C1.86984 23.4039 1.92043 23.2351 1.93723 23.0832C1.97101 22.7963 2.0048 22.5094 2.0218 22.2225C2.05539 21.8514 2.0218 21.4797 2.10617 21.1254C2.24094 20.5346 2.40988 19.9437 2.59562 19.3531C2.73039 18.9312 2.88254 18.526 3.05129 18.1041C3.30461 17.4459 3.54074 16.7877 3.86145 16.1629C4.31731 15.2515 4.84055 14.3738 5.3468 13.4793C5.6675 12.9222 6.005 12.3992 6.35949 11.8588C6.69719 11.3355 7.03469 10.7955 7.42297 10.306C7.96301 9.61404 8.55383 8.97263 9.21204 8.39861C9.88723 7.79119 10.5284 7.16658 11.2544 6.60955C12.1997 5.88376 13.1954 5.24236 14.2589 4.68532C15.1197 4.22966 16.0142 3.87517 16.9089 3.53747C17.4827 3.31814 18.1072 3.21716 18.698 3.03122C19.3732 2.81169 20.0484 2.71052 20.7572 2.69353C21.213 2.67673 21.6517 2.62614 22.1076 2.57556C22.5126 2.54177 22.9177 2.50798 23.3566 2.45739C23.3237 2.49923 23.2954 2.54448 23.2722 2.59235C23.0865 2.86247 22.8839 3.13239 22.6984 3.40251C22.5464 3.62204 22.3777 3.85818 22.2257 4.07771C21.9556 4.4322 21.6687 4.78669 21.4156 5.15798C21.0273 5.71501 20.6728 6.28884 20.2677 6.84587C19.8626 7.38591 19.4238 7.89236 19.0019 8.4156C18.4449 9.14138 17.9216 9.88396 17.3646 10.6097C16.8581 11.3019 16.3181 11.9601 15.8286 12.6521C15.3898 13.2597 15.0015 13.9012 14.5796 14.5258C13.955 15.4541 13.3306 16.3656 12.706 17.2937C12.2166 18.001 11.7214 18.7044 11.2206 19.4037C11.1868 19.4545 11.1363 19.4713 11.0857 19.5049C11.0519 19.5387 10.9841 19.5724 10.9841 19.6064C10.9507 19.7244 10.9507 19.8428 10.8999 19.9437C10.765 20.1971 10.63 20.4502 10.4781 20.6865C10.3937 20.8215 10.2755 20.9396 10.1741 21.0746C10.1404 21.0578 10.1234 21.041 10.0898 21.041C10.1573 20.8721 10.4443 20.7709 10.3093 20.5178C10.2249 20.6527 10.1404 20.7709 10.056 20.9058L9.85344 21.3109C9.92102 21.3617 10.039 21.3953 9.92102 21.4967C9.87024 21.581 9.81946 21.6822 9.76907 21.7668C9.78606 21.7668 9.78606 21.7836 9.80286 21.7836C9.85344 21.716 9.90423 21.6654 9.95481 21.598C9.97161 21.598 9.9886 21.6148 10.0054 21.6148C9.95462 21.7836 9.85344 21.9355 9.76907 22.0875C9.70149 22.2225 9.53274 22.3238 9.41458 22.425C9.43157 22.4418 9.54973 22.4926 9.56653 22.5094C9.61712 22.4418 9.63411 22.4756 9.68469 22.4082C9.71848 22.459 9.76907 22.3744 9.78606 22.425C9.83665 22.3574 9.88723 22.3068 9.90423 22.2562C9.97161 22.0875 10.073 21.9523 10.2417 21.8851C10.3093 21.8512 10.3599 21.8004 10.4105 21.7498C10.9169 21.2266 11.4402 20.7205 11.8958 20.1633C12.6048 19.3023 13.2462 18.4078 13.9212 17.5301C14.2083 17.159 14.5458 16.7875 14.8495 16.433C14.8833 16.45 14.9171 16.45 14.9341 16.4668C14.9003 16.8213 14.8665 17.1926 14.8495 17.5471C14.7988 18.1715 14.7652 18.7961 14.7146 19.4377C14.6978 19.6906 14.7146 19.9437 14.6978 20.1971C14.6978 20.2644 14.647 20.315 14.647 20.3826C14.647 20.5514 14.6978 20.7371 14.6978 20.906C14.647 21.5305 14.5796 22.1381 14.5288 22.7625C14.512 22.8976 14.5796 23.0326 14.6134 23.1508C14.5964 23.134 14.5796 23.117 14.5288 23.0832C14.5288 24.0623 14.7144 25.0246 14.5626 25.9865C14.6302 25.9695 14.664 25.9527 14.664 25.9189C14.6808 25.8008 14.7146 25.6826 14.7146 25.5644C14.7316 25.4633 14.7146 25.3619 14.7146 25.2437V25.075C14.7316 24.7711 14.799 24.4504 14.7652 24.1467C14.7316 23.809 14.7316 23.4885 14.799 23.1676C14.8327 23.0328 14.7822 22.8639 14.8665 22.6951V22.9482C14.8495 23.9103 14.8833 24.8725 14.7484 25.8346C14.7316 25.9189 14.799 26.0709 14.6134 26.0539C14.5964 26.0539 14.5796 26.1383 14.5458 26.1891C14.4615 26.3578 14.647 26.5771 14.4783 26.7459C14.4445 26.7797 14.512 26.9316 14.5288 27.033C14.5288 27.0666 14.5458 27.1004 14.5288 27.1174C14.4615 27.2355 14.4615 27.2355 14.5626 27.2523C14.5796 27.6236 14.6134 27.9613 14.6302 28.3156H14.6808C14.9003 27.6742 14.7652 27.016 14.8833 26.3578C14.9003 26.6277 14.9171 26.8978 14.9003 27.1848C14.9003 27.6236 14.8833 28.0457 14.8665 28.4846C14.8665 28.5689 14.8495 28.6533 14.8327 28.7377C14.782 28.974 14.7652 29.2103 14.6808 29.4297C14.6134 29.5984 14.647 29.8518 14.647 30.0543V30.6955C14.647 30.7125 14.6978 30.7631 14.6978 30.8307C14.7146 30.9826 14.6302 31.1346 14.6808 31.3033C14.6978 31.3371 14.664 31.3877 14.647 31.4215C14.6302 31.4723 14.6134 31.5227 14.6302 31.5732L14.6808 31.8266C14.6808 31.8434 14.6978 31.8604 14.7146 31.8939C14.7316 31.8266 14.7316 31.7758 14.7316 31.7592C15.0185 31.7928 14.8663 32.0459 15.0015 32.1811C14.9341 32.2146 14.8833 32.2318 14.8833 32.2484C14.9003 32.316 14.9341 32.3666 14.9341 32.4342C14.9341 32.5859 14.9171 32.7213 14.9003 32.873C14.9003 33.2611 14.8833 33.6494 14.8833 34.0207C14.8833 34.0715 14.9003 34.1223 14.9003 34.1727C14.9003 34.2064 14.8833 34.2402 14.8833 34.2908V34.6453H14.9509C14.9171 34.6961 14.8833 34.7465 14.8327 34.7971C14.8159 34.7971 14.7652 34.7971 14.7652 34.7803V32.6535H14.512C14.4783 33.6662 14.5626 34.5777 14.3771 35.5229C14.1745 35.5398 14.107 35.5736 13.8876 35.5736C13.3642 35.5736 12.8411 35.5736 12.3179 35.5904C11.6933 35.5904 11.0855 35.6074 10.4611 35.6074C10.1574 35.6074 9.83665 35.641 9.53274 35.641C9.12766 35.641 8.70579 35.5904 8.30071 35.5904C7.6761 35.5904 7.06828 35.6412 6.44407 35.658C5.98821 35.6748 5.53254 35.6748 5.07688 35.6918C4.77297 35.7086 4.46906 35.7256 4.16535 35.7592C4.03039 35.7762 3.91223 35.8268 3.74328 35.8773C3.6925 35.8773 3.57453 35.8605 3.47336 35.8773C3.30461 35.9111 3.15266 36.0125 2.98391 36.0461C2.73059 36.0969 2.6632 36.1643 2.6968 36.4176V36.5863C2.66167 36.5527 2.62188 36.5243 2.57863 36.502C2.56184 36.502 2.54504 36.5188 2.54504 36.5188C2.56184 36.5695 2.59562 36.6031 2.61242 36.6539C2.68 36.6201 2.76437 36.5357 2.83195 36.5357H3.06828C3.03449 36.5357 3.0175 36.6369 2.96672 36.7213C3.06857 36.6832 3.16995 36.6438 3.27082 36.6031C3.28762 36.6539 3.28762 36.7213 3.28762 36.7383C3.52395 36.7213 3.74328 36.6539 3.94582 36.7045C4.60402 36.8732 5.27942 36.9408 5.95442 37.0082C6.39328 37.042 6.81536 37.059 7.25422 37.0758C7.87864 37.1096 8.50325 37.1434 9.12766 37.1434C9.6509 37.1434 10.1574 37.0928 10.6804 37.0928C11.4064 37.0928 12.1322 37.1264 12.8579 37.1436C13.0099 37.1436 13.1786 37.1264 13.3474 37.1264H14.5796C15.6767 37.0928 16.7738 37.0758 17.871 37.042C18.4954 37.0252 19.1367 36.9914 19.7615 36.9746L21.6853 36.9238C22.4283 36.907 23.1708 36.907 23.8966 36.89C24.4537 36.89 24.9939 36.8732 25.5507 36.8564C26.1753 36.8395 26.8167 36.7889 27.4412 36.7551C27.7789 36.7383 28.1164 36.7045 28.454 36.6707C28.8591 36.6369 29.281 36.5863 29.6861 36.5693C30.2935 36.5357 30.9183 36.5188 31.5259 36.485C32.2855 36.4344 33.0451 36.3668 33.8214 36.3502C34.5304 36.3162 35.2562 36.3332 35.965 36.3162C36.5896 36.2994 37.214 36.2656 37.8554 36.2488L38.9189 36.1981C38.9189 36.1981 39.6277 36.1813 39.9822 36.1475C40.5896 36.1137 41.1974 36.0461 41.805 36.0293C42.1933 36.0125 42.5816 36.0293 42.9697 36.0125C43.5943 35.9955 44.2357 35.9617 44.8601 35.9617C45.0964 35.9617 45.3498 35.9955 45.6535 36.0125C45.5185 36.1307 45.4341 36.1981 45.3328 36.2824C45.4004 36.2994 45.4675 36.3332 45.5353 36.3668C45.5353 36.3838 45.5185 36.4006 45.5185 36.4344C45.4341 36.4344 45.3498 36.4514 45.2652 36.4514C45.2316 36.5357 45.1978 36.5693 45.164 36.7385H45.4677C45.3498 36.7385 45.2484 36.89 45.1302 36.9914C45.1472 37.0082 45.164 37.0082 45.1808 37.0252C44.9953 36.9576 44.8771 36.9914 44.8095 37.1772C44.8601 37.194 44.8939 37.194 44.9443 37.194C44.9277 37.2447 44.9109 37.2955 44.8939 37.3627C44.8771 37.3965 44.8601 37.4303 44.8601 37.4809L44.8093 37.4303C44.8093 37.3965 44.8093 37.3627 44.7927 37.3289C44.6912 37.4305 44.5394 37.4979 44.6238 37.7172C44.5564 37.751 44.472 37.7848 44.3875 37.8354C44.4044 37.8691 44.4382 37.9029 44.455 37.9535C44.3033 37.9703 44.1513 38.0043 44.1851 38.1898C44.2525 38.2066 44.3199 38.2406 44.3707 38.2572C44.2863 38.291 44.2019 38.3416 44.1175 38.3754C44.1005 38.4092 44.0837 38.4936 44.05 38.5106C43.8136 38.5613 43.9488 38.6455 44.0162 38.7299C43.9654 38.7637 43.915 38.7975 43.8644 38.8143C43.915 38.8313 43.9488 38.8481 43.9826 38.8818C43.9318 38.9156 43.898 38.9326 43.8644 38.9494C43.898 38.9662 43.9488 39.0002 43.9656 39.0002C43.898 39.0506 43.8136 39.1182 43.7125 39.2025C43.7125 39.2363 43.7125 39.2533 43.7293 39.2869C43.6619 39.3545 43.5943 39.4219 43.5267 39.5232C43.4593 39.6244 43.4255 39.7596 43.3412 39.8608C42.9867 40.249 42.7334 40.7047 42.2777 41.0086C42.1089 41.1268 41.957 41.2785 41.805 41.4305C41.5013 41.7176 41.2312 42.0381 40.9105 42.3082C40.4886 42.6627 40.0498 42.9834 39.5939 43.3043C39.0371 43.6922 38.48 44.0805 37.923 44.4518C37.6191 44.6543 37.2816 44.8063 36.9609 44.992C36.6402 45.1776 36.3365 45.3465 36.0156 45.532C35.813 45.6672 35.6275 45.8527 35.408 45.9541C34.8509 46.1904 34.2603 46.393 33.6865 46.6123C33.6357 46.6291 33.6021 46.6461 33.5513 46.6631C33.1294 46.8486 32.7244 47.0512 32.3023 47.2031C31.914 47.3381 31.5091 47.4395 31.1039 47.5238C30.9689 47.5576 30.8167 47.5238 30.6652 47.5406C30.3781 47.5914 30.091 47.6588 29.8042 47.6926C29.0617 47.7942 28.3189 47.8613 27.5763 47.9627C27.1374 48.0135 26.7154 48.0977 26.2765 48.1483C25.9728 48.1652 25.6521 48.1315 25.3482 48.1315C25.1288 48.1315 24.8925 48.1822 24.673 48.1483C24.3187 48.0977 23.964 48.0135 23.6097 47.9457C23.5253 47.9289 23.4072 47.8951 23.3396 47.9289C23.2046 47.9963 23.0865 47.8951 22.9515 47.9289C22.8671 47.9457 22.7828 47.8783 22.6982 47.8783C22.6308 47.8613 22.5464 47.8951 22.4619 47.8783C22.2763 47.8276 22.1076 47.7602 21.905 47.777C21.7025 47.794 21.4999 47.6926 21.2804 47.6422C20.9767 47.5744 20.6898 47.5069 20.3859 47.4395C20.2677 47.4057 20.1665 47.3551 20.0484 47.2875C20.0146 47.3043 19.9638 47.3383 19.8964 47.3383C19.6093 47.2875 19.3226 47.2707 19.0525 47.1693C18.8161 47.085 18.5968 46.9668 18.3435 47.0006C18.2761 47.0174 18.2253 46.9836 18.1579 46.9836C18.1072 46.9162 18.0564 46.7811 18.006 46.7811C17.6681 46.7981 17.4658 46.5111 17.1788 46.4268C17.0269 46.376 16.9089 46.2072 16.757 46.1567C16.3857 46.0047 16.0818 45.684 15.6599 45.6334C15.5247 45.6164 15.3898 45.549 15.2378 45.4983C15.2884 45.5658 15.3222 45.6164 15.3726 45.6672L15.339 45.7008C14.8833 45.4309 14.4277 45.1608 13.9718 44.9078C13.9044 44.8906 13.8538 44.8233 13.8031 44.7895L13.3474 44.4856C13.2966 44.4518 13.1954 44.4012 13.1954 44.418C13.0943 44.5363 12.9929 44.435 12.9255 44.4012C12.4697 44.0805 11.9464 43.8779 11.5075 43.5234C11.322 43.3717 11.1025 43.2703 10.9675 43.0846C10.7312 42.7977 10.4441 42.5951 10.1236 42.4264C9.87044 42.2916 9.63411 42.1395 9.39778 41.9875C9.27961 41.9031 9.16145 41.802 9.16145 41.6164C9.16145 41.4981 9.11067 41.3801 8.95891 41.4475C8.89133 41.3461 8.82395 41.2279 8.73958 41.1941C8.53704 41.1098 8.40168 40.958 8.24993 40.8231C8.09817 40.6879 7.98 40.5022 7.79426 40.4348C7.45676 40.2996 7.25422 40.0129 7.05168 39.7766C6.57903 39.2193 6.15696 38.6117 5.71809 38.0209C5.68449 37.9703 5.61692 37.9365 5.56633 37.8861L5.54934 37.9029C5.63371 38.0717 5.71809 38.2236 5.80266 38.3924C5.78567 38.4092 5.75188 38.4262 5.73508 38.4432C5.63352 38.3248 5.51555 38.2068 5.41438 38.0885C5.39738 38.1055 5.38059 38.1223 5.3636 38.1223L6.57903 40.0465C6.6802 40.1984 6.76457 40.3502 6.86594 40.5022C6.84677 40.5231 6.82385 40.5404 6.79836 40.5529C6.61282 40.5191 6.44407 40.384 6.35949 40.232C6.20774 39.9621 6.03879 39.7934 5.70129 39.827C5.6675 39.7088 5.63371 39.5738 5.61692 39.4559C5.54934 39.4559 5.49875 39.4559 5.38059 39.4389C5.61692 39.8102 5.81946 40.1309 6.03879 40.5022C5.95442 40.4516 5.90383 40.4178 5.87004 40.401C6.17395 40.7217 6.39328 41.1268 6.78157 41.3293C6.86594 41.7174 7.30481 41.9031 7.40598 42.2746C7.32161 42.2576 7.25422 42.2406 7.16965 42.2238C7.03469 42.0551 6.88254 41.8863 6.73098 41.7006C6.76457 41.8188 6.81536 41.9199 6.88274 42.0045C7.08528 42.2576 7.27102 42.5107 7.50735 42.7303C7.59172 42.8147 7.70989 42.8484 7.70989 43.0002C7.74368 42.9664 7.77747 42.9496 7.84465 42.9158C7.81106 42.9834 7.79426 43.0174 7.77747 43.0678C7.84485 43.0678 7.89563 43.0846 7.94622 43.0846C7.98 43.1861 7.92922 43.3379 8.13176 43.3041C8.14875 43.3041 8.16555 43.3209 8.18254 43.3379C8.26692 43.5572 8.40188 43.5572 8.58762 43.4729C8.62141 43.4561 8.70579 43.4729 8.72239 43.5066C8.80696 43.6922 8.92512 43.7092 9.07708 43.5742C9.07708 43.6586 9.09387 43.743 9.09387 43.8106H9.16145C9.16145 43.7768 9.14465 43.726 9.14465 43.6416C9.22903 43.7092 9.27942 43.7432 9.3134 43.7768C9.48215 44.0131 9.63411 44.2324 9.87044 44.418C10.1911 44.6881 10.4779 44.975 10.7818 45.2285C11.3726 45.7178 12.0308 46.1231 12.6892 46.4942C13.4993 46.9498 14.2757 47.4395 15.1029 47.8781C16.0986 48.4016 17.162 48.7559 18.2591 49.0092C18.6642 49.0936 19.0525 49.1779 19.4576 49.2791C19.812 49.3807 20.1665 49.5324 20.5208 49.617C21.0611 49.735 21.6181 49.8361 22.1581 49.9375C22.2763 49.9543 22.3945 49.9713 22.5292 49.9883V50.0219C22.6814 50.0219 22.8671 49.9543 22.9009 50.0049C22.9853 50.1401 23.0527 50.0725 23.154 50.0557C23.2722 50.0219 23.4072 50.0219 23.5421 50.0219C24.0148 50.0387 24.4704 50.1401 24.9431 50.1063C25.0445 50.1063 25.1964 50.0219 25.2808 50.1906C25.3146 50.1736 25.3314 50.1569 25.3652 50.1401C25.4326 50.1231 25.5171 50.1231 25.5845 50.1063V50.1401C25.5507 50.1569 25.5171 50.1569 25.4496 50.1738C25.5339 50.1906 25.5843 50.2074 25.6351 50.2246C25.6015 50.2582 25.5843 50.2582 25.5507 50.275C25.5171 50.2918 25.4663 50.3088 25.399 50.3594C26.0064 50.4776 26.5804 50.4945 27.0869 50.3594V50.2582H27.1542C27.1542 50.2918 27.1712 50.3256 27.188 50.3594C27.9644 50.427 28.724 50.3256 29.4498 50.0725C29.5173 50.1569 29.5679 50.275 29.6693 50.1063C29.7031 50.0557 29.7874 50.0387 29.8548 50.0219C30.0068 49.9881 30.1925 49.9205 30.3275 49.9713C30.4794 50.0221 30.53 49.8867 30.6482 49.8867C30.8406 49.8874 31.0327 49.8705 31.222 49.8361C31.3234 49.8194 31.4246 49.7686 31.5427 49.735C31.5427 49.718 31.5427 49.7012 31.5259 49.6842C31.4078 49.6674 31.2728 49.6506 31.1714 49.6506C31.374 49.5492 31.5597 49.4651 31.7453 49.3805C31.7453 49.3973 31.7623 49.3973 31.7623 49.4143C31.7115 49.4311 31.6779 49.4986 31.6103 49.4986H31.8466C31.7958 49.4986 31.7285 49.6506 31.6441 49.7518C32.2515 49.5998 32.8087 49.4649 33.3488 49.3299V49.2961C33.2814 49.3129 33.2306 49.3129 33.18 49.3299C33.1632 48.9754 33.5511 49.0936 33.6865 48.891C33.5175 48.9418 33.3486 48.9922 33.18 49.026V48.9922C33.7539 48.7391 34.3447 48.486 34.9183 48.2326C34.9183 48.2496 34.9355 48.2496 34.9355 48.2664C34.8339 48.334 34.733 48.3846 34.581 48.469C34.6822 48.486 34.7498 48.486 34.8003 48.5028C34.8003 48.5535 34.8003 48.5871 34.7835 48.6043C35.0705 48.5871 35.0029 48.334 35.0873 48.182C35.138 48.1988 35.2054 48.2328 35.2562 48.2158C35.408 48.182 35.5431 48.1315 35.6949 48.0811C35.8638 48.0303 36.0326 47.9795 36.2013 47.9119C36.4714 47.7938 36.7246 47.642 36.9947 47.5069C37.0453 47.4901 37.1294 47.5069 37.1972 47.5069C37.2478 47.5069 37.2816 47.4731 37.3154 47.4395C37.3828 47.3887 37.4501 47.2875 37.5009 47.3043C37.7373 47.3381 37.906 47.2537 37.9736 47.0344C37.9906 47.0344 37.9906 47.0174 38.0074 47.0174C38.0918 46.95 38.1761 46.8826 38.2605 46.8318C38.632 46.6291 38.9863 46.4268 39.3578 46.224C39.3746 46.2072 39.4084 46.224 39.4421 46.224C39.4927 46.224 39.5603 46.224 39.5939 46.2072C39.8134 46.1059 40.0158 45.9879 40.2185 45.8697C40.1677 45.8527 40.2185 45.8359 40.0498 45.819V45.7852C40.2185 45.7516 40.2691 45.7346 40.3705 45.7008L40.3367 45.6672C40.7755 45.2283 41.3326 44.9076 41.7545 44.5363C41.8388 44.5531 41.8726 44.5699 41.9232 44.5699C41.9402 44.5193 41.9402 44.4688 41.9402 44.4352C42.0076 44.3506 42.075 44.2492 42.1595 44.1818C42.5306 43.8442 42.9361 43.5572 43.2736 43.2027C43.763 42.7133 44.2357 42.207 44.6746 41.6838C45.0796 41.2111 45.4847 40.7385 45.8222 40.2152C46.2949 39.4895 46.7 38.7469 47.1218 37.9873C47.4257 37.4471 47.6959 36.9072 47.9996 36.3668C48.0334 36.3162 48.1009 36.2488 48.1515 36.2488C48.6072 36.198 49.063 36.1643 49.5019 36.1137C49.6031 36.0969 49.7213 36.0293 49.8226 35.9789C49.7718 35.8943 49.738 35.793 49.6875 35.7086C49.6201 35.6072 49.5187 35.523 49.4511 35.4217C49.3838 35.3373 49.3332 35.2361 49.2824 35.1348C49.2316 35.0504 49.1812 34.9828 49.1304 34.8984C49.0293 34.7129 48.9279 34.5273 48.8433 34.3246C48.8267 34.2738 48.7929 34.1895 48.8097 34.1391C49.1136 33.4809 49.2316 32.7719 49.5187 32.1137C49.8056 31.4383 49.8898 30.6787 50.0252 29.9529C50.1433 29.2609 50.2107 28.5689 50.2951 27.8768C50.3459 27.3873 50.4132 26.9146 50.4302 26.4252C50.5314 25.6488 50.4976 24.9232 50.4808 24.1973ZM8.04719 43.034C7.92942 42.8992 7.82805 42.7471 7.70989 42.6121L7.76047 42.5613C7.94602 42.7641 8.13196 42.9664 8.3175 43.1859C8.21633 43.1354 8.09817 43.1016 8.04739 43.034H8.04719ZM8.3175 43.1859C8.36809 43.1692 8.41887 43.1692 8.46946 43.1522C8.52004 43.2365 8.55383 43.3379 8.60422 43.4393C8.3679 43.4223 8.24993 43.3209 8.3175 43.1859ZM25.8714 50.1569V50.1063C26.1921 50.0725 26.496 50.0387 26.8167 50.0051V50.0559C26.5036 50.1062 26.1881 50.1399 25.8714 50.1569ZM30.1249 49.718C29.8886 49.7688 29.6355 49.8024 29.3992 49.8361C29.3148 49.8531 29.2136 49.9377 29.1798 49.7856C29.146 49.8024 29.1122 49.8024 29.0783 49.8194C29.1628 50.0725 29.3654 49.8701 29.5341 49.9713C29.1628 50.0221 28.8083 50.0557 28.454 50.1063V50.0725C28.5552 50.0557 28.6734 50.0387 28.7747 50.0219V49.9713C28.6058 49.9543 28.4369 49.9375 28.2683 49.9375C28.2175 49.9375 28.1501 50.0051 28.0996 50.0219C28.032 50.0387 27.9644 50.0557 27.88 50.0557C27.5929 50.0725 27.3062 50.0725 27.0361 50.0895C27.0193 50.0895 26.9853 50.0725 26.9687 50.0725V50.0219C28.0996 49.8699 29.2136 49.718 30.3445 49.5662C30.3613 49.5998 30.3613 49.6336 30.3781 49.6674C30.2769 49.6674 30.2093 49.7012 30.1249 49.7182V49.718ZM30.3781 49.5492C30.7664 49.4986 31.1208 49.4649 31.4921 49.4145C30.7158 49.6336 30.4626 49.6674 30.3781 49.5492ZM15.6767 15.4713C16.2169 14.7285 16.7738 13.9857 17.314 13.2262C17.4827 13.0068 17.6177 12.7705 17.7867 12.5512C17.8372 12.4836 17.9046 12.4498 17.9892 12.3822L17.9722 12.3486C18.0398 12.264 18.107 12.1967 18.141 12.1291C18.2253 11.9943 18.2761 11.8422 18.3435 11.6902C18.3605 11.6564 18.4111 11.6228 18.4111 11.6228C18.6474 11.7408 18.6474 11.4877 18.7318 11.4033C18.883 11.2331 19.0294 11.0586 19.1706 10.8801C19.2718 10.7453 19.3732 10.6269 19.4576 10.475C19.4744 10.4244 19.4238 10.3402 19.4068 10.2724H19.3564C19.407 10.2386 19.4576 10.1881 19.5081 10.1543C19.5251 10.1543 19.5251 10.1543 19.5419 10.1375C19.6433 9.98553 19.7445 9.83357 19.8458 9.69861C20.0484 9.42849 20.2677 9.15838 20.504 8.92205C20.4702 9.00642 20.4365 9.09099 20.4029 9.15838C20.4197 9.15838 20.4197 9.17537 20.4365 9.17537C20.639 8.90525 20.8583 8.65213 21.0611 8.38201C21.0441 8.36521 21.0273 8.34822 21.0103 8.34822C20.9261 8.43259 20.8585 8.51697 20.774 8.60134C20.7572 8.58455 20.7404 8.56775 20.7232 8.56775C20.8923 8.34822 21.0611 8.12888 21.2298 7.87556C21.2636 7.92634 21.2974 7.99373 21.3646 8.12888C21.4324 7.95994 21.4999 7.84177 21.5505 7.7238C21.4997 7.77459 21.4324 7.82498 21.3818 7.87556L21.331 7.82498L21.6349 7.36931C21.9556 6.91345 22.2763 6.44099 22.597 5.98513C22.7152 5.81638 22.8671 5.68142 22.9681 5.51267C23.289 4.87126 23.7954 4.36482 24.1835 3.774C24.2681 3.65603 24.3861 3.55466 24.4874 3.45329C24.5718 3.35212 24.6394 3.38591 24.707 3.47028C25.1626 4.04411 25.6183 4.63493 26.074 5.20876C26.4117 5.63083 26.7492 6.03591 27.0699 6.47458C27.4581 7.01482 27.8294 7.55486 28.2177 8.09509C28.6566 8.71951 29.0955 9.34412 29.5173 9.98572C30.1587 10.9306 30.7664 11.876 31.4078 12.8211C31.8804 13.5133 32.3531 14.1883 32.8087 14.8805H31.9478C31.1546 14.8635 30.3443 14.7959 29.5511 14.8297C28.4708 14.8805 27.3738 14.9984 26.2933 15.0828C24.9261 15.201 23.5421 15.218 22.1751 15.218C21.6855 15.218 21.196 15.2853 20.7064 15.3191C20.1158 15.3529 19.5419 15.3867 18.9511 15.4037C18.2591 15.4373 17.5839 15.4545 16.8919 15.4711C16.5038 15.4881 16.0986 15.4711 15.6767 15.4711V15.4713ZM35.0367 23.2353V23.3873C35.0199 23.3873 35.0029 23.4041 34.9691 23.4041C34.9017 23.1678 34.8341 22.9146 34.7498 22.6783C34.581 22.1889 34.3953 21.6994 34.0916 21.2605C33.7537 20.7879 33.4501 20.2984 33.1124 19.809C33.0281 19.6908 32.9099 19.5894 32.8087 19.4883C32.4542 19.1 32.0998 18.6949 31.6441 18.4082C30.973 17.9883 30.2671 17.6268 29.5341 17.3277C29.3316 17.2433 29.146 17.1422 28.9435 17.024H29.3486L32.2349 16.9734C32.8593 16.9564 33.4669 16.9564 34.0916 16.9226C34.2435 16.9226 34.3279 16.9734 34.4123 17.1084C34.5642 17.3615 34.716 17.6146 34.8847 17.8681C34.9017 17.9015 34.9355 17.9523 34.9355 18.0029C34.9355 18.3742 34.9355 18.7627 34.9523 19.1338C34.9693 19.5221 35.0029 19.8935 35.0199 20.2816C35.0199 20.6697 34.9861 21.0748 35.0029 21.4799C35.0199 22.0541 35.0367 22.6445 35.0367 23.2353ZM16.8749 17.5808C17.6683 17.5471 18.4277 17.4963 19.2042 17.4627C19.8117 17.4289 20.4363 17.4119 21.0439 17.3783C21.2972 17.3613 21.5335 17.3445 21.7867 17.3783C21.5165 17.5133 21.2466 17.6482 21.0103 17.8172C20.7064 18.0195 20.4195 18.2898 20.1156 18.5092C19.8119 18.7285 19.5417 18.9986 19.2886 19.2855C18.9679 19.6738 18.6134 20.0113 18.2759 20.3826C18.0396 20.6527 17.7695 20.906 17.5669 21.1928C17.2798 21.5642 17.0269 21.9693 16.7568 22.3912C16.8411 20.7877 16.9423 19.2012 16.8749 17.5808ZM27.8968 33.8182C27.3566 33.9531 26.7997 34.1053 26.2425 34.1727C25.7699 34.2402 25.2806 34.2234 24.7912 34.2234C24.3523 34.2234 23.9302 34.2064 23.4913 34.1727C23.0019 34.1221 22.5124 34.0713 22.0398 33.852C21.6347 33.6664 21.2128 33.4975 20.8078 33.2949C20.4027 33.0924 19.9972 32.8561 19.6937 32.4848C19.4742 32.2146 19.1702 31.9953 18.9003 31.759C18.9495 31.9624 19.0769 32.1383 19.2548 32.2484C19.1704 32.35 19.0523 32.2992 18.8835 32.0291C18.8327 32.0627 18.782 32.0799 18.7484 32.0965C18.7992 31.9783 18.8497 31.8604 18.9003 31.759C18.8329 31.6242 18.7484 31.4721 18.681 31.3371C18.5452 31.1157 18.4158 30.8906 18.2927 30.6619C18.2589 30.6111 18.2589 30.5605 18.2251 30.51C18.1408 30.4086 18.0564 30.3074 17.9888 30.2061C17.8538 30.0035 17.7357 29.7842 17.5669 29.5816C17.5669 29.6324 17.5837 29.6828 17.5837 29.7504C17.5669 29.7504 17.5501 29.7672 17.5501 29.7672L17.1956 28.9064C17.1786 28.9064 17.1786 28.9064 17.1618 28.9234L17.4658 30.0373C17.4488 30.0373 17.432 30.0543 17.415 30.0543C17.3642 29.9867 17.3138 29.9191 17.28 29.8348C17.2462 29.7 17.1451 29.7 17.0605 29.7504C17.0097 29.7842 16.9761 29.9023 16.9931 29.9529C17.1113 30.24 17.2462 30.5268 17.3812 30.8139C17.415 30.915 17.4488 30.9994 17.4993 31.101C17.5163 31.1346 17.5669 31.1682 17.5669 31.2189C17.6345 31.3539 17.6851 31.4889 17.7695 31.607C17.9214 31.8096 18.0902 32.0121 18.2421 32.2146C18.3941 32.4172 18.529 32.6367 18.664 32.8393C18.681 32.873 18.7316 32.873 18.7484 32.89C18.8329 33.143 19.1199 33.3287 19.3224 33.2275C19.373 33.6156 19.7949 33.751 19.9638 34.1221C19.7981 34.0546 19.6348 33.9813 19.4742 33.9025C19.4574 33.9195 19.4574 33.9363 19.4406 33.9701C19.6431 34.0713 19.8456 34.1727 20.0312 34.2908C20.1999 34.392 20.3689 34.4934 20.5206 34.6115C20.7234 34.7971 20.9595 34.8986 21.2466 34.966C21.2296 34.9152 21.2128 34.8984 21.2128 34.8984C21.6602 35.1062 22.1047 35.32 22.5462 35.5398C20.7908 35.5736 18.9173 35.6074 16.9759 35.641C16.9759 35.3203 16.9593 35.0166 16.9593 34.6959C16.9593 34.5611 16.9931 34.4428 16.9761 34.3076C16.9253 33.5312 16.9253 32.7549 16.8243 31.9953C16.7228 31.1852 16.7228 30.3918 16.74 29.5816C16.7568 29.1428 16.723 28.6871 16.7062 28.2482C16.7062 27.6574 16.7062 27.0836 16.723 26.4928C16.723 26.4084 16.7568 26.3408 16.7906 26.2564H16.8411C16.8579 26.2902 16.8411 26.3408 16.8749 26.358C16.9255 26.4084 17.0097 26.4928 17.0437 26.476C17.1451 26.4084 17.2968 26.3408 17.3306 26.2396C17.415 26.0371 17.4488 25.8178 17.4488 25.615C17.4488 25.4633 17.5163 25.3619 17.5835 25.2605C17.6175 25.21 17.6343 25.1594 17.6683 25.0918C17.6007 25.0412 17.5331 25.0074 17.4488 24.94C17.5163 24.7545 17.4993 24.5348 17.7527 24.4336C17.7865 24.4166 17.7865 24.3322 17.8033 24.2816C17.8201 24.1469 17.837 23.9947 17.8538 23.8598C17.8876 23.9105 17.9044 23.9271 17.9382 23.9609C17.9552 23.9271 17.972 23.9103 17.972 23.9103C17.972 23.8428 17.9552 23.7078 17.972 23.7078C18.1745 23.674 18.0902 23.4547 18.1915 23.3533C18.2083 23.3365 18.1745 23.2857 18.1745 23.2521C18.1745 23.2183 18.1745 23.1676 18.1915 23.1676C18.4277 23.117 18.3941 22.8639 18.5458 22.7457C18.5966 22.7119 18.6134 22.6613 18.681 22.5769C18.8158 22.8133 18.5794 22.9314 18.5628 23.1004C18.8497 22.9314 18.9339 22.5264 18.7654 22.4082C18.8329 22.3574 18.9001 22.29 18.9509 22.2226C19.1365 22.0199 19.3392 21.8342 19.5079 21.6316C19.6261 21.4797 19.6935 21.2941 19.8119 21.1422C19.8794 21.0578 20.0144 20.9902 20.1156 20.9396C20.4195 20.7709 20.7064 20.5851 20.8921 20.2982C20.9259 20.2644 20.9765 20.2307 21.0269 20.1971C21.0777 20.1633 21.179 20.1633 21.1958 20.1125C21.2128 20.0789 21.162 19.9945 21.1283 19.9437C21.1958 19.9099 21.2634 19.8426 21.3984 19.775C21.3476 19.8766 21.331 19.9437 21.2972 20.0113L21.3816 20.0957C21.5335 19.9775 21.7699 19.8426 21.9216 19.7412C21.9216 19.7244 21.8372 19.6568 21.8372 19.6568C21.7361 19.7076 21.5841 19.792 21.4322 19.8594C21.466 19.8088 21.466 19.775 21.4828 19.7582C21.7191 19.6062 21.9554 19.4543 22.2085 19.3363C22.7994 19.066 23.3902 18.7961 23.9808 18.5428C24.0822 18.4922 24.2171 18.526 24.3353 18.526C24.3859 18.526 24.4197 18.526 24.4704 18.5092C24.7404 18.4248 25.0105 18.3404 25.2806 18.2728C25.4015 18.2395 25.5263 18.2225 25.6517 18.2222C26.1583 18.239 26.6646 18.239 27.171 18.273C27.3904 18.2896 27.5929 18.3404 27.7955 18.4078C28.0488 18.4922 28.3187 18.6103 28.555 18.7285C28.8403 18.8811 29.1165 19.0502 29.3822 19.2349C29.8716 19.5557 30.3273 19.9099 30.8167 20.1971C31.2894 20.4842 31.6605 20.8721 31.9646 21.3109C32.3357 21.8344 32.758 22.307 32.9267 22.9482L33.1798 24.0623C33.2304 24.2648 33.3486 24.4674 33.298 24.7037C33.2136 25.1256 33.146 25.5644 33.0787 25.9865C33.0449 26.1553 33.0111 26.324 33.0279 26.4928C33.0617 27.0162 32.8591 27.4717 32.6566 27.9443C32.589 28.0963 32.4878 28.2482 32.4035 28.417C32.4203 28.4338 32.5216 28.4846 32.5382 28.4846L32.6904 28.1807C32.7072 28.1807 32.7072 28.1807 32.7242 28.1977C32.6398 28.434 32.5722 28.6871 32.4878 28.9234C32.2853 29.4469 32.0828 29.9867 31.8296 30.4932C31.6945 30.7803 31.4582 31.0166 31.2894 31.2863C31.1207 31.5227 30.9857 31.7758 30.8167 31.9953C30.665 32.1811 30.513 32.3666 30.3105 32.5018C29.8546 32.8393 29.3822 33.1768 28.8925 33.4471C28.5888 33.6326 28.2343 33.7338 27.8968 33.8182ZM18.9003 32.9236L18.8835 32.9404C18.8497 32.9236 18.7992 32.9066 18.7654 32.873L18.3603 32.2656C18.3265 32.2148 18.3095 32.1641 18.3265 32.0965C18.508 32.3788 18.6994 32.6547 18.9003 32.9236ZM29.399 35.2361C30.1585 34.9152 30.7832 34.4596 31.357 33.9363C31.4414 33.852 31.5257 33.7676 31.6271 33.7C32.3359 33.2611 32.8591 32.6535 33.3318 31.9783C33.8718 31.202 34.2263 30.3242 34.6652 29.4973C34.699 29.4297 34.7328 29.3621 34.7666 29.3117C34.7328 31.2357 34.9521 33.1262 35.2052 35.0334C33.298 35.101 31.357 35.1686 29.399 35.2359V35.2361ZM46.5142 34.7297C46.4972 34.7635 46.4634 34.7971 46.4466 34.8309C46.4296 34.7971 46.4296 34.7465 46.4129 34.6791C46.3113 34.949 46.0922 34.8141 45.9402 34.8141C45.0289 34.8309 44.1003 34.8309 43.189 34.8309C42.3113 34.8309 41.4168 34.8309 40.539 34.8479C40.2519 34.8479 39.9482 34.9152 39.6613 34.9322C38.9693 34.966 38.2773 34.983 37.5851 34.9996C37.5343 34.9996 37.4839 34.9152 37.3996 34.8479C37.3828 34.8816 37.3488 34.9322 37.298 34.9996C37.2814 34.966 37.2476 34.9322 37.2138 34.8816C37.1997 34.9276 37.1827 34.9727 37.163 35.0166H37.1126C37.0789 34.7803 37.0111 34.5609 37.0111 34.3246C37.0111 33.8182 37.0619 33.3119 37.0789 32.8055C37.0957 32.5691 37.0789 32.3498 37.0789 32.1303C37.1464 32.1811 37.197 32.2146 37.2644 32.2654C37.2982 32.1979 37.332 32.1473 37.3658 32.0965C37.3658 32.0965 37.332 32.0797 37.2982 32.0459C37.332 32.0291 37.3658 31.9953 37.3658 31.9785C37.3828 31.9277 37.4164 31.8771 37.4164 31.8434C37.4164 31.7252 37.3828 31.624 37.3656 31.5227C37.3828 31.5227 37.3996 31.5227 37.4164 31.5059L37.5177 32.0121H37.5683C37.5009 31.8939 37.7203 31.7928 37.5345 31.6576C37.5177 31.6408 37.5515 31.5395 37.5515 31.4889C37.5007 31.3877 37.4671 31.2863 37.4164 31.1514C37.4333 31.1346 37.4839 31.1176 37.5345 31.1008C37.4671 31.067 37.4164 31.0332 37.3658 31.0162C37.5345 30.8645 37.5345 30.7801 37.3828 30.6111C37.4164 30.5943 37.4501 30.5943 37.4501 30.5775C37.4501 30.4256 37.4501 30.2736 37.4164 30.1217C37.3828 29.9529 37.4671 29.7506 37.2138 29.6492C37.2295 29.6973 37.2523 29.7428 37.2814 29.7842C37.2814 29.7842 37.2306 29.801 37.1798 29.835C36.9607 29.6322 37.0957 29.3623 37.0451 29.0584C37.1632 29.0922 37.2476 29.126 37.332 29.1596C37.2982 29.0416 37.2138 28.9064 37.1632 28.7545H37.0957V27.6406C37.0957 27.6574 37.2138 27.6574 37.2812 27.6742C37.2812 27.6574 37.2982 27.6406 37.2982 27.6236C37.2474 27.556 37.18 27.4889 37.1126 27.4043L37.1464 27.3705C37.0113 27.2018 37.0789 26.9654 37.0789 26.9148V25.7332C37.2476 25.9019 36.9945 26.1215 37.2476 26.2227V26.0539H37.2308C37.2138 25.8008 37.2138 25.5476 37.197 25.2943H37.1632C37.1464 25.3281 37.1464 25.3451 37.1294 25.3787H37.0957C37.1294 24.0453 37.1632 22.7119 37.197 21.3447C37.3658 21.5642 37.5515 21.7668 37.6697 21.9861C38.0578 22.6951 38.5642 23.3027 39.0369 23.9441C39.4419 24.5012 39.8132 25.1088 40.1845 25.6826C40.6402 26.3746 41.0791 27.0666 41.5349 27.7588C41.8739 28.2829 42.2228 28.8006 42.5814 29.3115C42.9021 29.7672 43.2396 30.2061 43.5773 30.6449C43.8642 31.0332 44.1679 31.4215 44.4548 31.8096C44.7925 32.2822 45.13 32.7549 45.4677 33.2105C45.6365 33.4469 45.822 33.6832 46.0078 33.9195C46.1089 34.0545 46.2609 34.1559 46.3623 34.2402C46.3453 34.2402 46.3285 34.2402 46.2947 34.2232C46.3453 34.2908 46.3791 34.3414 46.4129 34.3752C46.5984 34.4764 46.6154 34.5777 46.5142 34.7297ZM47.375 30.51V30.3918C47.375 30.4256 47.3918 30.4762 47.375 30.51ZM47.9488 23.0666C47.932 23.0666 47.8306 22.965 47.8138 22.9482C47.7968 22.999 47.8138 23.0494 47.78 23.117C47.7632 23.0664 47.6451 23.0832 47.6451 23.0326C47.6281 23.2689 47.7463 23.5053 47.7295 23.7416C47.78 23.7078 47.9826 23.6908 48.0332 23.6402C48.0502 23.6572 48.0838 23.674 48.1007 23.674C47.7632 23.9271 47.8476 24.1805 47.9992 24.4674C48.0332 24.5348 48.1345 24.6699 48.0332 24.8049C47.9994 24.8387 48.0502 24.94 48.067 25.0244H48.1175V25.058L47.9658 25.1088C47.932 25.058 47.7295 24.9568 47.7295 24.8725V25.7332C47.8982 25.784 47.8982 26.0203 47.9658 26.1383C47.9994 26.0877 48.0164 26.0539 48.0332 26.0035L48.0502 26.0201C48.0332 26.1217 48.0164 26.2226 47.9826 26.324C47.9488 26.476 47.915 26.6111 47.8982 26.7629C47.8982 26.7797 47.932 26.8137 47.932 26.8303C47.7463 27.2523 47.8476 27.725 47.78 28.1639C47.7293 28.4846 47.78 28.8221 47.7463 29.1596C47.7125 29.4467 47.6451 29.7504 47.5775 30.0373C47.5607 30.0881 47.5267 30.1049 47.4425 30.1389C47.4761 29.9361 47.4593 29.801 47.4255 29.6154C47.4088 29.6154 47.1892 29.4973 47.1724 29.4973C47.1724 29.7336 47.3072 30.0543 47.358 30.3242C47.3072 30.3074 47.1048 30.1894 47.0881 30.1894C47.0543 30.3918 47.0543 30.6621 47.0373 30.8812C47.0205 31.05 46.8685 31.202 46.8517 31.3877C46.8517 31.4889 46.9699 31.5564 46.9529 31.7252H47.0881C47.0881 31.3877 47.24 31.0838 47.24 30.7293H47.2906C47.3074 30.7631 47.3582 30.7969 47.3412 30.8139C47.3074 30.9994 47.24 31.202 47.2568 31.3877C47.2568 31.4889 47.3412 31.5902 47.3074 31.7084C47.2736 31.8096 47.2566 31.9109 47.24 32.0627C47.223 31.9783 47.2062 31.9447 47.2062 31.8939C47.1892 31.8939 47.0375 31.8771 47.0205 31.8771C47.0037 31.9783 47.1386 32.0797 47.1218 32.1643C47.1048 32.1811 47.088 32.1811 47.0543 32.1979L46.4972 31.3877C46.0584 30.7463 45.6195 30.1049 45.1806 29.4467C45.0671 29.2855 44.9656 29.1162 44.8769 28.9402C44.3535 28.0457 43.7798 27.1848 43.1384 26.3578C42.6488 25.7332 42.2607 25.058 41.8048 24.3998C41.383 23.7754 40.9609 23.1676 40.539 22.5432C40.3871 22.3406 40.2015 22.1549 40.0664 21.9357C39.6275 21.2435 39.2394 20.5346 38.8005 19.8426C38.4293 19.2685 38.024 18.7117 37.6359 18.1547C37.497 17.9604 37.3619 17.7635 37.2308 17.5639C37.2138 17.5301 37.197 17.4963 37.197 17.4457C37.1632 17.0746 37.1294 16.7031 37.1126 16.3486C37.1126 16.0109 37.1464 15.6734 37.1464 15.3189V15.0152C37.1464 14.9308 37.1632 14.8633 37.1632 14.7789C37.18 14.7619 37.197 14.7283 37.2138 14.7113C36.7244 14.7113 36.2181 14.6945 35.7285 14.7113C35.408 14.7283 35.239 14.5931 35.0195 14.357C34.3783 13.631 33.9056 12.8043 33.3486 12.0277C32.8251 11.2849 32.2853 10.5592 31.7451 9.83338C31.3064 9.24256 30.8675 8.66873 30.4287 8.07791C29.9392 7.40291 29.4665 6.72771 28.9599 6.05251C28.3525 5.24236 27.7281 4.4322 27.1035 3.62204C26.8164 3.25056 26.4958 2.89626 26.1751 2.50798C26.3945 2.54177 26.597 2.57556 26.7997 2.59235L27.6099 2.64314C28.2173 2.69392 28.8251 2.72732 29.4328 2.81169C29.9392 2.87927 30.4455 2.98064 30.9687 3.06501C32.0828 3.25056 33.1796 3.55446 34.2433 3.90896C34.8677 4.1115 35.4753 4.38161 36.083 4.63474C37.4501 5.19177 38.75 5.86677 40.0326 6.57576C40.4378 6.79509 40.674 7.14959 40.9779 7.47029C41.4168 7.92615 41.8556 8.38181 42.2775 8.85447C42.767 9.4115 43.2228 9.98533 43.6953 10.5592C44.1171 11.0656 44.5562 11.5719 44.9781 12.0783C45.1132 12.2303 45.2144 12.4158 45.3326 12.5846C45.6027 12.9896 45.9064 13.3779 46.1427 13.817C46.3117 14.1375 46.4129 14.5088 46.531 14.8633C46.6998 15.3867 46.8685 15.893 47.0375 16.4162C47.1565 16.8109 47.2578 17.2107 47.3412 17.6144C47.4088 17.8846 47.3918 18.1715 47.4759 18.4416C47.5775 18.7961 47.4759 19.1842 47.5775 19.5387C47.5943 19.5724 47.6113 19.623 47.6281 19.6568C47.6957 19.7244 47.7463 19.7918 47.6451 19.8932C47.6281 19.9099 47.6281 19.9775 47.6451 20.0281C47.6787 19.9945 47.6957 19.9607 47.7295 19.9099C47.7295 19.9437 47.7463 19.9607 47.7463 19.9775C47.7463 20.0451 47.7295 20.1125 47.7463 20.1801C47.7463 20.2139 47.78 20.2644 47.7968 20.2982C47.8306 20.2644 47.8644 20.2476 47.932 20.1971C48.0838 20.7709 48.1007 21.3447 48.1007 21.9355C48.1007 22.4926 48.2019 23.0494 47.9658 23.5898C48.0164 23.4039 47.8982 23.2351 47.9488 23.0664V23.0666Z" fill="#DD3735"/>
<path d="M37.2193 29.6838C37.2361 29.6838 37.2531 29.7008 37.2531 29.7008L37.2361 29.6838C37.2361 29.667 37.2361 29.667 37.2193 29.6838ZM39.8861 46.3602C39.7006 46.4952 39.5149 46.6134 39.2785 46.6639C39.2617 46.6471 39.2617 46.6301 39.2447 46.6134C39.4305 46.4952 39.633 46.377 39.8188 46.2589C39.8356 46.2927 39.8693 46.3264 39.8861 46.3602ZM8.23846 23.4893C8.42401 23.253 8.60975 23.0167 8.81229 22.7805C8.82909 22.7973 8.96424 22.8311 8.98104 22.8479C8.7955 23.0842 8.54217 23.4049 8.35663 23.6581C8.32284 23.6245 8.27225 23.5063 8.23846 23.4893ZM3.4449 31.76C3.30975 31.4731 3.17479 31.1692 3.03983 30.8823C3.05662 30.8655 3.17479 30.8147 3.19158 30.8147C3.37733 31.0848 3.4617 31.4055 3.59666 31.6924C3.59666 31.6924 3.4617 31.76 3.4449 31.76ZM7.74901 23.6581C7.64764 23.81 7.54647 23.9788 7.4451 24.1307C7.42831 24.1139 7.24256 24.1983 7.22577 24.1813C7.32694 24.0295 7.58006 23.7594 7.68143 23.6075C7.69823 23.6245 7.71522 23.6413 7.74901 23.6581ZM38.0801 47.0522C38.0971 47.0522 38.0971 47.0352 38.1139 47.0352C38.232 47.0522 38.3672 47.069 38.5022 47.069C38.2826 47.221 38.1477 47.2042 38.0801 47.0522ZM7.7826 24.367C7.7996 24.3165 7.83338 24.2657 7.86698 24.2151C7.90077 24.2151 7.95155 24.1983 7.95155 24.1983C8.01893 24.0801 8.01893 23.9958 8.08651 23.8944C8.06971 23.8776 8.05272 23.8776 8.03592 23.8606C7.93456 23.9282 7.83338 24.0125 7.73202 24.0801C7.76581 24.1139 7.76581 24.1307 7.76581 24.1645C7.63085 24.1477 7.58006 24.2151 7.51268 24.4008C7.49569 24.4514 7.41131 24.4682 7.32694 24.5358C7.31014 24.5696 7.29315 24.654 7.25936 24.7383L7.27635 24.7553C7.25186 24.7776 7.22318 24.7948 7.19198 24.8059C7.09061 24.9071 6.97245 24.9917 6.87127 25.0928C6.85428 25.1434 6.83748 25.1942 6.83748 25.2448C6.95565 25.1266 7.15819 24.9071 7.31014 24.7721L7.32694 24.7889C7.39452 24.6877 7.4451 24.5864 7.51268 24.4852C7.52948 24.502 7.52948 24.519 7.54647 24.5358C7.49569 24.6708 7.4451 24.8227 7.39452 24.9579C7.36073 24.9747 7.31014 25.0084 7.31014 24.9917C7.24256 25.0422 7.19198 25.1096 7.1244 25.1604L6.82069 25.3629C6.65174 25.5149 6.48299 25.6499 6.29745 25.8018C6.17928 25.9874 6.06112 26.1561 5.92596 26.3756C6.1285 26.3251 6.17928 26.4094 6.16229 26.5782C6.39862 26.612 6.41541 26.4262 6.48299 26.2913C6.49998 26.2575 6.51678 26.1899 6.55057 26.1731C6.70252 26.0381 6.87127 25.92 7.04002 25.7848C7.07381 25.751 7.07381 25.6836 7.07381 25.6329C7.07381 25.6161 6.98944 25.6161 6.93885 25.5993C7.09061 25.4303 7.31014 25.1434 7.4621 24.9579C7.54647 24.9071 7.63085 24.8397 7.63085 24.7889C7.61385 24.6034 7.73202 24.5528 7.86698 24.4852C7.79959 24.4346 7.7826 24.3838 7.7826 24.367Z" fill="#DD3735"/>
<path d="M8.11988 24.1855C8.0523 24.3037 7.98492 24.405 7.91734 24.5232L7.81597 24.4724C7.74859 24.8607 7.51226 25.1984 7.27593 25.2658C7.34351 25.2996 7.41089 25.3334 7.46168 25.3164C7.51226 25.2996 7.54605 25.2152 7.57964 25.1646L8.0355 24.5062L8.18746 24.2531L8.11988 24.1855ZM2.49917 31.5953C2.58355 31.5953 2.66792 31.6123 2.76929 31.6123C2.76929 31.5447 2.85366 31.5617 2.85366 31.4941H2.90425C2.90425 31.5785 2.92124 31.6461 2.92124 31.7304H2.56675C2.54976 31.7134 2.48237 31.6123 2.49917 31.5953ZM2.36421 30.8189C2.31362 30.7683 2.22905 30.7177 2.22905 30.667C2.21226 30.5996 2.26284 30.5152 2.31362 30.4308C2.34722 30.5488 2.36421 30.6502 2.398 30.7683C2.38101 30.7851 2.36421 30.8021 2.36421 30.8189ZM2.78609 29.7386C2.85366 29.9076 2.92124 30.0931 2.98862 30.2619C2.97183 30.2619 2.87046 30.3127 2.85366 30.3295C2.78609 30.1607 2.70171 29.975 2.63433 29.8062C2.65112 29.7894 2.7523 29.7386 2.78609 29.7386ZM40.3584 45.875C40.4428 45.8412 40.5441 45.8242 40.6791 45.7904C40.5271 45.9086 40.409 45.993 40.3078 46.0943C40.2908 46.0773 40.274 46.0605 40.2572 46.0605C40.2908 45.993 40.3246 45.9424 40.3584 45.8748V45.875ZM19.6144 10.2099C19.7156 10.1423 19.8 10.0917 19.9013 10.0242L19.9351 10.058C19.8338 10.1931 19.7494 10.3281 19.6312 10.4968C19.6144 10.3787 19.6144 10.3111 19.5974 10.2267C19.5806 10.2267 19.5974 10.2267 19.6144 10.2099ZM24.5597 18.7505C24.7117 18.6832 24.8636 18.6156 25.0494 18.5312C25.0324 18.6324 25.0324 18.7 25.0324 18.7675C24.9818 18.7505 24.9142 18.7337 24.8636 18.7337C24.7625 18.7505 24.5767 18.8857 24.4924 18.9025C24.4754 18.9025 24.5597 18.7675 24.5597 18.7505ZM37.2189 33.0638C37.2527 33.2326 37.5734 33.317 37.2527 33.4857C37.3033 33.5195 37.3539 33.5365 37.4047 33.5703C37.4047 33.5871 37.3877 33.6209 37.3709 33.6377C37.3371 33.6547 37.2695 33.6884 37.2357 33.6715C37.2189 33.6715 37.1851 33.6039 37.1851 33.5703C37.1851 33.4183 37.2021 33.2664 37.2189 33.0638Z" fill="#DD3735"/>
</svg>
