<svg width="51" height="57" viewBox="0 0 51 57" fill="none" xmlns="http://www.w3.org/2000/svg">
<path d="M25.5 0.562622L50.1904 14.5291V42.4711L25.5 56.4375L0.809631 42.4711V14.5291L25.5 0.562622Z" fill="white"/>
<path d="M45.7827 41.5063L26.3194 52.5282V43.9566L38.4503 37.2763L45.7827 41.5063ZM47.1151 40.3043V17.2725L39.9969 21.3811V36.1953L47.1151 40.3043ZM5.1414 41.5061L24.6049 52.5191V43.9473L12.4741 37.2763L5.1414 41.5063V41.5061ZM3.80908 40.3043V17.2725L10.9274 21.3811V36.1953L3.80908 40.3043ZM4.63852 15.7818L24.6049 4.48921V12.7817L11.8126 19.816L11.71 19.8719L4.63852 15.7816V15.7818ZM46.2766 15.7818L26.3194 4.48901V12.7815L39.1024 19.825L39.2049 19.881L46.2766 15.7814V15.7818Z" fill="#8ED6FB"/>
<path d="M24.605 41.9979L12.6417 35.4106V22.376L24.605 29.28V41.9979ZM26.3194 41.9979L38.2827 35.42V22.376L26.3194 29.28V41.9979ZM13.443 20.8666L25.4622 14.2607L37.4718 20.8666L25.4622 27.7986L13.443 20.8666Z" fill="#1C78C0"/>
</svg>
