<svg width="51" height="39" viewBox="0 0 51 39" fill="none" xmlns="http://www.w3.org/2000/svg">
<path d="M43.5539 22.3071C41.8096 22.3161 40.2935 22.7362 39.0242 23.3572C38.5583 22.4348 38.0925 21.613 38.0105 21.0101C37.919 20.307 37.8095 19.8777 37.919 19.0375C38.0287 18.1973 38.5219 17.0008 38.5126 16.9095C38.5036 16.8183 38.403 16.389 37.3984 16.38C36.3939 16.3707 35.5263 16.5717 35.4258 16.8365C35.3253 17.1013 35.1336 17.7041 35.0057 18.325C34.8322 19.2384 32.9966 22.4986 31.9465 24.2064C31.6084 23.54 31.3162 22.9553 31.2522 22.4896C31.1609 21.7865 31.0512 21.3572 31.1609 20.517C31.2706 19.6768 31.7637 18.4805 31.7545 18.389C31.7453 18.2977 31.6449 17.8684 30.6403 17.8594C29.6356 17.8502 28.768 18.0512 28.6677 18.316C28.5672 18.581 28.4575 19.2018 28.2476 19.8046C28.0374 20.4075 25.5991 25.8506 24.9598 27.2569C24.7015 27.826 24.4305 28.3894 24.147 28.9465C24.147 28.9465 24.1378 28.9739 24.1104 29.0195C24.0213 29.1942 23.9301 29.3678 23.8366 29.5401V29.5491C23.6995 29.7959 23.5534 30.0241 23.4803 30.0241C23.4255 30.0241 23.325 29.3666 23.4985 28.4715C23.8638 26.5812 24.7314 23.6404 24.7224 23.54C24.7224 23.4851 24.8867 22.9737 24.1562 22.7088C23.4437 22.444 23.1881 22.8823 23.1241 22.8823C23.0602 22.8823 23.0144 23.0376 23.0144 23.0376C23.0144 23.0376 23.8092 19.7316 21.4985 19.7316C20.0556 19.7316 18.0646 21.3115 17.0783 22.7362C15.957 23.3463 14.8368 23.9583 13.7174 24.5719C13.1788 24.8733 12.6216 25.1747 12.101 25.4578C12.0644 25.4213 12.028 25.3755 11.9914 25.3391C9.19674 22.3527 4.02778 20.243 4.24694 16.2338C4.3292 14.7726 4.83137 10.9368 14.1742 6.27921C21.8637 2.48906 27.9828 3.53922 29.0422 5.86811C30.5581 9.19253 25.7636 15.3662 17.818 16.2611C14.786 16.5991 13.1968 15.4301 12.7952 14.9917C12.375 14.535 12.311 14.5076 12.1557 14.5991C11.9001 14.7362 12.0644 15.1471 12.1557 15.3844C12.3933 16.0053 13.3704 17.1013 15.0234 17.6403C16.4846 18.115 20.0372 18.38 24.3387 16.7178C29.1516 14.8546 32.9144 9.67648 31.8094 5.33853C30.7042 0.936527 23.3981 -0.515529 16.4846 1.94106C12.375 3.40252 7.91821 5.70379 4.71268 8.69937C0.904311 12.261 0.301474 15.357 0.548053 16.654C1.43409 21.2567 7.78131 24.2523 10.3202 26.4715C10.1923 26.5445 10.0734 26.6086 9.9731 26.6634C8.70358 27.2935 3.86326 29.8231 2.65779 32.4991C1.28799 35.5311 2.87714 37.7048 3.92731 37.9969C7.18768 38.9011 10.5393 37.2755 12.3384 34.5904C14.1375 31.9054 13.9184 28.4167 13.0874 26.8185C13.0782 26.8003 13.0692 26.7819 13.0507 26.7637C13.3796 26.572 13.7174 26.371 14.0463 26.1793C14.6506 25.822 15.2627 25.4779 15.882 25.1471C15.5714 25.9965 15.343 27.0103 15.2335 28.4715C15.0964 30.1886 15.7995 32.4168 16.722 33.2934C17.1331 33.6773 17.6171 33.6863 17.9277 33.6863C19.0053 33.6863 19.4894 32.7913 20.0282 31.7319C20.6857 30.4352 21.2793 28.9283 21.2793 28.9283C21.2793 28.9283 20.5396 33.0014 22.5488 33.0014C23.2794 33.0014 24.0191 32.0515 24.3479 31.5676V31.5766C24.3479 31.5766 24.3662 31.5492 24.4028 31.4853C24.4758 31.3666 24.5215 31.2934 24.5215 31.2934V31.2754C24.8137 30.7638 25.4714 29.604 26.4485 27.677C27.7088 25.193 28.9235 22.0879 28.9235 22.0879C28.9235 22.0879 29.0332 22.8459 29.4074 24.1062C29.6268 24.8459 30.0831 25.6587 30.4486 26.4441C30.1564 26.8552 29.9736 27.0833 29.9736 27.0833L29.9828 27.0925C29.7453 27.403 29.4897 27.7408 29.2065 28.0698C28.211 29.2569 27.0239 30.6179 26.8594 31.0104C26.6674 31.4761 26.7133 31.8142 27.0787 32.0882C27.3435 32.2891 27.8183 32.3163 28.3024 32.2891C29.1975 32.2251 29.8275 32.0059 30.138 31.869C30.6221 31.6955 31.1883 31.4305 31.7179 31.0378C32.6952 30.3163 33.2887 29.2843 33.234 27.9237C33.2066 27.1748 32.96 26.4259 32.6586 25.7225C32.7501 25.5949 32.8321 25.467 32.9236 25.3391C34.4669 23.0832 35.6634 20.6082 35.6634 20.6082C35.6634 20.6082 35.7731 21.3662 36.1473 22.6267C36.3301 23.266 36.7045 23.9601 37.0332 24.6358C35.5811 25.814 34.6861 27.1838 34.3664 28.0789C33.7912 29.7411 34.2385 30.4898 35.088 30.6633C35.4714 30.7456 36.0194 30.5629 36.4213 30.3893C36.9327 30.225 37.5355 29.942 38.111 29.5217C39.0883 28.8004 40.0287 27.7957 39.9739 26.4351C39.9465 25.814 39.7822 25.202 39.5538 24.6083C40.7867 24.0972 42.3759 23.814 44.4031 24.0513C48.7505 24.5627 49.6089 27.2751 49.4444 28.4169C49.2801 29.5583 48.3668 30.1794 48.0656 30.3711C47.764 30.5631 47.6637 30.6269 47.6911 30.7638C47.7275 30.9648 47.8737 30.9557 48.1294 30.9191C48.4857 30.8553 50.4127 29.9966 50.4948 27.8961C50.6319 25.2112 48.0746 22.2796 43.5539 22.3071ZM10.0187 33.6133C8.57569 35.184 6.56663 35.7777 5.699 35.2755C4.76752 34.7365 5.13278 32.4168 6.90447 30.7548C7.98206 29.7411 9.37027 28.8002 10.2927 28.225C10.5027 28.0971 10.8133 27.9145 11.1878 27.6862C11.2516 27.6495 11.2883 27.6313 11.2883 27.6313L11.5074 27.4942C12.1557 29.8688 11.5348 31.9603 10.0187 33.6133ZM20.5214 26.4715C20.019 27.6954 18.9688 30.8279 18.3296 30.6543C17.7816 30.5082 17.4435 28.1337 18.2199 25.7866C18.6126 24.6083 19.4436 23.2019 19.9277 22.6541C20.7131 21.7773 21.5807 21.4849 21.7907 21.8413C22.0557 22.3071 20.8318 25.7043 20.5214 26.4715ZM29.1883 30.6177C28.9781 30.7274 28.7774 30.8004 28.6859 30.7456C28.6221 30.709 28.7774 30.5629 28.7774 30.5629C28.7774 30.5629 29.8642 29.394 30.2933 28.8642C30.54 28.5538 30.8321 28.1885 31.1427 27.7774V27.8961C31.1427 29.2935 29.7909 30.2342 29.1881 30.6177H29.1883ZM35.8733 29.0926C35.718 28.9829 35.7454 28.6176 36.266 27.476C36.467 27.0285 36.9417 26.2797 37.7547 25.5582C37.846 25.8504 37.91 26.1336 37.9008 26.3984C37.8916 28.1611 36.6315 28.8186 35.8733 29.0926Z" fill="#CD6799"/>
</svg>
