<svg width="51" height="51" viewBox="0 0 51 51" fill="none" xmlns="http://www.w3.org/2000/svg">
<path d="M4.05352 25.4993C4.05352 33.9882 8.98656 41.324 16.1403 44.8005L5.91027 16.7715C4.68394 19.5177 4.05123 22.4918 4.05352 25.4993ZM39.9771 24.417C39.9771 21.7667 39.025 19.9312 38.2086 18.5026C37.1214 16.7361 36.1024 15.2401 36.1024 13.4735C36.1024 11.502 37.5976 9.66686 39.7038 9.66686C39.7989 9.66686 39.8889 9.67862 39.9816 9.68411C36.1661 6.18844 31.0827 4.05425 25.4995 4.05425C18.0072 4.05425 11.4156 7.89834 7.58096 13.7207C8.08406 13.7358 8.55815 13.7462 8.96107 13.7462C11.2041 13.7462 14.6764 13.4743 14.6764 13.4743C15.8326 13.4061 15.9689 15.104 14.8141 15.2408C14.8141 15.2408 13.6522 15.3775 12.3593 15.4451L20.1694 38.675L24.8627 24.5993L21.5213 15.4446C20.3665 15.3769 19.2724 15.2403 19.2724 15.2403C18.1168 15.1724 18.2523 13.4055 19.4079 13.4737C19.4079 13.4737 22.9497 13.7458 25.0568 13.7458C27.2998 13.7458 30.7723 13.4737 30.7723 13.4737C31.9291 13.4055 32.0652 15.1034 30.91 15.2403C30.91 15.2403 29.7457 15.3769 28.4552 15.4446L36.2055 38.4983L38.3446 31.3501C39.2716 28.3838 39.9773 26.2533 39.9773 24.4172L39.9771 24.417ZM25.8758 27.3752L19.4412 46.0728C21.4085 46.6522 23.4487 46.9464 25.4995 46.9464C27.9968 46.9464 30.3918 46.5147 32.6213 45.7308C32.5617 45.637 32.5106 45.5381 32.4685 45.4353L25.8758 27.3752ZM44.3174 15.2103C44.4149 15.9412 44.4632 16.678 44.4619 17.4154C44.4619 19.5918 44.0555 22.0381 42.8312 25.0969L36.2804 44.037C42.6561 40.319 46.9445 33.4115 46.9445 25.4998C46.9449 21.7712 45.9924 18.265 44.3172 15.2103H44.3174ZM25.4995 0.500732C11.715 0.500732 0.5 11.715 0.5 25.4993C0.5 39.2853 11.715 50.4992 25.4995 50.4992C39.2834 50.4992 50.5 39.2853 50.5 25.4993C50.4998 11.715 39.2836 0.500732 25.4997 0.500732H25.4995ZM25.4995 49.3533C12.3473 49.3533 1.64621 38.6524 1.64621 25.4993C1.64621 12.3471 12.3468 1.64694 25.4995 1.64694C38.6513 1.64694 49.3514 12.3471 49.3514 25.4993C49.3514 38.6524 38.6513 49.3533 25.4995 49.3533Z" fill="#464342"/>
</svg>
