<svg width="57" height="57" viewBox="0 0 57 57" fill="none" xmlns="http://www.w3.org/2000/svg">
<path d="M26.6826 0.764935C26.5632 0.775784 26.1834 0.813755 25.8416 0.840877C17.9588 1.55148 10.5751 5.80422 5.89853 12.3407C3.29443 15.975 1.62889 20.0976 0.99956 24.4642C0.777126 25.9885 0.75 26.4387 0.75 28.5054C0.75 30.5721 0.777126 31.0224 0.99956 32.5466C2.50777 42.9669 9.92405 51.722 19.9824 54.9658C21.7836 55.5462 23.6824 55.9422 25.8416 56.1808C26.6826 56.2731 30.3174 56.2731 31.1584 56.1808C34.8855 55.7686 38.043 54.8464 41.157 53.2571C41.6345 53.013 41.7267 52.9479 41.6616 52.8936C41.6182 52.8611 39.5837 50.1326 37.1424 46.8346L32.7045 40.8406L27.1437 32.6117C24.0839 28.0878 21.5666 24.3883 21.5449 24.3883C21.5232 24.3829 21.5015 28.0389 21.4906 32.5032C21.4743 40.3198 21.4689 40.6344 21.3713 40.8189C21.2302 41.0847 21.1217 41.1932 20.8938 41.3125C20.7202 41.3993 20.5683 41.4156 19.7491 41.4156H18.8106L18.561 41.2583C18.3982 41.1552 18.2789 41.0196 18.1975 40.8623L18.0836 40.6182L18.0944 29.7422L18.1107 18.8608L18.2789 18.6493C18.3657 18.5353 18.5501 18.3889 18.6804 18.3184C18.9028 18.2099 18.9896 18.199 19.9282 18.199C21.0349 18.199 21.2194 18.2424 21.5069 18.557C21.5883 18.6438 24.5993 23.1786 28.2016 28.641C31.804 34.1034 36.7301 41.562 39.1497 45.2235L43.5441 51.8793L43.7666 51.7328C45.7359 50.4526 47.8192 48.63 49.4685 46.7315C52.9786 42.7011 55.2409 37.7866 56.0004 32.5466C56.2229 31.0224 56.25 30.5721 56.25 28.5054C56.25 26.4387 56.2229 25.9885 56.0004 24.4642C54.4922 14.0439 47.076 5.2889 37.0176 2.0451C35.2435 1.47011 33.3556 1.07413 31.2397 0.835453C30.7189 0.781209 27.1328 0.72154 26.6826 0.764935ZM38.043 17.5481C38.3034 17.6783 38.515 17.9278 38.5909 18.1882C38.6343 18.3292 38.6452 21.3452 38.6343 28.142L38.618 37.8951L36.8982 35.2588L35.173 32.6226V25.5328C35.173 20.9492 35.1947 18.3726 35.2273 18.2478C35.3141 17.9441 35.504 17.7054 35.7644 17.5644C35.9868 17.4505 36.0682 17.4396 36.9199 17.4396C37.7229 17.4396 37.8639 17.4505 38.043 17.5481Z" fill="black"/>
</svg>
