<svg width="55" height="35" viewBox="0 0 55 35" fill="none" xmlns="http://www.w3.org/2000/svg">
<path d="M37.7041 0.188965C37.5641 0.188965 37.4299 0.244572 37.3309 0.343554C37.2319 0.442535 37.1763 0.576784 37.1763 0.716765V10.3878L34.9842 9.10879C34.8489 9.02876 34.6945 8.98654 34.5373 8.98654C34.3801 8.98654 34.2258 9.02876 34.0905 9.10879L28.823 12.1806C28.6883 12.2583 28.5765 12.3701 28.4987 12.5048C28.4208 12.6394 28.3798 12.7921 28.3797 12.9477V19.0983C28.3797 19.415 28.5486 19.707 28.823 19.8654L34.0905 22.9372C34.2258 23.0172 34.3801 23.0594 34.5373 23.0594C34.6945 23.0594 34.8489 23.0172 34.9842 22.9372L40.2516 19.8654C40.3863 19.7876 40.4982 19.6758 40.576 19.5412C40.6538 19.4065 40.6949 19.2538 40.695 19.0983V2.35295C40.6946 2.19951 40.6541 2.04885 40.5776 1.91586C40.501 1.78287 40.3911 1.67216 40.2587 1.59467L37.9663 0.261097C37.8874 0.214487 37.7975 0.189599 37.7059 0.188965H37.7041ZM20.4627 8.98915C20.3058 8.98896 20.1516 9.03023 20.0158 9.10879L14.7483 12.1806C14.6137 12.2583 14.5018 12.3701 14.424 12.5048C14.3462 12.6394 14.3051 12.7921 14.305 12.9477V19.0983C14.305 19.415 14.4739 19.707 14.7483 19.8654L20.0158 22.9372C20.292 23.0955 20.6316 23.0955 20.9095 22.9372L26.177 19.8654C26.3116 19.7876 26.4235 19.6758 26.5013 19.5412C26.5791 19.4065 26.6202 19.2538 26.6203 19.0983V12.9477C26.6205 12.7921 26.5796 12.6392 26.5018 12.5045C26.4239 12.3698 26.3119 12.2581 26.177 12.1806L20.9095 9.10879C20.7737 9.03023 20.6196 8.98896 20.4627 8.98915ZM48.612 8.98915C48.455 8.98836 48.3007 9.02967 48.1651 9.10879L42.8977 12.1806C42.763 12.2583 42.6512 12.3701 42.5733 12.5048C42.4955 12.6394 42.4545 12.7921 42.4543 12.9477V19.0983C42.4543 19.415 42.6232 19.707 42.8977 19.8654L48.0068 22.953C48.1418 23.0349 48.2965 23.0788 48.4545 23.0801C48.6124 23.0813 48.7677 23.0398 48.9041 22.96L51.4164 21.4998C51.4755 21.465 51.5245 21.4153 51.5585 21.3558C51.5925 21.2962 51.6104 21.2288 51.6104 21.1602C51.6104 21.0916 51.5925 21.0242 51.5585 20.9647C51.5245 20.9051 51.4755 20.8555 51.4164 20.8207L45.973 17.6134V14.4572L48.612 12.9213L51.251 14.4572V16.6563C51.251 16.9501 51.4973 16.9959 51.6627 16.8974C52.5521 16.3781 53.4423 15.8603 54.3334 15.3439C54.4659 15.2665 54.5759 15.1558 54.6525 15.0228C54.729 14.8898 54.7694 14.7391 54.7697 14.5856V12.9494C54.7699 12.7938 54.729 12.641 54.6511 12.5063C54.5733 12.3716 54.4612 12.2598 54.3263 12.1823L49.0589 9.11055C48.9232 9.03167 48.7689 8.99038 48.612 8.99091V8.98915ZM6.38799 8.99267C6.23101 8.99188 6.0767 9.03319 5.94111 9.11231L0.673668 12.1806C0.538838 12.259 0.426943 12.3715 0.349148 12.5067C0.271353 12.6419 0.230379 12.7952 0.230316 12.9512V20.8031C0.230316 21.1866 0.645519 21.4241 0.976274 21.2324L3.31267 19.8724C3.44536 19.7948 3.55544 19.6838 3.63198 19.5504C3.70852 19.4171 3.74885 19.2661 3.74898 19.1124V14.4624L6.38799 12.923L9.02699 14.4624V19.1124C9.02725 19.2658 9.06766 19.4166 9.1442 19.5496C9.22074 19.6826 9.33075 19.7933 9.4633 19.8706L11.7997 21.2324C11.8751 21.2763 11.9608 21.2996 12.0482 21.2998C12.1355 21.3001 12.2213 21.2773 12.297 21.2337C12.3727 21.1902 12.4355 21.1274 12.4792 21.0518C12.5228 20.9762 12.5458 20.8904 12.5457 20.8031V12.9512C12.5456 12.7952 12.5046 12.6419 12.4268 12.5067C12.349 12.3715 12.2371 12.259 12.1023 12.1806L6.83486 9.11231C6.69927 9.03319 6.54496 8.99188 6.38799 8.99267ZM34.5373 12.9195L37.1763 14.4589V17.587L34.5373 19.1264L31.8983 17.587V14.4572L34.5373 12.9177V12.9195ZM48.612 14.2707L47.1043 15.1503V16.9062L48.612 17.7823L50.1198 16.9062V15.1503L48.612 14.2707ZM27.3346 21.2975C27.1519 21.2964 26.9719 21.3425 26.8121 21.4312L21.8648 24.2918C21.7056 24.3821 21.5733 24.5131 21.4815 24.6714C21.3897 24.8297 21.3416 25.0096 21.3423 25.1926V30.9034C21.3423 31.2711 21.5482 31.6177 21.8648 31.8042L23.1668 32.5466C23.7913 32.8545 24.0218 32.8545 24.305 32.8545C25.2375 32.8545 25.7688 32.2968 25.7688 31.3116V25.6694C25.7693 25.6502 25.7659 25.631 25.7589 25.6131C25.7518 25.5952 25.7413 25.5789 25.7278 25.5651C25.7144 25.5513 25.6983 25.5404 25.6806 25.5329C25.6628 25.5255 25.6438 25.5216 25.6245 25.5216H24.9982C24.959 25.5216 24.9214 25.5372 24.8937 25.5649C24.866 25.5926 24.8504 25.6302 24.8504 25.6694V31.3116C24.8504 31.7391 24.3983 32.1789 23.6611 31.8112L22.3064 31.0301C22.2843 31.0162 22.266 30.997 22.2531 30.9743C22.2402 30.9516 22.2332 30.926 22.2325 30.8999V25.1891C22.2325 25.1381 22.2572 25.0783 22.3082 25.0519L27.2554 22.2C27.2791 22.1869 27.3058 22.18 27.3329 22.18C27.3599 22.18 27.3866 22.1869 27.4103 22.2L32.3628 25.0501C32.4138 25.0783 32.4384 25.1293 32.4384 25.1891V30.8999C32.4383 30.9273 32.4313 30.9542 32.4181 30.9782C32.4049 31.0021 32.3859 31.0224 32.3628 31.0371L27.4103 33.8996C27.3866 33.9127 27.3599 33.9195 27.3329 33.9195C27.3058 33.9195 27.2791 33.9127 27.2554 33.8996L25.9922 33.1466C25.9571 33.129 25.9043 33.1202 25.8709 33.1378C25.6393 33.2862 25.3883 33.4017 25.1249 33.4808C25.0387 33.5072 24.9226 33.56 25.1706 33.6972L26.8121 34.6737C26.9726 34.761 27.1519 34.8081 27.3346 34.8109C27.5167 34.8127 27.6955 34.7627 27.8501 34.6666L32.7991 31.8042C32.9583 31.7139 33.0906 31.5829 33.1825 31.4246C33.2743 31.2663 33.3223 31.0864 33.3216 30.9034V25.1926C33.3193 25.0102 33.27 24.8315 33.1785 24.6737C33.087 24.5159 32.9563 24.3844 32.7991 24.2918L27.8501 21.4329C27.693 21.3438 27.5152 21.2977 27.3346 21.2992V21.2975ZM35.0528 23.9329C34.9281 23.9332 34.8046 23.958 34.6894 24.0059C34.5742 24.0539 34.4696 24.1241 34.3815 24.2124C34.2037 24.3909 34.1041 24.6328 34.1045 24.8847C34.105 25.1367 34.2055 25.3782 34.384 25.556C34.5625 25.7338 34.8044 25.8335 35.0563 25.833C35.3083 25.8326 35.5498 25.732 35.7276 25.5535C35.9054 25.375 36.0051 25.1332 36.0046 24.8812C36.0041 24.6292 35.9036 24.3878 35.7251 24.21C35.5466 24.0321 35.3048 23.9325 35.0528 23.9329ZM35.0423 24.0842C35.4891 24.0842 35.8516 24.4361 35.8516 24.8812C35.8484 25.0949 35.7621 25.2989 35.611 25.45C35.4599 25.601 35.2559 25.6873 35.0423 25.6905C34.8298 25.6882 34.6269 25.6017 34.4782 25.45C34.3294 25.2982 34.2469 25.0937 34.2488 24.8812C34.2481 24.7767 34.2681 24.673 34.3077 24.5762C34.3473 24.4794 34.4057 24.3915 34.4794 24.3174C34.5532 24.2433 34.6409 24.1845 34.7375 24.1445C34.8341 24.1045 34.9377 24.084 35.0423 24.0842ZM34.6957 24.3429V25.4108H34.898V24.985H35.088C35.1654 24.985 35.183 25.0167 35.2006 25.0765C35.2006 25.0853 35.2323 25.3633 35.2411 25.4143H35.461C35.4331 25.3216 35.4159 25.2259 35.41 25.1293C35.3853 24.9921 35.3783 24.8971 35.2323 24.8883C35.3097 24.8619 35.4381 24.8214 35.4381 24.6244C35.4381 24.3411 35.1918 24.3429 35.0634 24.3429H34.6939H34.6957ZM34.898 24.5135H35.0704C35.1232 24.5135 35.2252 24.5135 35.2252 24.6578C35.2252 24.7176 35.1988 24.8161 35.0599 24.8126H34.898V24.5135ZM28.6612 25.3861C27.2484 25.3861 26.4092 25.9896 26.4092 26.9819C26.4092 28.0691 27.2502 28.3594 28.6031 28.4949C30.2217 28.6585 30.3484 28.8907 30.3484 29.2074C30.3484 29.7634 29.9015 29.9938 28.8564 29.9938C27.5457 29.9938 27.259 29.6701 27.164 29.0192C27.1552 28.9488 27.0936 28.8978 27.0162 28.8978H26.3723C26.353 28.8978 26.334 28.9016 26.3162 28.9091C26.2985 28.9166 26.2824 28.9275 26.269 28.9413C26.2555 28.955 26.245 28.9714 26.238 28.9893C26.2309 29.0072 26.2275 29.0263 26.228 29.0456C26.228 29.876 26.6819 30.87 28.8476 30.87C30.4363 30.87 31.3353 30.2542 31.3353 29.174C31.3353 28.1043 30.614 27.8193 29.0904 27.6135C27.5493 27.4076 27.3962 27.3038 27.3962 26.9432C27.3962 26.6441 27.5229 26.2517 28.6629 26.2517C29.6798 26.2517 30.0598 26.4752 30.2146 27.1596C30.2322 27.2299 30.2797 27.2704 30.3484 27.2704H30.9905C31.0327 27.2704 31.0697 27.2528 31.0943 27.2282C31.1207 27.1947 31.1365 27.1613 31.1295 27.1191C31.0275 25.9368 30.2463 25.3861 28.6612 25.3861Z" fill="#83CD29"/>
</svg>
