<svg width="45" height="45" viewBox="0 0 45 45" fill="none" xmlns="http://www.w3.org/2000/svg">
<path d="M0.562531 3.5625C0.562531 1.90565 1.90568 0.5625 3.56253 0.5625H41.4375C43.0944 0.5625 44.4375 1.90565 44.4375 3.5625V41.4375C44.4375 43.0944 43.0944 44.4375 41.4375 44.4375H3.56253C1.90568 44.4375 0.562531 43.0944 0.562531 41.4375V3.5625Z" fill="#F5DE19"/>
<path d="M28.2677 35.8686C29.2235 35.3119 30.444 35.7332 31.3193 36.4093C31.4447 36.5062 31.5754 36.5966 31.7111 36.6801C32.4319 37.1237 33.2634 37.3545 34.1098 37.346C35.8178 37.346 36.9099 36.492 36.9099 35.309C36.9099 33.8987 35.788 33.3942 33.9076 32.5715L32.8766 32.1296C29.8993 30.8619 27.925 29.2746 27.925 25.9182C27.925 22.8265 30.2754 20.4714 33.9625 20.4714C35.156 20.3852 36.3486 20.6523 37.3913 21.2395C37.9545 21.5566 38.4605 21.9595 38.8928 22.4308C39.5212 23.1162 39.228 24.1553 38.4445 24.6562L38.0285 24.9221C37.2891 25.3948 36.2845 25.0252 35.5547 24.5378C35.082 24.2221 34.5245 24.0576 33.9562 24.066C33.7083 24.0412 33.4578 24.0683 33.2209 24.1456C32.984 24.2229 32.7658 24.3487 32.5802 24.515C32.3946 24.6813 32.2457 24.8844 32.143 25.1114C32.0402 25.3384 31.9859 25.5844 31.9834 25.8335C31.9834 27.0699 32.7496 27.5713 34.5187 28.3407L35.5498 28.7826C39.0535 30.2853 41.0342 31.8162 41.0342 35.2588C41.0342 38.971 38.1181 41.0049 34.2022 41.0049C32.6765 41.1021 31.1552 40.7557 29.822 40.0075C29.0232 39.5592 28.3123 38.9781 27.7177 38.2934C27.0478 37.5219 27.3848 36.3827 28.2677 35.8686ZM13.6636 36.2921C14.6521 35.6926 15.8065 36.1789 16.7295 36.8751C17.0947 37.1506 17.5386 37.3163 18.1236 37.3163C19.4775 37.3163 20.333 36.7866 20.333 34.7261V22.7678C20.333 21.6293 21.2559 20.7064 22.3944 20.7064C23.5328 20.7064 24.4557 21.6293 24.4557 22.7678V34.7809C24.4557 39.0493 21.9486 40.9924 18.2991 40.9924C17.0091 41.0629 15.7279 40.7414 14.6241 40.0702C14.0401 39.7151 13.5201 39.2709 13.0813 38.7568C12.4097 37.9701 12.7791 36.8285 13.6636 36.2921Z" fill="black"/>
</svg>
