<svg width="45" height="51" viewBox="0 0 45 51" fill="none" xmlns="http://www.w3.org/2000/svg">
	<path d="M4.51297 45.4518L0.510498 0.5625H44.4896L40.4817 45.4447L22.4733 50.4375L4.51297 45.4518Z" fill="#E44F26"/>
	<path d="M22.5 46.6221L37.0528 42.5875L40.4764 4.23364H22.5V46.6221Z" fill="#F1662A"/>
	<path d="M22.5 20.8812H15.2147L14.7124 15.2435H22.5V9.73767H8.69531L8.82713 11.2161L10.1791 26.387H22.5V20.8812ZM22.5 35.1793L22.4751 35.1864L16.344 33.5316L15.9521 29.1408H10.4249L11.1962 37.7834L22.4751 40.9149L22.5 40.9078V35.1793Z" fill="#EBEBEB"/>
	<path d="M22.4804 20.8812V26.387H29.2598L28.6222 33.528L22.4804 35.1846V40.9131L33.7682 37.7835L33.8501 36.8536L35.1433 22.3596L35.2787 20.8812H22.4804ZM22.4804 9.73767V15.2435H35.7792L35.8897 14.0073L36.1408 11.2161L36.2726 9.73767H22.4804Z" fill="white"/>
</svg>
