<svg width="43" height="43" viewBox="0 0 43 43" fill="none" xmlns="http://www.w3.org/2000/svg">
<path d="M0 37.4555C0 40.5179 2.48241 43 5.54448 43H37.4554C40.5179 43 43 40.5176 43 37.4555V5.54465C43 2.48207 40.5176 0 37.4555 0H5.54465C2.48207 0 0 2.48241 0 5.54448V37.4554V37.4555Z" fill="#563D7C"/>
<path d="M17.8313 19.0204V12.9311H23.1913C23.7019 12.9311 24.1941 12.9736 24.6681 13.0587C25.1421 13.1437 25.5615 13.2956 25.9262 13.5144C26.2907 13.7333 26.5824 14.0371 26.8013 14.426C27.02 14.815 27.1295 15.3134 27.1295 15.9209C27.1295 17.0149 26.8013 17.805 26.1449 18.2911C25.4886 18.7774 24.65 19.0204 23.6289 19.0204H17.8313ZM12.1064 8.48242V34.5176H24.7228C25.8897 34.5176 27.0262 34.3718 28.1323 34.08C29.2384 33.7883 30.2228 33.3386 31.0858 32.7309C31.9487 32.1232 32.6355 31.3391 33.146 30.379C33.6566 29.4187 33.9118 28.2822 33.9118 26.9696C33.9118 25.3408 33.5167 23.9492 32.7267 22.7945C31.9366 21.6398 30.7393 20.8315 29.1349 20.3696C30.3018 19.8106 31.1831 19.0933 31.7787 18.2182C32.3742 17.3431 32.672 16.2493 32.672 14.9365C32.672 13.721 32.4714 12.7001 32.0703 11.8735C31.6692 11.0471 31.104 10.3847 30.3747 9.8863C29.6455 9.38794 28.7704 9.02933 27.7493 8.81063C26.7284 8.59177 25.598 8.48242 24.3582 8.48242H12.1064ZM17.8313 30.0689V22.922H24.0664C25.3062 22.922 26.3029 23.2076 27.0566 23.779C27.8101 24.3503 28.187 25.3043 28.187 26.6414C28.187 27.3221 28.0715 27.8811 27.8405 28.3187C27.6096 28.7563 27.2997 29.1028 26.9106 29.3579C26.5218 29.6132 26.072 29.7955 25.5615 29.905C25.0509 30.0142 24.5163 30.0689 23.9571 30.0689H17.8313Z" fill="white"/>
</svg>
