<svg width="38" height="41" viewBox="0 0 38 41" fill="none" xmlns="http://www.w3.org/2000/svg">
<path d="M9.02418 0.5H2.09573C1.19826 0.5 0.480286 1.21797 0.480286 2.11544V38.6603C0.480286 39.5578 1.19826 40.2758 2.09573 40.2758H9.02418C9.92165 40.2758 10.6396 39.5219 10.6396 38.6603V2.11544C10.6396 1.25387 9.92165 0.5 9.02418 0.5ZM37.456 3.1206C38.2816 2.07954 37.5637 0.535899 36.2354 0.5H28.3377C27.871 0.5 27.4043 0.715384 27.1171 1.07437L11.5371 19.275C10.9986 19.8853 10.9986 20.7828 11.5371 21.3931L27.2966 39.6296C27.6197 39.9886 28.0505 40.204 28.5172 40.204H36.4149C37.7432 40.1681 38.4611 38.6244 37.6714 37.5834L23.5632 21.5008C23.0247 20.8905 23.0247 19.993 23.5632 19.3827L37.456 3.1206Z" fill="#5333ED"/>
</svg>
