<svg width="45" height="51" viewBox="0 0 45 51" fill="none" xmlns="http://www.w3.org/2000/svg">
<path d="M4.51296 45.4518L0.512268 0.5625H44.4878L40.4817 45.4447L22.4733 50.4375L4.51296 45.4518Z" fill="#1572B6"/>
<path d="M22.4996 46.6249L37.0524 42.5903L40.4759 4.23645H22.4996V46.6249Z" fill="#33A9DC"/>
<path d="M22.4996 20.494H29.7849L30.2872 14.8563H22.4996V9.35046H36.3043L36.1724 10.8271L34.8205 25.9998H22.4996V20.494Z" fill="white"/>
<path d="M22.5338 34.7966L22.5089 34.8037L16.3778 33.1471L15.986 28.7563H10.4587L11.23 37.4008L22.5071 40.5322L22.5338 40.5251V34.7966Z" fill="#EBEBEB"/>
<path d="M29.3161 25.7714L28.6535 33.144L22.5135 34.8005V40.529L33.7995 37.4011L33.8832 36.4713L34.8397 25.7714H29.3161Z" fill="white"/>
<path d="M22.5184 9.35046V14.8563H9.2196L9.10917 13.6183L8.85801 10.8271L8.7262 9.35046H22.5184ZM22.4988 20.494V25.9998H16.4444L16.3339 24.7618L16.0845 21.9706L15.9527 20.494H22.4988Z" fill="#EBEBEB"/>
</svg>
