<svg width="53" height="53" viewBox="0 0 53 53" fill="none" xmlns="http://www.w3.org/2000/svg">
<path d="M31.5348 34.0595L18.9378 31.4272C18.885 31.5292 18.8263 31.628 18.762 31.7231L30.2298 48.4519L30.9216 47.7609L32.8726 35.6283C32.5429 35.489 32.2502 35.2746 32.0179 35.0022C31.7857 34.7298 31.6202 34.4072 31.5348 34.0595ZM26.9394 17.5924C26.4675 18.3163 25.6529 18.7954 24.7252 18.7954C24.5823 18.7954 24.4435 18.781 24.307 18.7593L18.5622 27.7481L33.9105 21.1431C33.9057 21.0813 33.8921 21.0235 33.8921 20.9601C33.8921 20.8309 33.9097 20.7057 33.9306 20.5821L26.9394 17.5924ZM27.3567 15.9544L34.7933 19.1341C35.0303 18.9489 35.3014 18.812 35.5911 18.7312L36.8134 11.1311L32.1568 6.47449L26.9153 14.6761C27.1722 15.0561 27.3244 15.4969 27.3567 15.9544ZM42.9392 17.257L38.2724 12.5893L37.258 18.8909C37.5151 19.0202 37.7461 19.196 37.9393 19.4094L42.9392 17.257ZM31.7579 32.3997C31.9405 32.0681 32.2029 31.7873 32.5213 31.5826C32.8397 31.3779 33.2041 31.2557 33.5815 31.2271L34.9218 22.8911C34.8166 22.8212 34.7227 22.7378 34.6304 22.6519L19.1938 29.2954C19.2331 29.4567 19.2604 29.6212 19.2732 29.7922L31.7579 32.3997ZM44.2105 18.529L38.8109 20.8524L52.1334 26.5483L52.1816 26.5001L44.2105 18.529ZM34.5614 35.6534L32.9387 45.7423L42.3614 36.3195L35.5742 34.9022C35.3139 35.2428 34.9629 35.5032 34.5614 35.6534ZM16.246 33.0596C15.9049 33.0596 15.5783 33.001 15.2725 32.8972L12.1426 37.7954L10.9331 36.5868L13.8978 31.948C13.8244 31.857 13.7561 31.7621 13.6931 31.6637L8.32243 33.9761L7.04939 32.703L12.9281 30.1726L2.3001 27.9543L0.846479 26.5001L1.30634 26.0403L13.5623 28.5988C13.7032 28.3314 13.8837 28.0868 14.0976 27.8733L8.14908 19.1967L9.3505 17.9953L15.5652 27.0611C15.7884 27.0093 16.0167 26.9826 16.2458 26.9816C16.5082 26.9816 16.7627 27.0186 17.0058 27.0812L22.8213 17.9817C22.3478 17.4905 22.0834 16.8348 22.0838 16.1526C22.0838 15.944 22.1102 15.7417 22.156 15.5475L14.9009 12.4457L16.1736 11.1728L23.0474 14.1126C23.396 13.8253 23.8126 13.6325 24.2572 13.5528C24.7018 13.4731 25.1594 13.5092 25.5861 13.6575L30.9479 5.26585L26.5004 0.818115L0.81839 26.5001L26.5004 52.1821L29.0276 49.6549L17.4739 32.7993C17.0872 32.9707 16.669 33.0594 16.246 33.0596ZM36.5565 23.2504L35.193 31.7247C35.4313 31.9162 35.6286 32.1537 35.7733 32.423C35.9179 32.6923 36.0069 32.9879 36.0349 33.2923L43.7739 34.9078L50.8604 27.8213L38.0694 22.3525C37.7034 22.8398 37.1596 23.1624 36.5565 23.2504Z" fill="#25C7B7"/>
</svg>
