<svg xmlns="http://www.w3.org/2000/svg" width="248" height="248" fill="none"><path fill="#003DFF" d="M123.605.139C56.055.139.988 54.629.013 121.985c-.99 68.406 54.483 125.089 122.865 125.485 21.117.124 41.456-5.044 59.52-14.865 1.762-.955 2.034-3.381.535-4.707l-11.568-10.257c-2.35-2.084-5.695-2.673-8.589-1.445-12.607 5.366-26.307 8.108-40.427 7.935-55.256-.679-99.898-46.675-99.018-101.953.871-54.58 45.519-98.71 100.274-98.71h100.284v178.338l-56.898-50.58c-1.84-1.639-4.66-1.317-6.145.648-9.133 12.098-24.011 19.622-40.536 18.484-22.922-1.584-41.496-20.048-43.213-42.972-2.053-27.344 19.608-50.254 46.508-50.254 24.333 0 44.371 18.737 46.464 42.547.188 2.118 1.143 4.093 2.731 5.504l14.818 13.143c1.682 1.49 4.349.579 4.765-1.634a70.385 70.385 0 0 0 1.024-17.781c-2.385-34.819-30.577-62.831-65.393-64.975-39.918-2.46-73.29 28.78-74.349 67.94-1.034 38.166 30.22 71.064 68.372 71.906 15.926.351 30.69-4.658 42.619-13.341l74.343 65.935c3.187 2.827 8.219.565 8.219-3.697V4.821A4.689 4.689 0 0 0 242.527.13H123.605v.01Z"/></svg>