<svg width="45" height="43" viewBox="0 0 45 43" fill="none" xmlns="http://www.w3.org/2000/svg">
<path d="M0.5 21.5V43H44.5V0H0.5V21.5Z" fill="#007ACC"/>
<path d="M10.2302 21.6428L10.2163 23.4036H15.9431V39.3069H19.9939V23.4036H25.7209V21.6769C25.7209 20.7211 25.7 19.9226 25.6721 19.9021C25.6512 19.8749 22.1659 19.8611 17.9407 19.868L10.251 19.8885L10.2302 21.6426V21.6428ZM36.0037 19.8385C37.1211 20.1114 37.9732 20.596 38.7554 21.3878C39.1605 21.8111 39.7611 22.5822 39.81 22.7665C39.8238 22.8211 37.9103 24.077 36.751 24.7801C36.7091 24.8073 36.5413 24.6299 36.3528 24.3568C35.7871 23.5514 35.1935 23.2034 34.2855 23.1419C32.9517 23.0532 32.0925 23.7357 32.0996 24.8755C32.0996 25.2101 32.1484 25.408 32.2881 25.6809C32.5815 26.2749 33.1262 26.6298 34.8374 27.3532C37.9871 28.6773 39.335 29.5509 40.1732 30.7932C41.1091 32.1788 41.3186 34.3903 40.683 36.0352C39.9847 37.8234 38.2527 39.0383 35.815 39.4409C35.0608 39.5706 33.2729 39.5501 32.4627 39.4068C30.6959 39.0998 29.0196 38.2465 27.9859 37.1272C27.5808 36.6904 26.7915 35.5504 26.8405 35.4686C26.8615 35.4413 27.043 35.3321 27.2455 35.216C27.4411 35.1068 28.1815 34.6904 28.8798 34.2947L30.144 33.578L30.4093 33.9603C30.7796 34.5129 31.5896 35.2706 32.0786 35.5232C33.4823 36.2467 35.41 36.1444 36.3598 35.3116C36.7649 34.9499 36.9325 34.5745 36.9325 34.0216C36.9325 33.5234 36.8696 33.305 36.6042 32.9296C36.2622 32.4517 35.5637 32.0491 33.5801 31.2096C31.3103 30.2539 30.3325 29.6603 29.4386 28.7183C28.9218 28.1724 28.4328 27.2986 28.2303 26.5683C28.0627 25.9608 28.0206 24.4388 28.1535 23.8245C28.6215 21.6813 30.2767 20.1865 32.6652 19.7429C33.4404 19.5996 35.2423 19.6542 36.0037 19.8385Z" fill="white"/>
</svg>
