<svg width="57" height="50" viewBox="0 0 57 50" fill="none" xmlns="http://www.w3.org/2000/svg">
<path d="M46.6948 16.4677C46.1016 16.27 45.5083 16.0832 44.915 15.9074C45.0139 15.5009 45.1018 15.0944 45.1897 14.688C46.541 8.1401 45.6511 2.87765 42.6519 1.14181C39.7625 -0.517121 35.0493 1.20773 30.2812 5.36056C29.8088 5.76706 29.3474 6.19552 28.908 6.62399C28.6113 6.33835 28.3037 6.0527 27.9961 5.77804C22.9973 1.33957 17.9875 -0.528107 14.9883 1.21872C12.1099 2.88864 11.2529 7.84347 12.4614 14.0398C12.5823 14.655 12.7141 15.2592 12.8679 15.8745C12.1648 16.0722 11.4727 16.292 10.8245 16.5227C4.95776 18.5551 0.75 21.7631 0.75 25.081C0.75 28.5088 5.23242 31.9475 11.3298 34.0349C11.8242 34.1997 12.3186 34.3645 12.824 34.5073C12.6592 35.1665 12.5164 35.8147 12.3845 36.4848C11.231 42.5822 12.1318 47.4162 15.0103 49.0752C17.9766 50.789 22.9644 49.0312 27.8203 44.7795C28.2048 44.4389 28.5894 44.0874 28.9739 43.7138C29.4573 44.1862 29.9626 44.6367 30.468 45.0761C35.1702 49.1191 39.8174 50.7561 42.6848 49.0971C45.6511 47.3833 46.6179 42.1867 45.3655 35.8586C45.2666 35.3752 45.1567 34.8808 45.0359 34.3755C45.3875 34.2766 45.728 34.1667 46.0686 34.0568C52.4077 31.9585 57 28.5637 57 25.081C57 21.7522 52.6714 18.5222 46.6948 16.4677ZM31.8303 7.14035C35.9172 3.58078 39.7295 2.18552 41.4653 3.18527C43.322 4.25094 44.0361 8.55758 42.8716 14.2155C42.7947 14.5891 42.7178 14.9516 42.6189 15.3142C40.1799 14.7649 37.708 14.3694 35.2251 14.1496C33.7969 12.1062 32.2368 10.1506 30.5449 8.31589C30.9734 7.90939 31.3909 7.52487 31.8303 7.14035ZM19.1191 30.7829C19.6794 31.7387 20.2507 32.6945 20.855 33.6284C19.1411 33.4416 17.4382 33.167 15.7573 32.8044C16.2407 31.2224 16.845 29.5854 17.5481 27.9155C18.0535 28.8823 18.5698 29.8381 19.1191 30.7829ZM15.7903 17.5664C17.3723 17.2148 19.0532 16.9292 20.8 16.7094C20.2178 17.6213 19.6465 18.5551 19.1082 19.5C18.5698 20.4338 18.0425 21.3896 17.5481 22.3564C16.856 20.7194 16.2737 19.1154 15.7903 17.5664ZM18.8005 25.136C19.5256 23.6198 20.3167 22.1367 21.1516 20.6755C21.9866 19.2143 22.8875 17.7971 23.8323 16.4018C25.4802 16.281 27.1611 16.2151 28.875 16.2151C30.5889 16.2151 32.2808 16.281 33.9177 16.4018C34.8516 17.7861 35.7415 19.2033 36.5874 20.6535C37.4333 22.1037 38.2244 23.5869 38.9714 25.092C38.2354 26.6081 37.4443 28.1023 36.5984 29.5744C35.7634 31.0356 34.8735 32.4528 33.9397 33.8591C32.3027 33.9799 30.5999 34.0349 28.875 34.0349C27.1501 34.0349 25.4802 33.9799 23.8652 33.8811C22.9094 32.4858 22.0085 31.0576 21.1626 29.5964C20.3167 28.1352 19.5366 26.6521 18.8005 25.136ZM38.6418 30.7609C39.2021 29.7942 39.7295 28.8164 40.2458 27.8276C40.949 29.4206 41.5642 31.0356 42.1025 32.6945C40.3997 33.0791 38.6748 33.3757 36.939 33.5734C37.5322 32.6506 38.0925 31.7058 38.6418 30.7609ZM40.2239 22.3564C39.7075 21.3896 39.1802 20.4228 38.6309 19.478C38.0925 18.5442 37.5322 17.6213 36.95 16.7094C38.7188 16.9292 40.4106 17.2258 41.9927 17.5883C41.4873 19.2143 40.894 20.7964 40.2239 22.3564ZM28.897 9.99679C30.0505 11.2492 31.1382 12.5676 32.1489 13.9299C29.9736 13.831 27.7874 13.831 25.6121 13.9299C26.6887 12.5127 27.7983 11.1943 28.897 9.99679ZM16.1528 3.26218C17.9985 2.18552 22.0964 3.7236 26.4141 7.54684C26.6887 7.78854 26.9634 8.05221 27.249 8.31589C25.5461 10.1506 23.9751 12.1062 22.5359 14.1496C20.053 14.3694 17.592 14.7539 15.1531 15.2922C15.0103 14.7319 14.8894 14.1606 14.7686 13.5893C13.7358 8.27194 14.417 4.26193 16.1528 3.26218ZM13.4612 32.2221C12.9998 32.0903 12.5493 31.9475 12.0989 31.7937C9.75879 31.0576 7.1001 29.893 5.17749 28.3659C4.06787 27.5969 3.3208 26.4104 3.11206 25.081C3.11206 23.0705 6.58374 20.4997 11.5935 18.7529C12.2197 18.5332 12.8569 18.3354 13.4941 18.1486C14.2412 20.5327 15.1421 22.8728 16.1858 25.136C15.1311 27.4321 14.2192 29.8051 13.4612 32.2221ZM26.2712 42.9887C24.4585 44.6477 22.3601 45.966 20.075 46.8669C18.8555 47.4492 17.4492 47.5041 16.1968 47.0097C14.45 45.999 13.7249 42.1208 14.7136 36.9023C14.8345 36.2871 14.9663 35.6718 15.1201 35.0676C17.5811 35.5949 20.064 35.9575 22.5798 36.1442C24.03 38.1987 25.623 40.1652 27.3259 42.011C26.9744 42.3515 26.6228 42.6811 26.2712 42.9887ZM28.9629 40.3191C27.8423 39.1106 26.7217 37.7702 25.634 36.331C26.6887 36.375 27.7764 36.3969 28.875 36.3969C30.0066 36.3969 31.1162 36.375 32.2148 36.32C31.2041 37.7153 30.1165 39.0446 28.9629 40.3191ZM43.322 43.615C43.2231 44.9553 42.564 46.2077 41.5093 47.0537C39.7625 48.0644 36.0381 46.7461 32.0171 43.2963C31.5557 42.9008 31.0942 42.4724 30.6218 42.0329C32.3027 40.1762 33.8518 38.2097 35.2581 36.1442C37.7739 35.9355 40.2788 35.551 42.7507 34.9907C42.8606 35.4411 42.9595 35.8916 43.0474 36.331C43.5857 38.7041 43.6736 41.176 43.322 43.615ZM45.3215 31.8046C45.0139 31.9035 44.7063 32.0024 44.3877 32.0903C43.6187 29.6953 42.6738 27.3552 41.5862 25.081C42.6409 22.8398 43.5308 20.5327 44.2778 18.1706C44.8491 18.3354 45.3984 18.5112 45.9258 18.687C51.0454 20.4448 54.6379 23.0595 54.6379 25.059C54.6379 27.2124 50.8037 29.9919 45.3215 31.8046ZM28.875 30.1567C31.6545 30.1567 33.9067 27.9045 33.9067 25.125C33.9067 22.3454 31.6545 20.0932 28.875 20.0932C26.0955 20.0932 23.8433 22.3454 23.8433 25.125C23.8433 27.9045 26.0955 30.1567 28.875 30.1567Z" fill="#61DAFB"/>
</svg>
