<svg width="51" height="31" viewBox="0 0 51 31" fill="none" xmlns="http://www.w3.org/2000/svg">
<path d="M25.5 0.5C18.8334 0.5 14.6666 3.8334 13 10.5C15.5 7.1666 18.4166 5.9166 21.75 6.75C23.6518 7.22539 25.0111 8.60527 26.5158 10.1324C28.967 12.6205 31.8037 15.5 38 15.5C44.6666 15.5 48.8334 12.1666 50.5 5.5C48 8.8334 45.0834 10.0834 41.75 9.25C39.8482 8.77461 38.4889 7.39473 36.9842 5.86758C34.533 3.37949 31.6963 0.5 25.5 0.5ZM13 15.5C6.3334 15.5 2.1666 18.8334 0.5 25.5C3 22.1666 5.9166 20.9166 9.25 21.75C11.1518 22.2254 12.5111 23.6053 14.0158 25.1324C16.467 27.6205 19.3037 30.5 25.5 30.5C32.1666 30.5 36.3334 27.1666 38 20.5C35.5 23.8334 32.5834 25.0834 29.25 24.25C27.3482 23.7746 25.9889 22.3947 24.4842 20.8676C22.033 18.3795 19.1963 15.5 13 15.5Z" fill="url(#paint0_linear_308_203)"/>
<defs>
<linearGradient id="paint0_linear_308_203" x1="-0.889" y1="10.1" x2="42.2942" y2="34.9987" gradientUnits="userSpaceOnUse">
<stop stop-color="#2298BD"/>
<stop offset="1" stop-color="#0ED7B5"/>
</linearGradient>
</defs>
</svg>
