<svg width="38" height="53" viewBox="0 0 38 53" fill="none" xmlns="http://www.w3.org/2000/svg">
<path fill-rule="evenodd" clip-rule="evenodd" d="M26.9262 1.56558C27.3549 2.0979 27.5737 2.81611 28.011 4.25279L37.5649 35.6372C33.9763 33.7749 30.1246 32.4709 26.1427 31.7702L19.9222 10.7493C19.8726 10.5816 19.77 10.4345 19.6299 10.33C19.4897 10.2254 19.3195 10.169 19.1446 10.1693C18.9698 10.1695 18.7997 10.2264 18.6599 10.3313C18.52 10.4363 18.4179 10.5837 18.3687 10.7515L12.2236 31.7596C8.22375 32.457 4.35434 33.7631 0.75 35.6323L10.3507 4.24571C10.7894 2.81148 11.0087 2.09464 11.4376 1.56313C11.8161 1.094 12.3085 0.729627 12.8678 0.504733C13.5013 0.25 14.2514 0.25 15.7512 0.25H22.6083C24.11 0.25 24.8609 0.25 25.495 0.505277C26.0546 0.731036 26.5473 1.09601 26.9262 1.56558Z" fill="black"/>
<path fill-rule="evenodd" clip-rule="evenodd" d="M28.0693 37.1307C26.4944 38.4776 23.3507 39.3961 19.7298 39.3961C15.2856 39.3961 11.5606 38.0125 10.5719 36.1515C10.2187 37.2183 10.1395 38.4386 10.1395 39.2184C10.1395 39.2184 9.90651 43.047 12.5695 45.7097C12.5695 45.3809 12.6343 45.0554 12.7602 44.7517C12.886 44.4479 13.0705 44.172 13.303 43.9395C13.5355 43.7071 13.8115 43.5227 14.1152 43.3969C14.419 43.2711 14.7445 43.2064 15.0733 43.2064C17.4429 43.2064 17.4402 45.2737 17.4383 46.9512L17.438 47.1009C17.438 49.6469 18.9942 51.8295 21.2073 52.7499C20.8667 52.0488 20.6902 51.2793 20.6913 50.4998C20.6913 48.0714 22.1168 47.1671 23.7737 46.116C25.0922 45.28 26.557 44.3511 27.5664 42.4877C28.11 41.4838 28.3938 40.3599 28.3921 39.2184C28.3927 38.5101 28.2839 37.806 28.0693 37.131V37.1307Z" fill="#FF5D01"/>
<path fill-rule="evenodd" clip-rule="evenodd" d="M28.0693 37.1307C26.4944 38.4776 23.3507 39.3961 19.7298 39.3961C15.2856 39.3961 11.5606 38.0125 10.5719 36.1515C10.2187 37.2183 10.1395 38.4386 10.1395 39.2184C10.1395 39.2184 9.90651 43.047 12.5695 45.7097C12.5695 45.3809 12.6343 45.0554 12.7602 44.7517C12.886 44.4479 13.0705 44.172 13.303 43.9395C13.5355 43.7071 13.8115 43.5227 14.1152 43.3969C14.419 43.2711 14.7445 43.2064 15.0733 43.2064C17.4429 43.2064 17.4402 45.2737 17.4383 46.9512L17.438 47.1009C17.438 49.6469 18.9942 51.8295 21.2073 52.7499C20.8667 52.0488 20.6902 51.2793 20.6913 50.4998C20.6913 48.0714 22.1168 47.1671 23.7737 46.116C25.0922 45.28 26.557 44.3511 27.5664 42.4877C28.11 41.4838 28.3938 40.3599 28.3921 39.2184C28.3927 38.5101 28.2839 37.806 28.0693 37.131V37.1307Z" fill="url(#paint0_linear_308_85)"/>
<defs>
<linearGradient id="paint0_linear_308_85" x1="35.1608" y1="29.3468" x2="27.1531" y2="46.1099" gradientUnits="userSpaceOnUse">
<stop stop-color="#FF1639"/>
<stop offset="1" stop-color="#FF1639" stop-opacity="0"/>
</linearGradient>
</defs>
</svg>
