<svg width="50" height="50" viewBox="0 0 50 50" fill="none" xmlns="http://www.w3.org/2000/svg">
<path d="M44.2109 24.875H31.9062V28.3906H40.3438C39.7404 30.998 38.4902 33.4114 36.7084 35.4083C34.9266 37.4052 32.6705 38.9212 30.1484 39.8164L9.93359 19.6015C11.0256 16.5129 13.0495 13.8395 15.7258 11.9503C18.4022 10.0611 21.599 9.04931 24.875 9.05466C27.4146 9.07254 29.9146 9.68623 32.1739 10.8464C34.4331 12.0065 36.3885 13.6808 37.8828 15.7344L40.5195 13.4492C38.3262 10.4527 35.3159 8.1516 31.8489 6.82135C28.3818 5.49109 24.6049 5.188 20.9701 5.94834C17.3353 6.70868 13.9966 8.50025 11.3534 11.1086C8.71032 13.7171 6.87475 17.0318 6.06641 20.6562L29.2695 43.8594C33.5078 42.7908 37.2727 40.3484 39.9759 36.9137C42.6791 33.4791 44.1684 29.2456 44.2109 24.875ZM5.53906 25.0508C5.54465 27.5392 6.04481 30.0017 7.01046 32.2951C7.97612 34.5886 9.38801 36.6672 11.1641 38.4101C14.7039 41.9694 19.5038 43.9904 24.5234 44.0351L5.53906 25.0508Z" fill="white"/>
<path d="M24.875 0.265625C20.0077 0.265625 15.2498 1.70894 11.2028 4.41305C7.15578 7.11717 4.00154 10.9606 2.13891 15.4574C0.276288 19.9542 -0.21106 24.9023 0.738498 29.6761C1.68806 34.4498 4.03187 38.8348 7.47355 42.2765C10.9152 45.7181 15.3002 48.062 20.074 49.0115C24.8477 49.9611 29.7958 49.4737 34.2926 47.6111C38.7894 45.7485 42.6328 42.5942 45.337 38.5472C48.0411 34.5002 49.4844 29.7423 49.4844 24.875C49.4654 18.354 46.8665 12.1056 42.2555 7.49455C37.6444 2.88351 31.396 0.284639 24.875 0.265625ZM11.1641 38.5859C7.60477 35.0461 5.58377 30.2462 5.53907 25.2266L24.6992 44.2109C19.6373 44.121 14.7988 42.1102 11.1641 38.5859ZM29.0938 43.6836L6.06642 20.6562C6.87476 17.0318 8.71033 13.7171 11.3535 11.1087C13.9966 8.50027 17.3353 6.7087 20.9701 5.94836C24.6049 5.18802 28.3818 5.49111 31.8489 6.82137C35.3159 8.15162 38.3262 10.4527 40.5195 13.4492L37.8828 15.7344C36.3885 13.6808 34.4331 12.0066 32.1739 10.8464C29.9147 9.68626 27.4147 9.07256 24.875 9.05469C21.6051 9.07473 18.4198 10.0964 15.7484 11.9822C13.0769 13.8679 11.0475 16.5271 9.9336 19.6016L30.1484 39.8164C32.6705 38.9212 34.9266 37.4052 36.7084 35.4083C38.4902 33.4115 39.7405 30.998 40.3438 28.3906H31.9063V24.875H44.2109C44.1872 29.257 42.6798 33.5018 39.9346 36.9174C37.1893 40.3329 33.3681 42.7179 29.0938 43.6836Z" fill="#663399"/>
</svg>
