<svg width="25" height="53" viewBox="0 0 25 53" fill="none" xmlns="http://www.w3.org/2000/svg">
<path d="M18.8054 50.7327L19.3002 42.4878L20.6664 40.1555C20.6664 40.1555 17.5568 41.4276 12.3508 41.4276C7.14469 41.4276 4.0822 40.179 4.0822 40.179L5.6134 42.7232L6.15507 50.7327C6.15507 51.5914 8.98688 52.2874 12.4803 52.2874C15.9735 52.2874 18.8054 51.5914 18.8054 50.7327ZM17.2445 12.2299L18.2831 8.12472L24.0345 2.07287L22.5187 0.781738L16.4296 7.22847L15.2237 12.1331C14.3162 12.1026 13.4081 12.0875 12.5 12.0877C6.08715 12.0877 0.888428 12.8186 0.888428 13.72C0.888428 14.6214 6.08715 15.3522 12.5 15.3522C18.9129 15.3522 24.1115 14.6214 24.1115 13.72C24.1115 13.0562 21.292 12.4849 17.2445 12.2299Z" fill="#D34A47"/>
<path d="M16.6398 14.5275C16.6398 14.5275 16.4149 14.5779 15.7532 14.5807C15.0914 14.5834 14.6214 14.5764 14.4343 14.4059C14.3839 14.3602 14.3564 14.2693 14.3567 14.2077C14.3572 14.0906 14.4404 14.0215 14.5463 13.9783L14.6465 14.1355C14.6029 14.1505 14.578 14.1683 14.5779 14.1873C14.5776 14.2763 15.2546 14.3372 15.7725 14.3306C16.2905 14.3242 16.9163 14.2816 16.9169 14.1939C16.9169 14.1673 16.8695 14.1423 16.7872 14.1226L16.887 13.9666C17.0212 14.0082 17.1383 14.0887 17.1381 14.228C17.1368 14.4649 16.8354 14.5009 16.6398 14.5275Z" fill="white"/>
<path d="M24.0224 2.08243C24.167 1.9154 23.9475 1.48815 23.5322 1.12828C23.1167 0.768597 22.6627 0.612322 22.5178 0.779355C22.3731 0.946388 22.5927 1.37364 23.0081 1.73332C23.4234 2.0931 23.8777 2.24956 24.0224 2.08243ZM18.5279 30.5912C18.3916 29.2797 21.3964 27.3804 20.6253 27.3196C18.9652 27.4145 18.1389 29.265 17.3037 31.2033C16.9976 31.9136 15.9503 34.9426 15.2634 34.5697C14.5766 34.197 16.1537 31.7062 16.5957 30.2269C16.0857 30.6009 14.2152 32.0542 13.7332 30.6932C12.9582 31.3514 11.3022 31.708 11.489 29.979C11.0767 30.7094 10.1513 31.729 9.04064 31.3053C7.58202 30.749 9.88584 26.1026 10.4587 26.337C11.0316 26.5714 10.3431 27.6298 10.1627 28.0408C9.76612 28.9454 9.30797 30.0825 9.61404 30.3153C10.1384 30.7141 11.5653 28.8066 11.597 28.7647C11.8639 28.4121 12.6242 26.1055 13.237 26.3703C13.8498 26.6352 11.7085 29.6807 12.5091 30.2851C12.6706 30.4071 13.3313 30.2099 13.7332 29.7751C13.9932 29.4938 13.9037 28.8708 14.7705 26.8037C15.6374 24.7366 16.4099 22.1624 17.0043 22.3585C17.5988 22.5546 17.1088 23.8758 16.8956 24.3683C15.8948 26.68 14.1643 30.499 14.9804 30.2099C15.7965 29.9209 16.2215 29.9039 17.0207 28.9687C17.8198 28.0335 17.783 26.4931 18.3156 26.5259C18.8485 26.5587 18.759 27.0526 18.6298 27.4287C19.1541 26.8288 21.1149 25.5652 21.5883 26.8166C22.149 28.2981 18.7829 30.4381 19.6222 30.329C20.4405 30.2226 21.7661 29.3829 22.3322 28.6195L23.8902 14.6126C23.8902 14.6126 22.3224 15.9101 12.3484 15.9101C2.37428 15.9101 0.968719 14.6396 0.968719 14.6396L2.29514 27.4246C2.99919 25.4236 4.67107 21.3761 7.3064 21.512C8.50517 21.5738 10.1055 23.8821 8.73466 23.9603C8.15442 23.9933 8.09552 22.8081 7.40842 22.6341C6.91261 22.5084 6.22233 22.9115 5.77621 23.3482C4.88652 24.219 2.97302 27.6543 3.22585 29.3671C3.54797 31.5506 6.23901 28.6083 6.69434 27.7348C7.015 27.1194 7.23164 25.2963 7.93296 25.4876C8.63437 25.6789 7.87178 27.5603 7.36338 29.2238C6.79226 31.0917 6.49202 33.0621 5.77621 32.8355C5.0603 32.609 6.22643 30.1976 6.18421 29.7751C5.51134 30.3959 4.27172 31.9676 2.68582 31.1897L3.50959 39.129C3.50959 39.129 5.69898 40.8589 12.2943 40.8589C18.8897 40.8589 21.1601 39.156 21.1601 39.156L22.183 29.9604C21.3461 30.7753 18.6975 32.2224 18.5279 30.5912Z" fill="#D34A47"/>
</svg>
