<svg fill="none" xmlns="http://www.w3.org/2000/svg" viewBox="0 0 1611 592"><g opacity=".1" fill="#fff"><path d="M32.743 42.23h-17.6v29.2H.043V1.63h15.1v28.3h17.6V1.63h15.1v69.8h-15.1v-29.2ZM61.904 71.43V1.63h44.6v12.3h-29.6v16h28.6v12.3h-28.6v16.9h29.6v12.3h-44.6ZM123.065 71.43V1.63h15.1v57.5h30v12.3h-45.1ZM183.026 71.43V1.63h15.1v57.5h30v12.3h-45.1ZM263.787 72.63c-9.334 0-16.234-3.166-20.7-9.5-4.4-6.333-6.6-15.2-6.6-26.6 0-11.4 2.2-20.266 6.6-26.6 4.466-6.333 11.366-9.5 20.7-9.5 9.333 0 16.2 3.167 20.6 9.5 4.466 6.334 6.7 15.2 6.7 26.6 0 11.4-2.234 20.267-6.7 26.6-4.4 6.334-11.267 9.5-20.6 9.5Zm0-12.1c4.266 0 7.2-1.566 8.8-4.7 1.666-3.2 2.5-7.633 2.5-13.3v-12.1c0-5.6-.834-9.966-2.5-13.1-1.6-3.2-4.534-4.8-8.8-4.8-4.267 0-7.234 1.6-8.9 4.8-1.6 3.134-2.4 7.5-2.4 13.1v12.2c0 5.6.8 10 2.4 13.2 1.666 3.134 4.633 4.7 8.9 4.7ZM410.316 71.43l-4.3-69.8h12.9l2 41.8.6 13.2h.9l6-39.8h13.5l6 39.8h.9l.6-12.8 2-42.2h12.4l-4.3 69.8h-19l-5.1-38.5h-1l-5.1 38.5h-19ZM494.877 72.63c-9.334 0-16.234-3.166-20.7-9.5-4.4-6.333-6.6-15.2-6.6-26.6 0-11.4 2.2-20.266 6.6-26.6 4.466-6.333 11.366-9.5 20.7-9.5 9.333 0 16.2 3.167 20.6 9.5 4.466 6.334 6.7 15.2 6.7 26.6 0 11.4-2.234 20.267-6.7 26.6-4.4 6.334-11.267 9.5-20.6 9.5Zm0-12.1c4.266 0 7.2-1.566 8.8-4.7 1.666-3.2 2.5-7.633 2.5-13.3v-12.1c0-5.6-.834-9.966-2.5-13.1-1.6-3.2-4.534-4.8-8.8-4.8-4.267 0-7.234 1.6-8.9 4.8-1.6 3.134-2.4 7.5-2.4 13.1v12.2c0 5.6.8 10 2.4 13.2 1.666 3.134 4.633 4.7 8.9 4.7ZM547.237 71.43h-14.8V1.63h27c3.4 0 6.434.534 9.1 1.6 2.667 1 4.9 2.467 6.7 4.4 1.867 1.934 3.267 4.267 4.2 7 .934 2.734 1.4 5.8 1.4 9.2 0 4.934-1.066 9.167-3.2 12.7-2.133 3.534-5.166 5.867-9.1 7l13.7 27.9h-16.4l-11.7-25.9h-6.9v25.9Zm8.6-37.5c3.534 0 5.967-.666 7.3-2 1.4-1.333 2.1-3.533 2.1-6.6v-3c0-3.066-.7-5.266-2.1-6.6-1.333-1.333-3.766-2-7.3-2h-8.6v20.2h8.6ZM593.998 71.43V1.63h15.1v57.5h30v12.3h-45.1ZM651.159 1.63h22.5c9.4 0 16.367 3 20.9 9 4.534 6 6.8 14.634 6.8 25.9 0 11.267-2.266 19.9-6.8 25.9-4.533 6-11.5 9-20.9 9h-22.5V1.63Zm21.5 58c4.467 0 7.734-1.433 9.8-4.3 2.067-2.866 3.1-7.033 3.1-12.5v-12.7c0-5.4-1.033-9.533-3.1-12.4-2.066-2.866-5.333-4.3-9.8-4.3h-6.7v46.2h6.7ZM805.6 71.43V1.63h46.3v12.3h-31.3v16h28v12.3h-28v29.2h-15ZM879.961 71.43h-14.8V1.63h27c3.4 0 6.433.534 9.1 1.6 2.667 1 4.9 2.467 6.7 4.4 1.867 1.934 3.267 4.267 4.2 7 .933 2.734 1.4 5.8 1.4 9.2 0 4.934-1.067 9.167-3.2 12.7-2.133 3.534-5.167 5.867-9.1 7l13.7 27.9h-16.4l-11.7-25.9h-6.9v25.9Zm8.6-37.5c3.533 0 5.967-.666 7.3-2 1.4-1.333 2.1-3.533 2.1-6.6v-3c0-3.066-.7-5.266-2.1-6.6-1.333-1.333-3.767-2-7.3-2h-8.6v20.2h8.6ZM947.522 72.63c-9.333 0-16.233-3.166-20.7-9.5-4.4-6.333-6.6-15.2-6.6-26.6 0-11.4 2.2-20.266 6.6-26.6 4.467-6.333 11.367-9.5 20.7-9.5 9.333 0 16.2 3.167 20.6 9.5 4.466 6.334 6.7 15.2 6.7 26.6 0 11.4-2.234 20.267-6.7 26.6-4.4 6.334-11.267 9.5-20.6 9.5Zm0-12.1c4.267 0 7.2-1.566 8.8-4.7 1.667-3.2 2.5-7.633 2.5-13.3v-12.1c0-5.6-.833-9.966-2.5-13.1-1.6-3.2-4.533-4.8-8.8-4.8s-7.234 1.6-8.9 4.8c-1.6 3.134-2.4 7.5-2.4 13.1v12.2c0 5.6.8 10 2.4 13.2 1.666 3.134 4.633 4.7 8.9 4.7ZM997.483 25.03h-1.1v46.4h-12.8V1.63h17.997l15.9 46.4h1.1V1.63h12.8v69.8h-18l-15.897-46.4ZM1074.94 13.93v57.5h-15v-57.5h-20.1V1.63h55.2v12.3h-20.1ZM1111.4 48.03v-14.2h32v14.2h-32ZM1165.37 71.43V1.63h44.6v12.3h-29.6v16h28.6v12.3h-28.6v16.9h29.6v12.3h-44.6ZM1237.33 25.03h-1.1v46.4h-12.8V1.63h18l15.9 46.4h1.1V1.63h12.8v69.8h-18l-15.9-46.4ZM1283.69 1.63h22.5c9.4 0 16.36 3 20.9 9 4.53 6 6.8 14.634 6.8 25.9 0 11.267-2.27 19.9-6.8 25.9-4.54 6-11.5 9-20.9 9h-22.5V1.63Zm21.5 58c4.46 0 7.73-1.433 9.8-4.3 2.06-2.866 3.1-7.033 3.1-12.5v-12.7c0-5.4-1.04-9.533-3.1-12.4-2.07-2.866-5.34-4.3-9.8-4.3h-6.7v46.2h6.7ZM1436.91 71.43V1.63h46.3v12.3h-31.3v16h28v12.3h-28v29.2h-15ZM1518.87 72.63c-9.33 0-16.23-3.166-20.7-9.5-4.4-6.333-6.6-15.2-6.6-26.6 0-11.4 2.2-20.266 6.6-26.6 4.47-6.333 11.37-9.5 20.7-9.5s16.2 3.167 20.6 9.5c4.47 6.334 6.7 15.2 6.7 26.6 0 11.4-2.23 20.267-6.7 26.6-4.4 6.334-11.27 9.5-20.6 9.5Zm0-12.1c4.27 0 7.2-1.566 8.8-4.7 1.67-3.2 2.5-7.633 2.5-13.3v-12.1c0-5.6-.83-9.966-2.5-13.1-1.6-3.2-4.53-4.8-8.8-4.8-4.27 0-7.23 1.6-8.9 4.8-1.6 3.134-2.4 7.5-2.4 13.1v12.2c0 5.6.8 10 2.4 13.2 1.67 3.134 4.63 4.7 8.9 4.7ZM1578.83 72.63c-9.33 0-16.23-3.166-20.7-9.5-4.4-6.333-6.6-15.2-6.6-26.6 0-11.4 2.2-20.266 6.6-26.6 4.47-6.333 11.37-9.5 20.7-9.5s16.2 3.167 20.6 9.5c4.47 6.334 6.7 15.2 6.7 26.6 0 11.4-2.23 20.267-6.7 26.6-4.4 6.334-11.27 9.5-20.6 9.5Zm0-12.1c4.27 0 7.2-1.566 8.8-4.7 1.67-3.2 2.5-7.633 2.5-13.3v-12.1c0-5.6-.83-9.966-2.5-13.1-1.6-3.2-4.53-4.8-8.8-4.8-4.27 0-7.23 1.6-8.9 4.8-1.6 3.134-2.4 7.5-2.4 13.1v12.2c0 5.6.8 10 2.4 13.2 1.67 3.134 4.63 4.7 8.9 4.7ZM16.343 201.431h-14.8v-69.8h27c3.4 0 6.433.533 9.1 1.6 2.667 1 4.9 2.466 6.7 4.4 1.867 1.933 3.267 4.266 4.2 7 .933 2.733 1.4 5.8 1.4 9.2 0 4.933-1.067 9.166-3.2 12.7-2.133 3.533-5.167 5.866-9.1 7l13.7 27.9h-16.4l-11.7-25.9h-6.9v25.9Zm8.6-37.5c3.533 0 5.967-.667 7.3-2 1.4-1.334 2.1-3.534 2.1-6.6v-3c0-3.067-.7-5.267-2.1-6.6-1.333-1.334-3.767-2-7.3-2h-8.6v20.2h8.6ZM61.904 201.431v-69.8h44.6v12.3h-29.6v16h28.6v12.3h-28.6v16.9h29.6v12.3h-44.6ZM157.365 201.431l-4.4-16.8h-19.1l-4.3 16.8h-15.2l18.9-69.8h21.2l18.9 69.8h-16Zm-13.5-55.3h-.8l-6.8 26.4h14.4l-6.8-26.4ZM205.426 202.631c-9.334 0-16.267-3.134-20.8-9.4-4.467-6.334-6.7-15.234-6.7-26.7 0-11.467 2.233-20.334 6.7-26.6 4.533-6.334 11.466-9.5 20.8-9.5 3.6 0 6.766.5 9.5 1.5 2.8.933 5.2 2.266 7.2 4 2 1.733 3.633 3.833 4.9 6.3 1.333 2.466 2.366 5.233 3.1 8.3l-14 3.4c-.4-1.667-.867-3.2-1.4-4.6-.534-1.4-1.234-2.6-2.1-3.6-.8-1-1.834-1.767-3.1-2.3-1.2-.6-2.667-.9-4.4-.9-4.067 0-6.967 1.6-8.7 4.8-1.667 3.133-2.5 7.5-2.5 13.1v12.2c0 5.6.833 10 2.5 13.2 1.733 3.133 4.633 4.7 8.7 4.7 3.466 0 5.966-1.067 7.5-3.2 1.6-2.134 2.766-4.867 3.5-8.2l14 3.4c-.734 3.066-1.767 5.833-3.1 8.3-1.267 2.466-2.9 4.6-4.9 6.4-2 1.733-4.4 3.066-7.2 4-2.734.933-5.9 1.4-9.5 1.4ZM271.287 143.931v57.5h-15v-57.5h-20.1v-12.3h55.2v12.3h-20.1ZM410.177 131.631h24.5c6.867 0 12.1 1.666 15.7 5 3.667 3.333 5.5 7.866 5.5 13.6 0 4-1 7.2-3 9.6-1.933 2.333-4.733 4.033-8.4 5.1v.6c4.333 1.066 7.667 2.933 10 5.6 2.4 2.666 3.6 6.366 3.6 11.1 0 5.866-1.867 10.533-5.6 14-3.667 3.466-8.833 5.2-15.5 5.2h-26.8v-69.8Zm22.2 59.3c3.6 0 6.233-.6 7.9-1.8 1.667-1.2 2.5-3.4 2.5-6.6v-2.9c0-3.2-.833-5.4-2.5-6.6-1.667-1.2-4.3-1.8-7.9-1.8h-7.6v19.7h7.6Zm-1.9-29.7c3.533 0 6.1-.567 7.7-1.7 1.6-1.2 2.4-3.334 2.4-6.4v-3c0-3.067-.8-5.167-2.4-6.3-1.6-1.134-4.167-1.7-7.7-1.7h-5.7v19.1h5.7ZM505.938 201.431l-4.4-16.8h-19.1l-4.3 16.8h-15.2l18.9-69.8h21.2l18.9 69.8h-16Zm-13.5-55.3h-.8l-6.8 26.4h14.4l-6.8-26.4ZM544.799 201.431h-14.8v-69.8h27c3.4 0 6.433.533 9.1 1.6 2.667 1 4.9 2.466 6.7 4.4 1.867 1.933 3.267 4.266 4.2 7 .933 2.733 1.4 5.8 1.4 9.2 0 4.933-1.067 9.166-3.2 12.7-2.133 3.533-5.167 5.866-9.1 7l13.7 27.9h-16.4l-11.7-25.9h-6.9v25.9Zm8.6-37.5c3.533 0 5.967-.667 7.3-2 1.4-1.334 2.1-3.534 2.1-6.6v-3c0-3.067-.7-5.267-2.1-6.6-1.333-1.334-3.767-2-7.3-2h-8.6v20.2h8.6ZM742.189 131.631v50.3c0 3.133-.566 6-1.699 8.6a17.533 17.533 0 0 1-4.701 6.5c-2 1.8-4.433 3.2-7.299 4.2-2.867.933-6.067 1.4-9.601 1.4-7.133 0-12.666-1.767-16.6-5.3-3.866-3.6-6.333-8.3-7.4-14.1l14.2-2.9c.534 3 1.534 5.433 3 7.3 1.534 1.866 3.8 2.8 6.8 2.8 2.534 0 4.5-.8 5.9-2.4 1.467-1.667 2.201-4.2 2.201-7.6v-36.5h-23v-12.3h38.199ZM794.55 201.431l-4.4-16.8h-19.1l-4.3 16.8h-15.2l18.9-69.8h21.2l18.9 69.8h-16Zm-13.5-55.3h-.8l-6.8 26.4h14.4l-6.8-26.4ZM830.411 201.431l-18.5-69.8h16.7l8.2 35.5 4.1 20.1h.8l4.2-20.1 8.3-35.5h15.9l-18.5 69.8h-21.2ZM914.472 201.431l-4.4-16.8h-19.1l-4.3 16.8h-15.2l18.9-69.8h21.2l18.9 69.8h-16Zm-13.5-55.3h-.8l-6.8 26.4h14.4l-6.8-26.4ZM959.833 202.631c-5.866 0-10.966-.967-15.3-2.9-4.333-1.934-7.833-4.567-10.5-7.9l8.7-9.6c2.534 2.8 5.3 4.866 8.3 6.2 3.067 1.333 6.167 2 9.3 2 3.6 0 6.334-.8 8.2-2.4 1.867-1.6 2.8-3.9 2.8-6.9 0-2.467-.733-4.334-2.2-5.6-1.4-1.267-3.8-2.167-7.2-2.7l-7.3-1.2c-6.266-1.067-10.8-3.367-13.6-6.9-2.8-3.6-4.2-7.967-4.2-13.1 0-6.734 2.2-11.934 6.6-15.6 4.4-3.734 10.567-5.6 18.5-5.6 5.4 0 10.1.833 14.1 2.5 4 1.666 7.234 3.933 9.7 6.8l-8.5 9.5a19.549 19.549 0 0 0-6.6-4.8c-2.533-1.2-5.4-1.8-8.6-1.8-6.733 0-10.1 2.766-10.1 8.3 0 2.4.734 4.2 2.2 5.4 1.534 1.2 4 2.1 7.4 2.7l7.3 1.3c5.667 1 10.034 3.133 13.1 6.4 3.067 3.266 4.6 7.666 4.6 13.2 0 3.266-.566 6.3-1.7 9.1-1.133 2.733-2.833 5.133-5.1 7.2-2.266 2-5.066 3.566-8.4 4.7-3.266 1.133-7.1 1.7-11.5 1.7ZM1022.49 202.631c-9.33 0-16.26-3.134-20.8-9.4-4.463-6.334-6.696-15.234-6.696-26.7 0-11.467 2.233-20.334 6.696-26.6 4.54-6.334 11.47-9.5 20.8-9.5 3.6 0 6.77.5 9.5 1.5 2.8.933 5.2 2.266 7.2 4 2 1.733 3.64 3.833 4.9 6.3 1.34 2.466 2.37 5.233 3.1 8.3l-14 3.4c-.4-1.667-.86-3.2-1.4-4.6-.53-1.4-1.23-2.6-2.1-3.6-.8-1-1.83-1.767-3.1-2.3-1.2-.6-2.66-.9-4.4-.9-4.06 0-6.96 1.6-8.7 4.8-1.66 3.133-2.5 7.5-2.5 13.1v12.2c0 5.6.84 10 2.5 13.2 1.74 3.133 4.64 4.7 8.7 4.7 3.47 0 5.97-1.067 7.5-3.2 1.6-2.134 2.77-4.867 3.5-8.2l14 3.4c-.73 3.066-1.76 5.833-3.1 8.3-1.26 2.466-2.9 4.6-4.9 6.4-2 1.733-4.4 3.066-7.2 4-2.73.933-5.9 1.4-9.5 1.4ZM1073.26 201.431h-14.8v-69.8h27c3.4 0 6.43.533 9.1 1.6 2.66 1 4.9 2.466 6.7 4.4 1.86 1.933 3.26 4.266 4.2 7 .93 2.733 1.4 5.8 1.4 9.2 0 4.933-1.07 9.166-3.2 12.7-2.14 3.533-5.17 5.866-9.1 7l13.7 27.9h-16.4l-11.7-25.9h-6.9v25.9Zm8.6-37.5c3.53 0 5.96-.667 7.3-2 1.4-1.334 2.1-3.534 2.1-6.6v-3c0-3.067-.7-5.267-2.1-6.6-1.34-1.334-3.77-2-7.3-2h-8.6v20.2h8.6ZM1118.32 201.431v-11.1h15v-47.6h-15v-11.1h45v11.1h-15v47.6h15v11.1h-45ZM1178.38 201.431v-69.8h27c3.4 0 6.43.533 9.1 1.6 2.66 1 4.9 2.466 6.7 4.4 1.86 1.933 3.26 4.266 4.2 7 .93 2.733 1.4 5.8 1.4 9.2 0 3.4-.47 6.466-1.4 9.2-.94 2.733-2.34 5.066-4.2 7-1.8 1.933-4.04 3.433-6.7 4.5-2.67 1-5.7 1.5-9.1 1.5h-11.9v25.4h-15.1Zm15.1-37.5h8.1c3.53 0 5.96-.667 7.3-2 1.4-1.334 2.1-3.534 2.1-6.6v-3c0-3.067-.7-5.267-2.1-6.6-1.34-1.334-3.77-2-7.3-2h-8.1v20.2ZM1268.24 143.931v57.5h-15v-57.5h-20.1v-12.3h55.2v12.3h-20.1ZM1376.65 131.631h24.5c6.86 0 12.1 1.666 15.7 5 3.66 3.333 5.5 7.866 5.5 13.6 0 4-1 7.2-3 9.6-1.94 2.333-4.74 4.033-8.4 5.1v.6c4.33 1.066 7.66 2.933 10 5.6 2.4 2.666 3.6 6.366 3.6 11.1 0 5.866-1.87 10.533-5.6 14-3.67 3.466-8.84 5.2-15.5 5.2h-26.8v-69.8Zm22.2 59.3c3.6 0 6.23-.6 7.9-1.8 1.66-1.2 2.5-3.4 2.5-6.6v-2.9c0-3.2-.84-5.4-2.5-6.6-1.67-1.2-4.3-1.8-7.9-1.8h-7.6v19.7h7.6Zm-1.9-29.7c3.53 0 6.1-.567 7.7-1.7 1.6-1.2 2.4-3.334 2.4-6.4v-3c0-3.067-.8-5.167-2.4-6.3-1.6-1.134-4.17-1.7-7.7-1.7h-5.7v19.1h5.7ZM1436.91 201.431v-69.8h44.6v12.3h-29.6v16h28.6v12.3h-28.6v16.9h29.6v12.3h-44.6ZM1496.87 201.431v-69.8h44.6v12.3h-29.6v16h28.6v12.3h-28.6v16.9h29.6v12.3h-44.6ZM1571.23 201.431h-14.8v-69.8h27c3.4 0 6.43.533 9.1 1.6 2.67 1 4.9 2.466 6.7 4.4 1.87 1.933 3.27 4.266 4.2 7 .93 2.733 1.4 5.8 1.4 9.2 0 4.933-1.07 9.166-3.2 12.7-2.13 3.533-5.17 5.866-9.1 7l13.7 27.9h-16.4l-11.7-25.9h-6.9v25.9Zm8.6-37.5c3.53 0 5.97-.667 7.3-2 1.4-1.334 2.1-3.534 2.1-6.6v-3c0-3.067-.7-5.267-2.1-6.6-1.33-1.334-3.77-2-7.3-2h-8.6v20.2h8.6ZM1.543 331.431v-69.8h27c3.4 0 6.433.533 9.1 1.6 2.667 1 4.9 2.466 6.7 4.4 1.867 1.933 3.267 4.266 4.2 7 .933 2.733 1.4 5.8 1.4 9.2 0 3.4-.467 6.466-1.4 9.2-.933 2.733-2.333 5.066-4.2 7-1.8 1.933-4.033 3.433-6.7 4.5-2.667 1-5.7 1.5-9.1 1.5h-11.9v25.4h-15.1Zm15.1-37.5h8.1c3.533 0 5.967-.667 7.3-2 1.4-1.334 2.1-3.534 2.1-6.6v-3c0-3.067-.7-5.267-2.1-6.6-1.333-1.334-3.767-2-7.3-2h-8.1v20.2ZM61.904 331.431v-69.8h44.6v12.3h-29.6v16h28.6v12.3h-28.6v16.9h29.6v12.3h-44.6ZM136.265 331.431h-14.8v-69.8h27c3.4 0 6.433.533 9.1 1.6 2.667 1 4.9 2.466 6.7 4.4 1.866 1.933 3.267 4.266 4.2 7 .933 2.733 1.4 5.8 1.4 9.2 0 4.933-1.067 9.166-3.2 12.7-2.133 3.533-5.167 5.866-9.1 7l13.7 27.9h-16.4l-11.7-25.9h-6.9v25.9Zm8.6-37.5c3.533 0 5.967-.667 7.3-2 1.4-1.334 2.1-3.534 2.1-6.6v-3c0-3.067-.7-5.267-2.1-6.6-1.333-1.334-3.767-2-7.3-2h-8.6v20.2h8.6ZM181.826 331.431v-69.8h46.3v12.3h-31.3v16h28v12.3h-28v29.2h-15ZM263.787 332.631c-9.334 0-16.234-3.167-20.7-9.5-4.4-6.334-6.6-15.2-6.6-26.6 0-11.4 2.2-20.267 6.6-26.6 4.466-6.334 11.366-9.5 20.7-9.5 9.333 0 16.2 3.166 20.6 9.5 4.466 6.333 6.7 15.2 6.7 26.6 0 11.4-2.234 20.266-6.7 26.6-4.4 6.333-11.267 9.5-20.6 9.5Zm0-12.1c4.266 0 7.2-1.567 8.8-4.7 1.666-3.2 2.5-7.634 2.5-13.3v-12.1c0-5.6-.834-9.967-2.5-13.1-1.6-3.2-4.534-4.8-8.8-4.8-4.267 0-7.234 1.6-8.9 4.8-1.6 3.133-2.4 7.5-2.4 13.1v12.2c0 5.6.8 10 2.4 13.2 1.666 3.133 4.633 4.7 8.9 4.7ZM316.148 331.431h-14.8v-69.8h27c3.4 0 6.433.533 9.1 1.6 2.666 1 4.9 2.466 6.7 4.4 1.866 1.933 3.266 4.266 4.2 7 .933 2.733 1.4 5.8 1.4 9.2 0 4.933-1.067 9.166-3.2 12.7-2.134 3.533-5.167 5.866-9.1 7l13.7 27.9h-16.4l-11.7-25.9h-6.9v25.9Zm8.6-37.5c3.533 0 5.966-.667 7.3-2 1.4-1.334 2.1-3.534 2.1-6.6v-3c0-3.067-.7-5.267-2.1-6.6-1.334-1.334-3.767-2-7.3-2h-8.6v20.2h8.6ZM396.809 300.331l.8-19.5h-.9l-13 35.9-13-35.9h-.9l.8 19.5v31.1h-13v-69.8h17.7l8.6 23.5h.8l8.6-23.5h16.5v69.8h-13v-31.1ZM457.17 331.431l-4.4-16.8h-19.1l-4.3 16.8h-15.2l18.9-69.8h21.2l18.9 69.8h-16Zm-13.5-55.3h-.8l-6.8 26.4h14.4l-6.8-26.4ZM493.63 285.031h-1.1v46.4h-12.8v-69.8h18l15.9 46.4h1.1v-46.4h12.801v69.8H509.53l-15.9-46.4ZM565.191 332.631c-9.333 0-16.266-3.134-20.8-9.4-4.466-6.334-6.7-15.234-6.7-26.7 0-11.467 2.234-20.334 6.7-26.6 4.534-6.334 11.467-9.5 20.8-9.5 3.6 0 6.767.5 9.5 1.5 2.8.933 5.2 2.266 7.2 4 2 1.733 3.634 3.833 4.9 6.3 1.334 2.466 2.367 5.233 3.1 8.3l-14 3.4c-.4-1.667-.866-3.2-1.4-4.6-.533-1.4-1.233-2.6-2.1-3.6-.8-1-1.833-1.767-3.1-2.3-1.2-.6-2.666-.9-4.4-.9-4.066 0-6.966 1.6-8.7 4.8-1.666 3.133-2.5 7.5-2.5 13.1v12.2c0 5.6.834 10 2.5 13.2 1.734 3.133 4.634 4.7 8.7 4.7 3.467 0 5.967-1.067 7.5-3.2 1.6-2.134 2.767-4.867 3.5-8.2l14 3.4c-.733 3.066-1.766 5.833-3.1 8.3-1.266 2.466-2.9 4.6-4.9 6.4-2 1.733-4.4 3.066-7.2 4-2.733.933-5.9 1.4-9.5 1.4ZM601.552 331.431v-69.8h44.6v12.3h-29.6v16h28.6v12.3h-28.6v16.9h29.6v12.3h-44.6ZM756.974 331.431l-4.4-16.8h-19.1l-4.3 16.8h-15.2l18.9-69.8h21.2l18.9 69.8h-16Zm-13.5-55.3h-.8l-6.8 26.4h14.4l-6.8-26.4ZM782.835 331.431v-12.1h18.8v-46.8h-.9l-14.2 18.6-9.6-7.5 16.7-22h23v57.7h14.8v12.1h-48.6ZM842.796 331.431v-12.1h18.8v-46.8h-.9l-14.2 18.6-9.6-7.5 16.7-22h23v57.7h14.8v12.1h-48.6ZM915.857 331.431v-24.7l-22.1-45.1h16.7l7.4 16.2 5.4 13.7h.8l5.4-13.7 7.4-16.2h16.1l-22.1 45.1v24.7h-15ZM1050.78 273.931v57.5h-15v-57.5h-20.1v-12.3h55.2v12.3h-20.1ZM1095.74 331.431v-24.7l-22.1-45.1h16.7l7.4 16.2 5.4 13.7h.8l5.4-13.7 7.4-16.2h16.1l-22.1 45.1v24.7h-15ZM1140.8 331.431v-69.8h27c3.4 0 6.43.533 9.1 1.6 2.67 1 4.9 2.466 6.7 4.4 1.87 1.933 3.27 4.266 4.2 7 .93 2.733 1.4 5.8 1.4 9.2 0 3.4-.47 6.466-1.4 9.2-.93 2.733-2.33 5.066-4.2 7-1.8 1.933-4.03 3.433-6.7 4.5-2.67 1-5.7 1.5-9.1 1.5h-11.9v25.4h-15.1Zm15.1-37.5h8.1c3.53 0 5.97-.667 7.3-2 1.4-1.334 2.1-3.534 2.1-6.6v-3c0-3.067-.7-5.267-2.1-6.6-1.33-1.334-3.77-2-7.3-2h-8.1v20.2ZM1201.16 331.431v-69.8h44.6v12.3h-29.6v16h28.6v12.3h-28.6v16.9h29.6v12.3h-44.6ZM1282.02 332.631c-5.86 0-10.96-.967-15.3-2.9-4.33-1.934-7.83-4.567-10.5-7.9l8.7-9.6c2.54 2.8 5.3 4.866 8.3 6.2 3.07 1.333 6.17 2 9.3 2 3.6 0 6.34-.8 8.2-2.4 1.87-1.6 2.8-3.9 2.8-6.9 0-2.467-.73-4.334-2.2-5.6-1.4-1.267-3.8-2.167-7.2-2.7l-7.3-1.2c-6.26-1.067-10.8-3.367-13.6-6.9-2.8-3.6-4.2-7.967-4.2-13.1 0-6.734 2.2-11.934 6.6-15.6 4.4-3.734 10.57-5.6 18.5-5.6 5.4 0 10.1.833 14.1 2.5 4 1.666 7.24 3.933 9.7 6.8l-8.5 9.5a19.432 19.432 0 0 0-6.6-4.8c-2.53-1.2-5.4-1.8-8.6-1.8-6.73 0-10.1 2.766-10.1 8.3 0 2.4.74 4.2 2.2 5.4 1.54 1.2 4 2.1 7.4 2.7l7.3 1.3c5.67 1 10.04 3.133 13.1 6.4 3.07 3.266 4.6 7.666 4.6 13.2 0 3.266-.56 6.3-1.7 9.1-1.13 2.733-2.83 5.133-5.1 7.2-2.26 2-5.06 3.566-8.4 4.7-3.26 1.133-7.1 1.7-11.5 1.7ZM1344.68 332.631c-9.33 0-16.26-3.134-20.8-9.4-4.46-6.334-6.7-15.234-6.7-26.7 0-11.467 2.24-20.334 6.7-26.6 4.54-6.334 11.47-9.5 20.8-9.5 3.6 0 6.77.5 9.5 1.5 2.8.933 5.2 2.266 7.2 4 2 1.733 3.64 3.833 4.9 6.3 1.34 2.466 2.37 5.233 3.1 8.3l-14 3.4c-.4-1.667-.86-3.2-1.4-4.6-.53-1.4-1.23-2.6-2.1-3.6-.8-1-1.83-1.767-3.1-2.3-1.2-.6-2.66-.9-4.4-.9-4.06 0-6.96 1.6-8.7 4.8-1.66 3.133-2.5 7.5-2.5 13.1v12.2c0 5.6.84 10 2.5 13.2 1.74 3.133 4.64 4.7 8.7 4.7 3.47 0 5.97-1.067 7.5-3.2 1.6-2.134 2.77-4.867 3.5-8.2l14 3.4c-.73 3.066-1.76 5.833-3.1 8.3-1.26 2.466-2.9 4.6-4.9 6.4-2 1.733-4.4 3.066-7.2 4-2.73.933-5.9 1.4-9.5 1.4ZM1395.44 331.431h-14.8v-69.8h27c3.4 0 6.44.533 9.1 1.6 2.67 1 4.9 2.466 6.7 4.4 1.87 1.933 3.27 4.266 4.2 7 .94 2.733 1.4 5.8 1.4 9.2 0 4.933-1.06 9.166-3.2 12.7-2.13 3.533-5.16 5.866-9.1 7l13.7 27.9h-16.4l-11.7-25.9h-6.9v25.9Zm8.6-37.5c3.54 0 5.97-.667 7.3-2 1.4-1.334 2.1-3.534 2.1-6.6v-3c0-3.067-.7-5.267-2.1-6.6-1.33-1.334-3.76-2-7.3-2h-8.6v20.2h8.6ZM1440.51 331.431v-11.1h15v-47.6h-15v-11.1h45v11.1h-15v47.6h15v11.1h-45ZM1500.57 331.431v-69.8h27c3.4 0 6.43.533 9.1 1.6 2.66 1 4.9 2.466 6.7 4.4 1.86 1.933 3.26 4.266 4.2 7 .93 2.733 1.4 5.8 1.4 9.2 0 3.4-.47 6.466-1.4 9.2-.94 2.733-2.34 5.066-4.2 7-1.8 1.933-4.04 3.433-6.7 4.5-2.67 1-5.7 1.5-9.1 1.5h-11.9v25.4h-15.1Zm15.1-37.5h8.1c3.53 0 5.96-.667 7.3-2 1.4-1.334 2.1-3.534 2.1-6.6v-3c0-3.067-.7-5.267-2.1-6.6-1.34-1.334-3.77-2-7.3-2h-8.1v20.2ZM1590.43 273.931v57.5h-15v-57.5h-20.1v-12.3h55.2v12.3h-20.1ZM32.743 431.231h-17.6v29.2H.043v-69.8h15.1v28.3h17.6v-28.3h15.1v69.8h-15.1v-29.2ZM61.904 460.431v-69.8h44.6v12.3h-29.6v16h28.6v12.3h-28.6v16.9h29.6v12.3h-44.6ZM123.065 460.431v-69.8h15.1v57.5h30v12.3h-45.1ZM183.026 460.431v-69.8h15.1v57.5h30v12.3h-45.1ZM263.787 461.631c-9.334 0-16.234-3.167-20.7-9.5-4.4-6.334-6.6-15.2-6.6-26.6 0-11.4 2.2-20.267 6.6-26.6 4.466-6.334 11.366-9.5 20.7-9.5 9.333 0 16.2 3.166 20.6 9.5 4.466 6.333 6.7 15.2 6.7 26.6 0 11.4-2.234 20.266-6.7 26.6-4.4 6.333-11.267 9.5-20.6 9.5Zm0-12.1c4.266 0 7.2-1.567 8.8-4.7 1.666-3.2 2.5-7.634 2.5-13.3v-12.1c0-5.6-.834-9.967-2.5-13.1-1.6-3.2-4.534-4.8-8.8-4.8-4.267 0-7.234 1.6-8.9 4.8-1.6 3.133-2.4 7.5-2.4 13.1v12.2c0 5.6.8 10 2.4 13.2 1.666 3.133 4.633 4.7 8.9 4.7ZM410.316 460.431l-4.3-69.8h12.9l2 41.8.6 13.2h.9l6-39.8h13.5l6 39.8h.9l.6-12.8 2-42.2h12.4l-4.3 69.8h-19l-5.1-38.5h-1l-5.1 38.5h-19ZM494.877 461.631c-9.334 0-16.234-3.167-20.7-9.5-4.4-6.334-6.6-15.2-6.6-26.6 0-11.4 2.2-20.267 6.6-26.6 4.466-6.334 11.366-9.5 20.7-9.5 9.333 0 16.2 3.166 20.6 9.5 4.466 6.333 6.7 15.2 6.7 26.6 0 11.4-2.234 20.266-6.7 26.6-4.4 6.333-11.267 9.5-20.6 9.5Zm0-12.1c4.266 0 7.2-1.567 8.8-4.7 1.666-3.2 2.5-7.634 2.5-13.3v-12.1c0-5.6-.834-9.967-2.5-13.1-1.6-3.2-4.534-4.8-8.8-4.8-4.267 0-7.234 1.6-8.9 4.8-1.6 3.133-2.4 7.5-2.4 13.1v12.2c0 5.6.8 10 2.4 13.2 1.666 3.133 4.633 4.7 8.9 4.7ZM547.237 460.431h-14.8v-69.8h27c3.4 0 6.434.533 9.1 1.6 2.667 1 4.9 2.466 6.7 4.4 1.867 1.933 3.267 4.266 4.2 7 .934 2.733 1.4 5.8 1.4 9.2 0 4.933-1.066 9.166-3.2 12.7-2.133 3.533-5.166 5.866-9.1 7l13.7 27.9h-16.4l-11.7-25.9h-6.9v25.9Zm8.6-37.5c3.534 0 5.967-.667 7.3-2 1.4-1.334 2.1-3.534 2.1-6.6v-3c0-3.067-.7-5.267-2.1-6.6-1.333-1.334-3.766-2-7.3-2h-8.6v20.2h8.6ZM593.998 460.431v-69.8h15.1v57.5h30v12.3h-45.1ZM651.159 390.631h22.5c9.4 0 16.367 3 20.9 9 4.534 6 6.8 14.633 6.8 25.9 0 11.266-2.266 19.9-6.8 25.9-4.533 6-11.5 9-20.9 9h-22.5v-69.8Zm21.5 58c4.467 0 7.734-1.434 9.8-4.3 2.067-2.867 3.1-7.034 3.1-12.5v-12.7c0-5.4-1.033-9.534-3.1-12.4-2.066-2.867-5.333-4.3-9.8-4.3h-6.7v46.2h6.7ZM805.6 460.431v-69.8h46.3v12.3h-31.3v16h28v12.3h-28v29.2h-15ZM879.961 460.431h-14.8v-69.8h27c3.4 0 6.433.533 9.1 1.6 2.667 1 4.9 2.466 6.7 4.4 1.867 1.933 3.267 4.266 4.2 7 .933 2.733 1.4 5.8 1.4 9.2 0 4.933-1.067 9.166-3.2 12.7-2.133 3.533-5.167 5.866-9.1 7l13.7 27.9h-16.4l-11.7-25.9h-6.9v25.9Zm8.6-37.5c3.533 0 5.967-.667 7.3-2 1.4-1.334 2.1-3.534 2.1-6.6v-3c0-3.067-.7-5.267-2.1-6.6-1.333-1.334-3.767-2-7.3-2h-8.6v20.2h8.6ZM947.522 461.631c-9.333 0-16.233-3.167-20.7-9.5-4.4-6.334-6.6-15.2-6.6-26.6 0-11.4 2.2-20.267 6.6-26.6 4.467-6.334 11.367-9.5 20.7-9.5 9.333 0 16.2 3.166 20.6 9.5 4.466 6.333 6.7 15.2 6.7 26.6 0 11.4-2.234 20.266-6.7 26.6-4.4 6.333-11.267 9.5-20.6 9.5Zm0-12.1c4.267 0 7.2-1.567 8.8-4.7 1.667-3.2 2.5-7.634 2.5-13.3v-12.1c0-5.6-.833-9.967-2.5-13.1-1.6-3.2-4.533-4.8-8.8-4.8s-7.234 1.6-8.9 4.8c-1.6 3.133-2.4 7.5-2.4 13.1v12.2c0 5.6.8 10 2.4 13.2 1.666 3.133 4.633 4.7 8.9 4.7ZM997.483 414.031h-1.1v46.4h-12.8v-69.8h17.997l15.9 46.4h1.1v-46.4h12.8v69.8h-18l-15.897-46.4ZM1074.94 402.931v57.5h-15v-57.5h-20.1v-12.3h55.2v12.3h-20.1ZM1111.4 437.031v-14.2h32v14.2h-32ZM1165.37 460.431v-69.8h44.6v12.3h-29.6v16h28.6v12.3h-28.6v16.9h29.6v12.3h-44.6ZM1237.33 414.031h-1.1v46.4h-12.8v-69.8h18l15.9 46.4h1.1v-46.4h12.8v69.8h-18l-15.9-46.4ZM1283.69 390.631h22.5c9.4 0 16.36 3 20.9 9 4.53 6 6.8 14.633 6.8 25.9 0 11.266-2.27 19.9-6.8 25.9-4.54 6-11.5 9-20.9 9h-22.5v-69.8Zm21.5 58c4.46 0 7.73-1.434 9.8-4.3 2.06-2.867 3.1-7.034 3.1-12.5v-12.7c0-5.4-1.04-9.534-3.1-12.4-2.07-2.867-5.34-4.3-9.8-4.3h-6.7v46.2h6.7ZM1436.91 460.431v-69.8h46.3v12.3h-31.3v16h28v12.3h-28v29.2h-15ZM1518.87 461.631c-9.33 0-16.23-3.167-20.7-9.5-4.4-6.334-6.6-15.2-6.6-26.6 0-11.4 2.2-20.267 6.6-26.6 4.47-6.334 11.37-9.5 20.7-9.5s16.2 3.166 20.6 9.5c4.47 6.333 6.7 15.2 6.7 26.6 0 11.4-2.23 20.266-6.7 26.6-4.4 6.333-11.27 9.5-20.6 9.5Zm0-12.1c4.27 0 7.2-1.567 8.8-4.7 1.67-3.2 2.5-7.634 2.5-13.3v-12.1c0-5.6-.83-9.967-2.5-13.1-1.6-3.2-4.53-4.8-8.8-4.8-4.27 0-7.23 1.6-8.9 4.8-1.6 3.133-2.4 7.5-2.4 13.1v12.2c0 5.6.8 10 2.4 13.2 1.67 3.133 4.63 4.7 8.9 4.7ZM1578.83 461.631c-9.33 0-16.23-3.167-20.7-9.5-4.4-6.334-6.6-15.2-6.6-26.6 0-11.4 2.2-20.267 6.6-26.6 4.47-6.334 11.37-9.5 20.7-9.5s16.2 3.166 20.6 9.5c4.47 6.333 6.7 15.2 6.7 26.6 0 11.4-2.23 20.266-6.7 26.6-4.4 6.333-11.27 9.5-20.6 9.5Zm0-12.1c4.27 0 7.2-1.567 8.8-4.7 1.67-3.2 2.5-7.634 2.5-13.3v-12.1c0-5.6-.83-9.967-2.5-13.1-1.6-3.2-4.53-4.8-8.8-4.8-4.27 0-7.23 1.6-8.9 4.8-1.6 3.133-2.4 7.5-2.4 13.1v12.2c0 5.6.8 10 2.4 13.2 1.67 3.133 4.63 4.7 8.9 4.7ZM16.343 590.431h-14.8v-69.8h27c3.4 0 6.433.533 9.1 1.6 2.667 1 4.9 2.466 6.7 4.4 1.867 1.933 3.267 4.266 4.2 7 .933 2.733 1.4 5.8 1.4 9.2 0 4.933-1.067 9.166-3.2 12.7-2.133 3.533-5.167 5.866-9.1 7l13.7 27.9h-16.4l-11.7-25.9h-6.9v25.9Zm8.6-37.5c3.533 0 5.967-.667 7.3-2 1.4-1.334 2.1-3.534 2.1-6.6v-3c0-3.067-.7-5.267-2.1-6.6-1.333-1.334-3.767-2-7.3-2h-8.6v20.2h8.6ZM61.904 590.431v-69.8h44.6v12.3h-29.6v16h28.6v12.3h-28.6v16.9h29.6v12.3h-44.6ZM157.365 590.431l-4.4-16.8h-19.1l-4.3 16.8h-15.2l18.9-69.8h21.2l18.9 69.8h-16Zm-13.5-55.3h-.8l-6.8 26.4h14.4l-6.8-26.4ZM205.426 591.631c-9.334 0-16.267-3.134-20.8-9.4-4.467-6.334-6.7-15.234-6.7-26.7 0-11.467 2.233-20.334 6.7-26.6 4.533-6.334 11.466-9.5 20.8-9.5 3.6 0 6.766.5 9.5 1.5 2.8.933 5.2 2.266 7.2 4 2 1.733 3.633 3.833 4.9 6.3 1.333 2.466 2.366 5.233 3.1 8.3l-14 3.4c-.4-1.667-.867-3.2-1.4-4.6-.534-1.4-1.234-2.6-2.1-3.6-.8-1-1.834-1.767-3.1-2.3-1.2-.6-2.667-.9-4.4-.9-4.067 0-6.967 1.6-8.7 4.8-1.667 3.133-2.5 7.5-2.5 13.1v12.2c0 5.6.833 10 2.5 13.2 1.733 3.133 4.633 4.7 8.7 4.7 3.466 0 5.966-1.067 7.5-3.2 1.6-2.134 2.766-4.867 3.5-8.2l14 3.4c-.734 3.066-1.767 5.833-3.1 8.3-1.267 2.466-2.9 4.6-4.9 6.4-2 1.733-4.4 3.066-7.2 4-2.734.933-5.9 1.4-9.5 1.4ZM271.287 532.931v57.5h-15v-57.5h-20.1v-12.3h55.2v12.3h-20.1ZM410.177 520.631h24.5c6.867 0 12.1 1.666 15.7 5 3.667 3.333 5.5 7.866 5.5 13.6 0 4-1 7.2-3 9.6-1.933 2.333-4.733 4.033-8.4 5.1v.6c4.333 1.066 7.667 2.933 10 5.6 2.4 2.666 3.6 6.366 3.6 11.1 0 5.866-1.867 10.533-5.6 14-3.667 3.466-8.833 5.2-15.5 5.2h-26.8v-69.8Zm22.2 59.3c3.6 0 6.233-.6 7.9-1.8 1.667-1.2 2.5-3.4 2.5-6.6v-2.9c0-3.2-.833-5.4-2.5-6.6-1.667-1.2-4.3-1.8-7.9-1.8h-7.6v19.7h7.6Zm-1.9-29.7c3.533 0 6.1-.567 7.7-1.7 1.6-1.2 2.4-3.334 2.4-6.4v-3c0-3.067-.8-5.167-2.4-6.3-1.6-1.134-4.167-1.7-7.7-1.7h-5.7v19.1h5.7ZM505.938 590.431l-4.4-16.8h-19.1l-4.3 16.8h-15.2l18.9-69.8h21.2l18.9 69.8h-16Zm-13.5-55.3h-.8l-6.8 26.4h14.4l-6.8-26.4ZM544.799 590.431h-14.8v-69.8h27c3.4 0 6.433.533 9.1 1.6 2.667 1 4.9 2.466 6.7 4.4 1.867 1.933 3.267 4.266 4.2 7 .933 2.733 1.4 5.8 1.4 9.2 0 4.933-1.067 9.166-3.2 12.7-2.133 3.533-5.167 5.866-9.1 7l13.7 27.9h-16.4l-11.7-25.9h-6.9v25.9Zm8.6-37.5c3.533 0 5.967-.667 7.3-2 1.4-1.334 2.1-3.534 2.1-6.6v-3c0-3.067-.7-5.267-2.1-6.6-1.333-1.334-3.767-2-7.3-2h-8.6v20.2h8.6ZM742.189 520.631v50.3c0 3.133-.566 6-1.699 8.6a17.533 17.533 0 0 1-4.701 6.5c-2 1.8-4.433 3.2-7.299 4.2-2.867.933-6.067 1.4-9.601 1.4-7.133 0-12.666-1.767-16.6-5.3-3.866-3.6-6.333-8.3-7.4-14.1l14.2-2.9c.534 3 1.534 5.433 3 7.3 1.534 1.866 3.8 2.8 6.8 2.8 2.534 0 4.5-.8 5.9-2.4 1.467-1.667 2.201-4.2 2.201-7.6v-36.5h-23v-12.3h38.199ZM794.55 590.431l-4.4-16.8h-19.1l-4.3 16.8h-15.2l18.9-69.8h21.2l18.9 69.8h-16Zm-13.5-55.3h-.8l-6.8 26.4h14.4l-6.8-26.4ZM830.411 590.431l-18.5-69.8h16.7l8.2 35.5 4.1 20.1h.8l4.2-20.1 8.3-35.5h15.9l-18.5 69.8h-21.2ZM914.472 590.431l-4.4-16.8h-19.1l-4.3 16.8h-15.2l18.9-69.8h21.2l18.9 69.8h-16Zm-13.5-55.3h-.8l-6.8 26.4h14.4l-6.8-26.4ZM959.833 591.631c-5.866 0-10.966-.967-15.3-2.9-4.333-1.934-7.833-4.567-10.5-7.9l8.7-9.6c2.534 2.8 5.3 4.866 8.3 6.2 3.067 1.333 6.167 2 9.3 2 3.6 0 6.334-.8 8.2-2.4 1.867-1.6 2.8-3.9 2.8-6.9 0-2.467-.733-4.334-2.2-5.6-1.4-1.267-3.8-2.167-7.2-2.7l-7.3-1.2c-6.266-1.067-10.8-3.367-13.6-6.9-2.8-3.6-4.2-7.967-4.2-13.1 0-6.734 2.2-11.934 6.6-15.6 4.4-3.734 10.567-5.6 18.5-5.6 5.4 0 10.1.833 14.1 2.5 4 1.666 7.234 3.933 9.7 6.8l-8.5 9.5a19.549 19.549 0 0 0-6.6-4.8c-2.533-1.2-5.4-1.8-8.6-1.8-6.733 0-10.1 2.766-10.1 8.3 0 2.4.734 4.2 2.2 5.4 1.534 1.2 4 2.1 7.4 2.7l7.3 1.3c5.667 1 10.034 3.133 13.1 6.4 3.067 3.266 4.6 7.666 4.6 13.2 0 3.266-.566 6.3-1.7 9.1-1.133 2.733-2.833 5.133-5.1 7.2-2.266 2-5.066 3.566-8.4 4.7-3.266 1.133-7.1 1.7-11.5 1.7ZM1022.49 591.631c-9.33 0-16.26-3.134-20.8-9.4-4.463-6.334-6.696-15.234-6.696-26.7 0-11.467 2.233-20.334 6.696-26.6 4.54-6.334 11.47-9.5 20.8-9.5 3.6 0 6.77.5 9.5 1.5 2.8.933 5.2 2.266 7.2 4 2 1.733 3.64 3.833 4.9 6.3 1.34 2.466 2.37 5.233 3.1 8.3l-14 3.4c-.4-1.667-.86-3.2-1.4-4.6-.53-1.4-1.23-2.6-2.1-3.6-.8-1-1.83-1.767-3.1-2.3-1.2-.6-2.66-.9-4.4-.9-4.06 0-6.96 1.6-8.7 4.8-1.66 3.133-2.5 7.5-2.5 13.1v12.2c0 5.6.84 10 2.5 13.2 1.74 3.133 4.64 4.7 8.7 4.7 3.47 0 5.97-1.067 7.5-3.2 1.6-2.134 2.77-4.867 3.5-8.2l14 3.4c-.73 3.066-1.76 5.833-3.1 8.3-1.26 2.466-2.9 4.6-4.9 6.4-2 1.733-4.4 3.066-7.2 4-2.73.933-5.9 1.4-9.5 1.4ZM1073.26 590.431h-14.8v-69.8h27c3.4 0 6.43.533 9.1 1.6 2.66 1 4.9 2.466 6.7 4.4 1.86 1.933 3.26 4.266 4.2 7 .93 2.733 1.4 5.8 1.4 9.2 0 4.933-1.07 9.166-3.2 12.7-2.14 3.533-5.17 5.866-9.1 7l13.7 27.9h-16.4l-11.7-25.9h-6.9v25.9Zm8.6-37.5c3.53 0 5.96-.667 7.3-2 1.4-1.334 2.1-3.534 2.1-6.6v-3c0-3.067-.7-5.267-2.1-6.6-1.34-1.334-3.77-2-7.3-2h-8.6v20.2h8.6ZM1118.32 590.431v-11.1h15v-47.6h-15v-11.1h45v11.1h-15v47.6h15v11.1h-45ZM1178.38 590.431v-69.8h27c3.4 0 6.43.533 9.1 1.6 2.66 1 4.9 2.466 6.7 4.4 1.86 1.933 3.26 4.266 4.2 7 .93 2.733 1.4 5.8 1.4 9.2 0 3.4-.47 6.466-1.4 9.2-.94 2.733-2.34 5.066-4.2 7-1.8 1.933-4.04 3.433-6.7 4.5-2.67 1-5.7 1.5-9.1 1.5h-11.9v25.4h-15.1Zm15.1-37.5h8.1c3.53 0 5.96-.667 7.3-2 1.4-1.334 2.1-3.534 2.1-6.6v-3c0-3.067-.7-5.267-2.1-6.6-1.34-1.334-3.77-2-7.3-2h-8.1v20.2ZM1268.24 532.931v57.5h-15v-57.5h-20.1v-12.3h55.2v12.3h-20.1ZM1376.65 520.631h24.5c6.86 0 12.1 1.666 15.7 5 3.66 3.333 5.5 7.866 5.5 13.6 0 4-1 7.2-3 9.6-1.94 2.333-4.74 4.033-8.4 5.1v.6c4.33 1.066 7.66 2.933 10 5.6 2.4 2.666 3.6 6.366 3.6 11.1 0 5.866-1.87 10.533-5.6 14-3.67 3.466-8.84 5.2-15.5 5.2h-26.8v-69.8Zm22.2 59.3c3.6 0 6.23-.6 7.9-1.8 1.66-1.2 2.5-3.4 2.5-6.6v-2.9c0-3.2-.84-5.4-2.5-6.6-1.67-1.2-4.3-1.8-7.9-1.8h-7.6v19.7h7.6Zm-1.9-29.7c3.53 0 6.1-.567 7.7-1.7 1.6-1.2 2.4-3.334 2.4-6.4v-3c0-3.067-.8-5.167-2.4-6.3-1.6-1.134-4.17-1.7-7.7-1.7h-5.7v19.1h5.7ZM1436.91 590.431v-69.8h44.6v12.3h-29.6v16h28.6v12.3h-28.6v16.9h29.6v12.3h-44.6ZM1496.87 590.431v-69.8h44.6v12.3h-29.6v16h28.6v12.3h-28.6v16.9h29.6v12.3h-44.6ZM1571.23 590.431h-14.8v-69.8h27c3.4 0 6.43.533 9.1 1.6 2.67 1 4.9 2.466 6.7 4.4 1.87 1.933 3.27 4.266 4.2 7 .93 2.733 1.4 5.8 1.4 9.2 0 4.933-1.07 9.166-3.2 12.7-2.13 3.533-5.17 5.866-9.1 7l13.7 27.9h-16.4l-11.7-25.9h-6.9v25.9Zm8.6-37.5c3.53 0 5.97-.667 7.3-2 1.4-1.334 2.1-3.534 2.1-6.6v-3c0-3.067-.7-5.267-2.1-6.6-1.33-1.334-3.77-2-7.3-2h-8.6v20.2h8.6Z"/></g></svg>