<?xml version="1.0" standalone="no"?>
<!DOCTYPE svg PUBLIC "-//W3C//DTD SVG 20010904//EN"
 "http://www.w3.org/TR/2001/REC-SVG-20010904/DTD/svg10.dtd">
<svg version="1.0" xmlns="http://www.w3.org/2000/svg"
 width="700.000000pt" height="700.000000pt" viewBox="0 0 700.000000 700.000000"
 preserveAspectRatio="xMidYMid meet">
<metadata>
Created by potrace 1.14, written by Peter Selinger 2001-2017
</metadata>
<g transform="translate(0.000000,700.000000) scale(0.100000,-0.100000)"
fill="#000000" stroke="none">
<path d="M2242 5898 c-9 -9 -12 -369 -12 -1559 l0 -1548 26 -20 c27 -21 29
-21 1134 -21 1105 0 1107 0 1134 21 l26 20 0 183 c0 198 -2 206 -55 206 -51 0
-55 -11 -55 -167 l0 -143 -1050 0 -1050 0 0 1470 0 1470 668 0 c526 0 694 -3
794 -15 387 -45 666 -161 833 -347 131 -145 183 -339 156 -575 -29 -251 -116
-423 -283 -563 -105 -89 -287 -168 -424 -186 -27 -4 -55 -11 -61 -17 -17 -12
-17 -82 0 -95 6 -5 56 -21 109 -36 571 -151 1000 -512 1148 -967 52 -158 64
-245 64 -454 0 -266 -38 -457 -130 -650 -112 -239 -325 -450 -579 -578 -186
-93 -324 -124 -600 -136 -712 -31 -1299 82 -1567 303 -249 206 -417 659 -453
1229 -10 152 -1 147 -256 147 l-199 0 0 -60 0 -60 169 0 168 0 7 -97 c22 -312
111 -672 218 -888 165 -329 386 -495 797 -600 251 -63 304 -68 845 -72 539 -5
563 -3 719 48 480 157 817 517 933 993 23 96 24 117 24 412 0 297 -1 316 -24
407 -120 472 -479 845 -1019 1058 l-108 42 90 43 c114 54 168 91 255 173 194
186 285 438 273 759 -5 157 -20 221 -77 337 -117 235 -373 408 -731 494 -68
17 -162 35 -209 41 -127 15 -1632 14 -1648 -2z"/>
<path d="M2999 5756 l-24 -12 -3 -1084 -2 -1085 -305 -305 c-168 -168 -305
-311 -305 -319 0 -21 19 -50 41 -62 17 -8 26 -6 52 13 18 13 166 158 330 323
l297 301 0 1100 c0 865 -3 1103 -12 1116 -19 23 -42 28 -69 14z"/>
<path d="M2602 5517 l-242 -243 40 -39 40 -39 245 244 245 245 -37 37 c-20 21
-40 38 -43 38 -3 0 -114 -109 -248 -243z"/>
<path d="M2602 5287 l-242 -243 40 -39 40 -39 245 244 245 245 -37 37 c-20 21
-40 38 -43 38 -3 0 -114 -109 -248 -243z"/>
<path d="M2602 5067 l-242 -243 40 -39 40 -39 163 160 c89 88 200 197 247 242
l85 81 -40 41 c-21 22 -42 40 -45 40 -3 0 -114 -109 -248 -243z"/>
<path d="M2602 4837 l-242 -243 40 -39 40 -39 245 244 245 245 -37 37 c-20 21
-40 38 -43 38 -3 0 -114 -109 -248 -243z"/>
<path d="M2602 4607 l-242 -243 40 -39 40 -39 227 224 c126 123 237 232 248
242 19 18 19 18 -20 58 -21 22 -42 40 -45 40 -3 0 -114 -109 -248 -243z"/>
<path d="M2602 4387 l-242 -242 43 -43 42 -42 245 245 244 245 -39 40 c-21 22
-42 40 -45 40 -3 0 -114 -109 -248 -243z"/>
<path d="M2602 4157 l-242 -243 39 -38 40 -39 88 81 c48 44 160 153 248 241
l159 161 -39 40 c-21 22 -42 40 -45 40 -3 0 -114 -109 -248 -243z"/>
<path d="M2602 3927 l-242 -242 43 -43 42 -42 245 245 244 245 -39 40 c-21 22
-42 40 -45 40 -3 0 -114 -109 -248 -243z"/>
<path d="M2606 3703 l-249 -245 42 -41 41 -42 247 248 248 247 -40 39 -40 40
-249 -246z"/>
<path d="M2606 3468 l-248 -243 44 -42 43 -43 245 245 245 245 -41 41 -41 40
-247 -243z"/>
</g>
</svg>
